{"glyphs":{"0":{"ha":694,"x_min":79,"x_max":615,"o":"m 149 214 l 519 690 l 551 625 l 181 154 l 149 214 m 347 -15 q 201 36 261 -15 q 110 187 142 88 q 79 428 79 286 q 110 665 79 565 q 201 817 142 764 q 347 871 261 871 q 493 817 433 871 q 584 665 553 764 q 615 428 615 565 q 584 187 615 286 q 493 36 553 88 q 347 -15 433 -15 m 347 69 q 438 111 400 69 q 495 233 475 153 q 515 428 515 313 q 495 617 515 538 q 438 742 475 697 q 347 786 400 786 q 257 742 294 786 q 199 617 219 697 q 179 428 179 538 q 199 233 179 313 q 257 111 219 153 q 347 69 294 69 z "},"1":{"ha":694,"x_min":122,"x_max":417,"o":"m 319 0 l 319 746 l 144 694 l 122 749 l 349 867 l 417 867 l 417 0 l 319 0 z "},"2":{"ha":694,"x_min":81,"x_max":610,"o":"m 101 78 q 239 217 176 154 q 351 333 301 279 q 435 434 400 386 q 488 528 469 482 q 506 626 506 575 q 494 701 506 671 q 463 751 483 732 q 416 778 443 769 q 358 786 389 786 q 294 776 325 786 q 236 748 264 767 q 185 699 208 729 q 169 669 172 679 q 168 647 167 658 l 163 640 l 151 647 l 81 703 q 150 794 108 757 q 244 851 192 832 q 357 871 297 871 q 486 841 431 871 q 574 756 542 811 q 606 624 606 700 q 585 513 606 567 q 528 408 564 460 q 443 306 492 357 q 340 199 394 254 q 226 85 285 144 l 549 85 q 582 88 572 85 q 600 99 592 90 l 610 99 l 610 85 l 610 0 l 101 0 l 101 78 z "},"3":{"ha":694,"x_min":96,"x_max":593,"o":"m 333 -15 q 203 10 265 -15 q 96 83 140 35 l 160 160 l 169 171 l 176 164 q 182 142 178 153 q 201 115 186 132 q 256 81 225 94 q 329 68 286 68 q 421 90 385 68 q 475 152 457 113 q 493 242 493 192 q 476 326 493 292 q 426 381 458 361 q 350 409 394 401 q 250 411 306 417 l 250 489 q 359 503 317 489 q 424 540 401 517 q 456 595 447 564 q 464 660 464 626 q 455 713 464 689 q 430 753 446 736 q 391 778 414 769 q 340 788 368 788 q 285 781 313 788 q 233 761 258 775 q 182 724 207 747 l 124 782 q 227 851 171 831 q 339 871 283 871 q 460 844 410 871 q 537 768 510 817 q 564 656 564 719 q 549 572 564 611 q 504 503 535 532 q 428 458 474 474 q 514 413 476 443 q 572 340 551 383 q 593 238 593 297 q 563 112 593 169 q 476 19 533 54 q 333 -15 418 -15 l 333 -15 z "},"4":{"ha":694,"x_min":67,"x_max":656,"o":"m 442 0 l 442 213 l 67 213 l 67 283 l 463 867 l 544 867 l 544 293 l 656 293 l 656 211 l 544 211 l 544 0 l 442 0 m 179 294 l 442 294 l 442 692 l 179 294 z "},"5":{"ha":694,"x_min":89,"x_max":618,"o":"m 346 -15 q 199 19 267 -15 q 89 118 132 54 l 167 176 l 178 185 l 183 178 q 187 157 182 167 q 206 129 192 147 q 267 84 233 99 q 351 69 301 69 q 415 84 385 69 q 469 125 446 99 q 506 190 492 151 q 519 276 519 229 q 506 363 519 325 q 467 428 492 401 q 411 468 443 454 q 342 482 379 482 q 283 472 313 482 q 227 444 253 463 q 179 400 201 426 l 118 425 l 147 865 l 586 865 l 586 778 l 229 778 l 215 529 q 262 548 239 540 q 309 559 285 556 q 357 563 333 563 q 461 542 414 563 q 544 484 508 522 q 599 392 579 446 q 618 272 618 339 q 582 119 618 183 q 485 19 546 54 q 346 -15 424 -15 l 346 -15 z "},"6":{"ha":694,"x_min":93,"x_max":610,"o":"m 363 -14 q 216 36 276 -14 q 124 178 156 86 q 93 394 93 269 q 131 657 93 550 q 238 819 169 764 q 399 875 307 875 q 501 856 453 875 q 589 796 549 836 l 528 726 l 518 715 l 511 722 q 505 743 510 733 q 482 768 500 753 q 458 781 471 776 q 432 787 446 785 q 401 789 418 789 q 351 781 379 789 q 296 751 324 772 q 244 693 268 731 q 205 597 219 656 q 189 454 190 538 q 238 510 208 488 q 301 546 267 533 q 372 558 336 558 q 464 538 421 558 q 540 481 507 518 q 591 391 572 443 q 610 275 610 339 q 576 124 610 189 q 488 22 543 58 q 363 -14 432 -14 l 363 -14 m 367 72 q 423 85 396 72 q 471 124 450 99 q 503 186 492 149 q 515 274 515 224 q 502 364 515 326 q 467 426 489 401 q 417 462 444 450 q 364 474 390 474 q 315 465 339 474 q 268 440 290 456 q 227 403 246 424 q 194 357 208 382 q 198 260 189 310 q 230 167 207 210 q 288 99 253 125 q 367 72 322 72 l 367 72 z "},"7":{"ha":694,"x_min":110,"x_max":600,"o":"m 215 0 q 298 262 256 133 q 385 518 340 390 q 479 774 431 646 l 110 774 l 110 865 l 600 865 l 600 811 q 524 611 561 711 q 451 410 486 511 q 385 206 417 308 q 325 0 354 104 l 215 0 z "},"8":{"ha":694,"x_min":83,"x_max":613,"o":"m 347 -14 q 206 17 265 -14 q 115 101 147 49 q 83 218 83 154 q 105 314 83 268 q 165 398 126 360 q 257 460 204 436 q 188 512 218 481 q 142 582 158 543 q 125 663 125 621 q 151 770 125 722 q 227 847 176 818 q 354 876 278 876 q 485 849 435 876 q 559 774 535 821 q 583 671 583 728 q 574 610 583 640 q 546 552 564 579 q 503 502 528 525 q 446 463 478 479 q 514 420 483 446 q 567 363 544 394 q 601 297 589 332 q 613 224 613 261 q 580 102 613 156 q 488 17 547 49 q 347 -14 429 -14 m 350 74 q 440 94 404 74 q 495 148 476 114 q 514 224 514 182 q 501 285 514 256 q 463 341 488 315 q 405 388 439 367 q 329 421 371 408 q 272 388 299 408 q 225 342 244 368 q 194 288 206 317 q 183 228 183 260 q 203 151 183 186 q 260 95 222 117 q 350 74 297 74 m 371 497 q 417 531 396 511 q 455 572 439 550 q 480 619 471 594 q 489 668 489 643 q 474 730 489 701 q 428 776 458 758 q 351 794 397 794 q 276 777 306 794 q 233 732 247 760 q 218 672 218 704 q 230 615 218 640 q 263 570 242 590 q 311 532 283 550 q 371 497 339 514 z "},"9":{"ha":694,"x_min":94,"x_max":610,"o":"m 317 -14 q 201 6 253 -14 q 110 65 150 26 l 169 133 l 179 144 l 186 138 q 193 117 188 126 q 215 93 199 108 q 257 75 235 81 q 308 69 279 69 q 403 101 364 69 q 468 188 443 133 q 505 308 493 242 q 517 444 517 375 q 499 635 517 560 q 443 749 481 711 q 347 786 406 786 q 283 773 313 786 q 233 734 254 760 q 200 672 211 708 q 189 590 189 636 q 201 516 189 549 q 236 460 214 483 q 287 425 258 438 q 347 413 315 413 q 430 424 396 413 q 492 460 464 435 q 544 525 519 485 l 551 426 q 496 375 525 397 q 430 340 467 353 q 346 328 393 328 q 246 347 292 328 q 166 400 200 365 q 113 483 132 435 q 94 589 94 531 q 114 701 94 650 q 167 791 133 753 q 247 850 201 829 q 343 871 292 871 q 485 824 425 871 q 577 694 544 776 q 610 504 610 611 q 574 215 610 329 q 474 45 539 101 q 317 -14 408 -11 l 317 -14 z "},"A":{"ha":694,"x_min":22,"x_max":672,"o":"m 496 253 l 182 253 l 201 328 l 474 328 l 496 253 m 346 658 l 118 0 l 22 0 l 342 881 l 353 881 l 672 0 l 572 0 l 346 658 z "},"Á":{"ha":694,"x_min":22,"x_max":672,"o":"m 496 253 l 182 253 l 201 328 l 474 328 l 496 253 m 346 658 l 118 0 l 22 0 l 342 881 l 353 881 l 672 0 l 572 0 l 346 658 z "},"Ă":{"ha":694,"x_min":22,"x_max":672,"o":"m 496 253 l 182 253 l 201 328 l 474 328 l 496 253 m 346 658 l 118 0 l 22 0 l 342 881 l 353 881 l 672 0 l 572 0 l 346 658 z "},"Ắ":{"ha":694,"x_min":22,"x_max":672,"o":"m 496 253 l 182 253 l 201 328 l 474 328 l 496 253 m 346 658 l 118 0 l 22 0 l 342 881 l 353 881 l 672 0 l 572 0 l 346 658 z "},"Ặ":{"ha":694,"x_min":22,"x_max":672,"o":"m 496 253 l 182 253 l 201 328 l 474 328 l 496 253 m 346 658 l 118 0 l 22 0 l 342 881 l 353 881 l 672 0 l 572 0 l 346 658 z "},"Ằ":{"ha":694,"x_min":22,"x_max":672,"o":"m 496 253 l 182 253 l 201 328 l 474 328 l 496 253 m 346 658 l 118 0 l 22 0 l 342 881 l 353 881 l 672 0 l 572 0 l 346 658 z "},"Ẳ":{"ha":694,"x_min":22,"x_max":672,"o":"m 496 253 l 182 253 l 201 328 l 474 328 l 496 253 m 346 658 l 118 0 l 22 0 l 342 881 l 353 881 l 672 0 l 572 0 l 346 658 m 451 1218 q 440 1173 451 1189 q 413 1146 428 1157 q 385 1120 397 1135 q 374 1079 374 1106 l 374 1069 l 303 1069 l 303 1108 q 314 1140 303 1126 q 339 1167 325 1154 q 364 1191 353 1179 q 375 1215 375 1203 q 363 1244 375 1235 q 332 1254 350 1254 q 297 1246 314 1254 q 271 1210 279 1238 l 219 1263 q 273 1308 244 1294 q 339 1321 301 1321 q 395 1308 369 1321 q 436 1273 421 1296 q 451 1218 451 1250 z "},"Ẵ":{"ha":694,"x_min":22,"x_max":672,"o":"m 496 253 l 182 253 l 201 328 l 474 328 l 496 253 m 346 658 l 118 0 l 22 0 l 342 881 l 353 881 l 672 0 l 572 0 l 346 658 m 475 1275 l 539 1244 q 485 1163 513 1186 q 421 1140 457 1140 q 375 1151 396 1140 q 336 1178 354 1163 q 301 1204 318 1193 q 268 1215 285 1215 q 233 1201 250 1215 q 206 1157 217 1186 l 142 1188 q 191 1263 157 1235 q 260 1292 225 1292 q 308 1281 285 1292 q 351 1254 331 1269 q 388 1228 371 1239 q 421 1217 406 1217 q 449 1231 436 1217 q 475 1275 463 1244 z "},"Â":{"ha":694,"x_min":22,"x_max":672,"o":"m 496 253 l 182 253 l 201 328 l 474 328 l 496 253 m 346 658 l 118 0 l 22 0 l 342 881 l 353 881 l 672 0 l 572 0 l 346 658 m 174 910 l 128 963 l 326 1099 l 357 1099 l 567 961 l 525 911 l 344 1008 l 174 910 z "},"Ấ":{"ha":694,"x_min":22,"x_max":747,"o":"m 496 253 l 182 253 l 201 328 l 474 328 l 496 253 m 346 658 l 118 0 l 22 0 l 342 881 l 353 881 l 672 0 l 572 0 l 346 658 z "},"Ậ":{"ha":694,"x_min":22,"x_max":672,"o":"m 496 253 l 182 253 l 201 328 l 474 328 l 496 253 m 346 658 l 118 0 l 22 0 l 342 881 l 353 881 l 672 0 l 572 0 l 346 658 m 174 910 l 128 963 l 326 1099 l 357 1099 l 567 961 l 525 911 l 344 1008 l 174 910 z "},"Ầ":{"ha":694,"x_min":22,"x_max":672,"o":"m 496 253 l 182 253 l 201 328 l 474 328 l 496 253 m 346 658 l 118 0 l 22 0 l 342 881 l 353 881 l 672 0 l 572 0 l 346 658 z "},"Ẩ":{"ha":694,"x_min":22,"x_max":672,"o":"m 496 253 l 182 253 l 201 328 l 474 328 l 496 253 m 346 658 l 118 0 l 22 0 l 342 881 l 353 881 l 672 0 l 572 0 l 346 658 z "},"Ẫ":{"ha":694,"x_min":22,"x_max":672,"o":"m 496 253 l 182 253 l 201 328 l 474 328 l 496 253 m 346 658 l 118 0 l 22 0 l 342 881 l 353 881 l 672 0 l 572 0 l 346 658 z "},"Ȁ":{"ha":694,"x_min":22,"x_max":672,"o":"m 496 253 l 182 253 l 201 328 l 474 328 l 496 253 m 346 658 l 118 0 l 22 0 l 342 881 l 353 881 l 672 0 l 572 0 l 346 658 z "},"Ä":{"ha":694,"x_min":22,"x_max":672,"o":"m 496 253 l 182 253 l 201 328 l 474 328 l 496 253 m 346 658 l 118 0 l 22 0 l 342 881 l 353 881 l 672 0 l 572 0 l 346 658 z "},"Ạ":{"ha":694,"x_min":22,"x_max":672,"o":"m 496 253 l 182 253 l 201 328 l 474 328 l 496 253 m 346 658 l 118 0 l 22 0 l 342 881 l 353 881 l 672 0 l 572 0 l 346 658 z "},"À":{"ha":694,"x_min":22,"x_max":672,"o":"m 496 253 l 182 253 l 201 328 l 474 328 l 496 253 m 346 658 l 118 0 l 22 0 l 342 881 l 353 881 l 672 0 l 572 0 l 346 658 z "},"Ả":{"ha":694,"x_min":22,"x_max":672,"o":"m 496 253 l 182 253 l 201 328 l 474 328 l 496 253 m 346 658 l 118 0 l 22 0 l 342 881 l 353 881 l 672 0 l 572 0 l 346 658 m 465 1106 q 453 1060 465 1076 q 426 1033 442 1044 q 399 1008 411 1022 q 388 967 388 993 l 388 957 l 317 957 l 317 996 q 328 1028 317 1014 q 353 1054 339 1042 q 378 1078 367 1067 q 389 1103 389 1090 q 376 1132 389 1122 q 346 1142 364 1142 q 310 1133 328 1142 q 285 1097 293 1125 l 233 1150 q 287 1195 258 1182 q 353 1208 315 1208 q 409 1196 383 1208 q 450 1160 435 1183 q 465 1106 465 1138 z "},"Ȃ":{"ha":694,"x_min":22,"x_max":672,"o":"m 496 253 l 182 253 l 201 328 l 474 328 l 496 253 m 346 658 l 118 0 l 22 0 l 342 881 l 353 881 l 672 0 l 572 0 l 346 658 m 221 964 l 149 997 q 231 1092 181 1058 q 346 1125 282 1125 q 462 1092 411 1125 q 543 997 513 1058 l 471 964 q 418 1035 449 1013 q 346 1058 388 1058 q 296 1049 318 1058 q 255 1018 274 1039 q 221 964 236 997 z "},"Ā":{"ha":694,"x_min":22,"x_max":672,"o":"m 496 253 l 182 253 l 201 328 l 474 328 l 496 253 m 346 658 l 118 0 l 22 0 l 342 881 l 353 881 l 672 0 l 572 0 l 346 658 z "},"Ą":{"ha":694,"x_min":22,"x_max":672,"o":"m 496 253 l 182 253 l 201 328 l 474 328 l 496 253 m 346 658 l 118 0 l 22 0 l 342 881 l 353 881 l 672 0 l 572 0 l 346 658 m 617 -249 l 594 -315 q 514 -292 549 -308 q 459 -251 479 -276 q 439 -190 439 -225 q 458 -116 439 -153 q 515 -44 478 -79 q 607 24 553 -8 l 644 0 q 584 -58 610 -28 q 544 -117 558 -87 q 531 -171 531 -146 q 551 -221 531 -200 q 617 -249 572 -242 z "},"Å":{"ha":694,"x_min":22,"x_max":672,"o":"m 496 253 l 182 253 l 201 328 l 474 328 l 496 253 m 346 658 l 118 0 l 22 0 l 342 881 l 353 881 l 672 0 l 572 0 l 346 658 z "},"Ǻ":{"ha":694,"x_min":22,"x_max":672,"o":"m 496 253 l 182 253 l 201 328 l 474 328 l 496 253 m 346 658 l 118 0 l 22 0 l 342 881 l 353 881 l 672 0 l 572 0 l 346 658 z "},"Ã":{"ha":694,"x_min":22,"x_max":672,"o":"m 496 253 l 182 253 l 201 328 l 474 328 l 496 253 m 346 658 l 118 0 l 22 0 l 342 881 l 353 881 l 672 0 l 572 0 l 346 658 z "},"Æ":{"ha":694,"x_min":21,"x_max":688,"o":"m 21 0 l 293 867 l 688 867 l 688 781 l 450 781 l 450 496 l 651 496 l 651 407 l 450 407 l 450 86 l 685 86 l 685 0 l 365 0 l 365 235 l 185 235 l 110 0 l 21 0 m 204 315 l 365 315 l 365 781 l 350 781 l 204 315 z "},"Ǽ":{"ha":694,"x_min":21,"x_max":688,"o":"m 21 0 l 293 867 l 688 867 l 688 781 l 450 781 l 450 496 l 651 496 l 651 407 l 450 407 l 450 86 l 685 86 l 685 0 l 365 0 l 365 235 l 185 235 l 110 0 l 21 0 m 204 315 l 365 315 l 365 781 l 350 781 l 204 315 z "},"B":{"ha":694,"x_min":67,"x_max":635,"o":"m 67 0 l 67 865 l 313 865 q 442 850 388 865 q 531 807 496 835 q 583 740 567 779 q 600 656 600 701 q 585 576 600 615 q 542 508 571 538 q 472 464 514 479 q 538 429 508 451 q 590 377 568 407 q 623 313 611 347 q 635 243 635 279 q 615 144 635 189 q 556 67 596 99 q 456 17 517 35 q 311 0 394 0 l 67 0 m 163 85 l 328 85 q 435 101 389 85 q 506 153 481 117 q 532 249 532 189 q 510 340 532 300 q 438 402 488 379 q 304 425 389 425 l 163 425 l 163 85 m 163 507 l 299 507 q 419 525 375 507 q 483 574 464 543 q 503 644 503 606 q 492 699 503 674 q 460 742 482 724 q 401 772 438 761 q 314 783 365 783 l 163 783 l 163 507 z "},"C":{"ha":694,"x_min":57,"x_max":651,"o":"m 396 -14 q 264 12 325 -14 q 156 92 203 38 q 83 229 110 146 q 57 428 57 313 q 76 605 57 529 q 129 732 96 681 q 206 814 163 783 q 296 858 249 844 q 390 872 343 872 q 551 826 485 872 q 651 701 618 779 l 568 663 l 556 657 l 551 667 q 551 687 556 678 q 536 715 547 696 q 465 778 501 763 q 388 794 428 794 q 290 770 333 794 q 215 699 246 746 q 167 586 183 653 q 151 435 151 519 q 170 286 151 353 q 222 171 189 219 q 298 96 254 122 q 392 69 342 69 q 459 82 426 69 q 519 119 492 94 q 567 175 547 143 l 639 128 q 539 22 597 58 q 396 -14 481 -14 l 396 -14 z "},"Ć":{"ha":694,"x_min":57,"x_max":651,"o":"m 396 -14 q 264 12 325 -14 q 156 92 203 38 q 83 229 110 146 q 57 428 57 313 q 76 605 57 529 q 129 732 96 681 q 206 814 163 783 q 296 858 249 844 q 390 872 343 872 q 551 826 485 872 q 651 701 618 779 l 568 663 l 556 657 l 551 667 q 551 687 556 678 q 536 715 547 696 q 465 778 501 763 q 388 794 428 794 q 290 770 333 794 q 215 699 246 746 q 167 586 183 653 q 151 435 151 519 q 170 286 151 353 q 222 171 189 219 q 298 96 254 122 q 392 69 342 69 q 459 82 426 69 q 519 119 492 94 q 567 175 547 143 l 639 128 q 539 22 597 58 q 396 -14 481 -14 l 396 -14 z "},"Č":{"ha":694,"x_min":57,"x_max":651,"o":"m 396 -14 q 264 12 325 -14 q 156 92 203 38 q 83 229 110 146 q 57 428 57 313 q 76 605 57 529 q 129 732 96 681 q 206 814 163 783 q 296 858 249 844 q 390 872 343 872 q 551 826 485 872 q 651 701 618 779 l 568 663 l 556 657 l 551 667 q 551 687 556 678 q 536 715 547 696 q 465 778 501 763 q 388 794 428 794 q 290 770 333 794 q 215 699 246 746 q 167 586 183 653 q 151 435 151 519 q 170 286 151 353 q 222 171 189 219 q 298 96 254 122 q 392 69 342 69 q 459 82 426 69 q 519 119 492 94 q 567 175 547 143 l 639 128 q 539 22 597 58 q 396 -14 481 -14 l 396 -14 z "},"Ç":{"ha":694,"x_min":57,"x_max":651,"o":"m 396 -14 q 264 12 325 -14 q 156 92 203 38 q 83 229 110 146 q 57 428 57 313 q 76 605 57 529 q 129 732 96 681 q 206 814 163 783 q 296 858 249 844 q 390 872 343 872 q 551 826 485 872 q 651 701 618 779 l 568 663 l 556 657 l 551 667 q 551 687 556 678 q 536 715 547 696 q 465 778 501 763 q 388 794 428 794 q 290 770 333 794 q 215 699 246 746 q 167 586 183 653 q 151 435 151 519 q 170 286 151 353 q 222 171 189 219 q 298 96 254 122 q 392 69 342 69 q 459 82 426 69 q 519 119 492 94 q 567 175 547 143 l 639 128 q 539 22 597 58 q 396 -14 481 -14 l 396 -14 z "},"Ḉ":{"ha":694,"x_min":57,"x_max":651,"o":"m 396 -14 q 264 12 325 -14 q 156 92 203 38 q 83 229 110 146 q 57 428 57 313 q 76 605 57 529 q 129 732 96 681 q 206 814 163 783 q 296 858 249 844 q 390 872 343 872 q 551 826 485 872 q 651 701 618 779 l 568 663 l 556 657 l 551 667 q 551 687 556 678 q 536 715 547 696 q 465 778 501 763 q 388 794 428 794 q 290 770 333 794 q 215 699 246 746 q 167 586 183 653 q 151 435 151 519 q 170 286 151 353 q 222 171 189 219 q 298 96 254 122 q 392 69 342 69 q 459 82 426 69 q 519 119 492 94 q 567 175 547 143 l 639 128 q 539 22 597 58 q 396 -14 481 -14 l 396 -14 z "},"Ĉ":{"ha":694,"x_min":57,"x_max":651,"o":"m 396 -14 q 264 12 325 -14 q 156 92 203 38 q 83 229 110 146 q 57 428 57 313 q 76 605 57 529 q 129 732 96 681 q 206 814 163 783 q 296 858 249 844 q 390 872 343 872 q 551 826 485 872 q 651 701 618 779 l 568 663 l 556 657 l 551 667 q 551 687 556 678 q 536 715 547 696 q 465 778 501 763 q 388 794 428 794 q 290 770 333 794 q 215 699 246 746 q 167 586 183 653 q 151 435 151 519 q 170 286 151 353 q 222 171 189 219 q 298 96 254 122 q 392 69 342 69 q 459 82 426 69 q 519 119 492 94 q 567 175 547 143 l 639 128 q 539 22 597 58 q 396 -14 481 -14 l 396 -14 m 201 910 l 156 963 l 354 1099 l 385 1099 l 594 961 l 553 911 l 372 1008 l 201 910 z "},"Ċ":{"ha":694,"x_min":57,"x_max":651,"o":"m 396 -14 q 264 12 325 -14 q 156 92 203 38 q 83 229 110 146 q 57 428 57 313 q 76 605 57 529 q 129 732 96 681 q 206 814 163 783 q 296 858 249 844 q 390 872 343 872 q 551 826 485 872 q 651 701 618 779 l 568 663 l 556 657 l 551 667 q 551 687 556 678 q 536 715 547 696 q 465 778 501 763 q 388 794 428 794 q 290 770 333 794 q 215 699 246 746 q 167 586 183 653 q 151 435 151 519 q 170 286 151 353 q 222 171 189 219 q 298 96 254 122 q 392 69 342 69 q 459 82 426 69 q 519 119 492 94 q 567 175 547 143 l 639 128 q 539 22 597 58 q 396 -14 481 -14 l 396 -14 z "},"D":{"ha":694,"x_min":75,"x_max":639,"o":"m 75 -1 l 75 865 l 276 865 q 403 851 351 865 q 490 812 454 838 q 554 747 526 786 q 602 660 583 708 q 630 553 621 611 q 639 428 639 496 q 613 249 635 328 q 546 114 590 169 q 431 28 501 58 q 260 -1 361 -1 l 75 -1 m 167 75 l 256 75 q 419 115 356 75 q 513 233 482 156 q 542 422 543 311 q 514 617 542 536 q 427 740 486 697 q 271 783 368 783 l 167 783 l 167 75 z "},"Ð":{"ha":694,"x_min":42,"x_max":647,"o":"m 110 -1 l 110 418 l 42 418 l 42 499 l 110 499 l 110 865 l 303 865 q 415 851 368 865 q 496 814 463 838 q 553 762 529 790 q 593 703 576 733 q 618 643 606 681 q 639 552 631 606 q 647 429 647 499 q 623 247 647 328 q 552 112 599 167 q 438 28 506 57 q 285 -1 371 -1 l 110 -1 m 199 79 l 282 79 q 431 120 371 79 q 523 239 492 161 q 554 425 554 317 q 527 617 554 536 q 443 740 500 697 q 297 783 386 783 l 199 783 l 199 499 l 344 499 l 344 418 l 199 418 l 199 79 z "},"Ď":{"ha":694,"x_min":75,"x_max":639,"o":"m 75 -1 l 75 865 l 276 865 q 403 851 351 865 q 490 812 454 838 q 554 747 526 786 q 602 660 583 708 q 630 553 621 611 q 639 428 639 496 q 613 249 635 328 q 546 114 590 169 q 431 28 501 58 q 260 -1 361 -1 l 75 -1 m 167 75 l 256 75 q 419 115 356 75 q 513 233 482 156 q 542 422 543 311 q 514 617 542 536 q 427 740 486 697 q 271 783 368 783 l 167 783 l 167 75 z "},"Đ":{"ha":694,"x_min":42,"x_max":647,"o":"m 110 -1 l 110 418 l 42 418 l 42 499 l 110 499 l 110 865 l 303 865 q 415 851 368 865 q 496 814 463 838 q 553 762 529 790 q 593 703 576 733 q 618 643 606 681 q 639 552 631 606 q 647 429 647 499 q 623 247 647 328 q 552 112 599 167 q 438 28 506 57 q 285 -1 371 -1 l 110 -1 m 199 79 l 282 79 q 431 120 371 79 q 523 239 492 161 q 554 425 554 317 q 527 617 554 536 q 443 740 500 697 q 297 783 386 783 l 199 783 l 199 499 l 344 499 l 344 418 l 199 418 l 199 79 z "},"Ḍ":{"ha":694,"x_min":75,"x_max":639,"o":"m 75 -1 l 75 865 l 276 865 q 403 851 351 865 q 490 812 454 838 q 554 747 526 786 q 602 660 583 708 q 630 553 621 611 q 639 428 639 496 q 613 249 635 328 q 546 114 590 169 q 431 28 501 58 q 260 -1 361 -1 l 75 -1 m 167 75 l 256 75 q 419 115 356 75 q 513 233 482 156 q 542 422 543 311 q 514 617 542 536 q 427 740 486 697 q 271 783 368 783 l 167 783 l 167 75 z "},"Ḏ":{"ha":694,"x_min":75,"x_max":639,"o":"m 75 -1 l 75 865 l 276 865 q 403 851 351 865 q 490 812 454 838 q 554 747 526 786 q 602 660 583 708 q 630 553 621 611 q 639 428 639 496 q 613 249 635 328 q 546 114 590 169 q 431 28 501 58 q 260 -1 361 -1 l 75 -1 m 167 75 l 256 75 q 419 115 356 75 q 513 233 482 156 q 542 422 543 311 q 514 617 542 536 q 427 740 486 697 q 271 783 368 783 l 167 783 l 167 75 z "},"E":{"ha":694,"x_min":82,"x_max":613,"o":"m 82 0 l 82 867 l 613 867 l 613 781 l 174 781 l 174 496 l 536 496 l 536 407 l 174 407 l 174 86 l 608 86 l 608 0 l 82 0 z "},"É":{"ha":694,"x_min":82,"x_max":613,"o":"m 82 0 l 82 867 l 613 867 l 613 781 l 174 781 l 174 496 l 536 496 l 536 407 l 174 407 l 174 86 l 608 86 l 608 0 l 82 0 z "},"Ĕ":{"ha":694,"x_min":82,"x_max":613,"o":"m 82 0 l 82 867 l 613 867 l 613 781 l 174 781 l 174 496 l 536 496 l 536 407 l 174 407 l 174 86 l 608 86 l 608 0 l 82 0 z "},"Ě":{"ha":694,"x_min":82,"x_max":613,"o":"m 82 0 l 82 867 l 613 867 l 613 781 l 174 781 l 174 496 l 536 496 l 536 407 l 174 407 l 174 86 l 608 86 l 608 0 l 82 0 z "},"Ḝ":{"ha":694,"x_min":82,"x_max":613,"o":"m 82 0 l 82 867 l 613 867 l 613 781 l 174 781 l 174 496 l 536 496 l 536 407 l 174 407 l 174 86 l 608 86 l 608 0 l 82 0 z "},"Ê":{"ha":694,"x_min":82,"x_max":613,"o":"m 82 0 l 82 867 l 613 867 l 613 781 l 174 781 l 174 496 l 536 496 l 536 407 l 174 407 l 174 86 l 608 86 l 608 0 l 82 0 m 186 910 l 140 963 l 339 1099 l 369 1099 l 579 961 l 538 911 l 357 1008 l 186 910 z "},"Ế":{"ha":694,"x_min":82,"x_max":760,"o":"m 82 0 l 82 867 l 613 867 l 613 781 l 174 781 l 174 496 l 536 496 l 536 407 l 174 407 l 174 86 l 608 86 l 608 0 l 82 0 z "},"Ệ":{"ha":694,"x_min":82,"x_max":613,"o":"m 82 0 l 82 867 l 613 867 l 613 781 l 174 781 l 174 496 l 536 496 l 536 407 l 174 407 l 174 86 l 608 86 l 608 0 l 82 0 m 186 910 l 140 963 l 339 1099 l 369 1099 l 579 961 l 538 911 l 357 1008 l 186 910 z "},"Ề":{"ha":694,"x_min":82,"x_max":613,"o":"m 82 0 l 82 867 l 613 867 l 613 781 l 174 781 l 174 496 l 536 496 l 536 407 l 174 407 l 174 86 l 608 86 l 608 0 l 82 0 z "},"Ể":{"ha":694,"x_min":82,"x_max":638,"o":"m 82 0 l 82 867 l 613 867 l 613 781 l 174 781 l 174 496 l 536 496 l 536 407 l 174 407 l 174 86 l 608 86 l 608 0 l 82 0 z "},"Ễ":{"ha":694,"x_min":82,"x_max":613,"o":"m 82 0 l 82 867 l 613 867 l 613 781 l 174 781 l 174 496 l 536 496 l 536 407 l 174 407 l 174 86 l 608 86 l 608 0 l 82 0 z "},"Ȅ":{"ha":694,"x_min":82,"x_max":613,"o":"m 82 0 l 82 867 l 613 867 l 613 781 l 174 781 l 174 496 l 536 496 l 536 407 l 174 407 l 174 86 l 608 86 l 608 0 l 82 0 z "},"Ë":{"ha":694,"x_min":82,"x_max":613,"o":"m 82 0 l 82 867 l 613 867 l 613 781 l 174 781 l 174 496 l 536 496 l 536 407 l 174 407 l 174 86 l 608 86 l 608 0 l 82 0 z "},"Ė":{"ha":694,"x_min":82,"x_max":613,"o":"m 82 0 l 82 867 l 613 867 l 613 781 l 174 781 l 174 496 l 536 496 l 536 407 l 174 407 l 174 86 l 608 86 l 608 0 l 82 0 z "},"Ẹ":{"ha":694,"x_min":82,"x_max":613,"o":"m 82 0 l 82 867 l 613 867 l 613 781 l 174 781 l 174 496 l 536 496 l 536 407 l 174 407 l 174 86 l 608 86 l 608 0 l 82 0 z "},"È":{"ha":694,"x_min":82,"x_max":613,"o":"m 82 0 l 82 867 l 613 867 l 613 781 l 174 781 l 174 496 l 536 496 l 536 407 l 174 407 l 174 86 l 608 86 l 608 0 l 82 0 z "},"Ẻ":{"ha":694,"x_min":82,"x_max":613,"o":"m 82 0 l 82 867 l 613 867 l 613 781 l 174 781 l 174 496 l 536 496 l 536 407 l 174 407 l 174 86 l 608 86 l 608 0 l 82 0 m 478 1106 q 466 1060 478 1076 q 439 1033 454 1044 q 412 1008 424 1022 q 400 967 400 993 l 400 957 l 329 957 l 329 996 q 340 1028 329 1014 q 365 1054 351 1042 q 390 1078 379 1067 q 401 1103 401 1090 q 389 1132 401 1122 q 358 1142 376 1142 q 323 1133 340 1142 q 297 1097 306 1125 l 246 1150 q 299 1195 271 1182 q 365 1208 328 1208 q 422 1196 396 1208 q 463 1160 447 1183 q 478 1106 478 1138 z "},"Ȇ":{"ha":694,"x_min":82,"x_max":613,"o":"m 82 0 l 82 867 l 613 867 l 613 781 l 174 781 l 174 496 l 536 496 l 536 407 l 174 407 l 174 86 l 608 86 l 608 0 l 82 0 m 233 964 l 161 997 q 244 1092 193 1058 q 358 1125 294 1125 q 474 1092 424 1125 q 556 997 525 1058 l 483 964 q 431 1035 461 1013 q 358 1058 400 1058 q 308 1049 331 1058 q 267 1018 286 1039 q 233 964 249 997 z "},"Ē":{"ha":694,"x_min":82,"x_max":613,"o":"m 82 0 l 82 867 l 613 867 l 613 781 l 174 781 l 174 496 l 536 496 l 536 407 l 174 407 l 174 86 l 608 86 l 608 0 l 82 0 z "},"Ḗ":{"ha":694,"x_min":82,"x_max":613,"o":"m 82 0 l 82 867 l 613 867 l 613 781 l 174 781 l 174 496 l 536 496 l 536 407 l 174 407 l 174 86 l 608 86 l 608 0 l 82 0 z "},"Ḕ":{"ha":694,"x_min":82,"x_max":613,"o":"m 82 0 l 82 867 l 613 867 l 613 781 l 174 781 l 174 496 l 536 496 l 536 407 l 174 407 l 174 86 l 608 86 l 608 0 l 82 0 z "},"Ę":{"ha":694,"x_min":82,"x_max":613,"o":"m 82 0 l 82 867 l 613 867 l 613 781 l 174 781 l 174 496 l 536 496 l 536 407 l 174 407 l 174 86 l 608 86 l 608 0 l 82 0 m 526 -249 l 504 -315 q 424 -292 458 -308 q 369 -251 389 -276 q 349 -190 349 -225 q 368 -116 349 -153 q 425 -44 388 -79 q 517 24 463 -8 l 554 0 q 494 -58 519 -28 q 454 -117 468 -87 q 440 -171 440 -146 q 461 -221 440 -200 q 526 -249 482 -242 z "},"Ẽ":{"ha":694,"x_min":82,"x_max":613,"o":"m 82 0 l 82 867 l 613 867 l 613 781 l 174 781 l 174 496 l 536 496 l 536 407 l 174 407 l 174 86 l 608 86 l 608 0 l 82 0 z "},"Ƹ":{"ha":694,"x_min":99,"x_max":596,"o":"m 372 -15 q 221 20 282 -15 q 129 113 160 56 q 99 239 99 171 q 119 346 99 296 q 176 434 139 396 q 265 494 214 472 q 379 517 317 517 l 469 517 l 469 444 q 358 438 408 447 q 273 404 308 428 q 218 341 238 381 q 199 246 199 301 q 220 153 199 193 q 283 90 242 113 q 382 68 324 68 q 449 79 422 68 q 497 113 475 90 q 517 140 513 131 q 521 160 522 149 l 528 168 l 538 158 l 596 83 q 494 10 551 35 q 372 -15 438 -15 l 372 -15 m 122 778 l 122 865 l 546 865 l 546 778 l 231 778 l 469 517 l 372 511 l 122 778 z "},"F":{"ha":694,"x_min":108,"x_max":607,"o":"m 108 0 l 108 867 l 607 867 l 607 782 l 206 782 l 206 510 l 529 510 l 529 425 l 206 425 l 206 0 l 108 0 z "},"G":{"ha":694,"x_min":49,"x_max":639,"o":"m 385 -14 q 206 40 282 -14 q 90 193 131 94 q 50 422 50 292 q 70 613 49 535 q 128 743 92 692 q 208 824 164 794 q 298 864 253 853 q 381 875 343 875 q 481 856 432 875 q 572 806 531 838 q 636 729 613 774 l 568 675 l 557 665 l 551 674 q 548 694 553 685 q 528 721 543 703 q 485 760 507 744 q 437 782 463 775 q 379 789 411 789 q 307 778 342 789 q 243 744 272 768 q 192 679 214 719 q 158 581 169 639 q 146 443 146 522 q 163 284 146 353 q 210 168 179 215 q 285 97 242 121 q 385 72 329 72 q 426 75 404 72 q 469 84 447 78 q 511 101 490 90 q 549 125 532 111 l 549 331 l 392 331 l 392 415 l 639 415 l 639 76 q 514 9 578 32 q 385 -14 450 -14 l 385 -14 z "},"Ğ":{"ha":694,"x_min":49,"x_max":639,"o":"m 385 -14 q 206 40 282 -14 q 90 193 131 94 q 50 422 50 292 q 70 613 49 535 q 128 743 92 692 q 208 824 164 794 q 298 864 253 853 q 381 875 343 875 q 481 856 432 875 q 572 806 531 838 q 636 729 613 774 l 568 675 l 557 665 l 551 674 q 548 694 553 685 q 528 721 543 703 q 485 760 507 744 q 437 782 463 775 q 379 789 411 789 q 307 778 342 789 q 243 744 272 768 q 192 679 214 719 q 158 581 169 639 q 146 443 146 522 q 163 284 146 353 q 210 168 179 215 q 285 97 242 121 q 385 72 329 72 q 426 75 404 72 q 469 84 447 78 q 511 101 490 90 q 549 125 532 111 l 549 331 l 392 331 l 392 415 l 639 415 l 639 76 q 514 9 578 32 q 385 -14 450 -14 l 385 -14 z "},"Ǧ":{"ha":694,"x_min":49,"x_max":639,"o":"m 385 -14 q 206 40 282 -14 q 90 193 131 94 q 50 422 50 292 q 70 613 49 535 q 128 743 92 692 q 208 824 164 794 q 298 864 253 853 q 381 875 343 875 q 481 856 432 875 q 572 806 531 838 q 636 729 613 774 l 568 675 l 557 665 l 551 674 q 548 694 553 685 q 528 721 543 703 q 485 760 507 744 q 437 782 463 775 q 379 789 411 789 q 307 778 342 789 q 243 744 272 768 q 192 679 214 719 q 158 581 169 639 q 146 443 146 522 q 163 284 146 353 q 210 168 179 215 q 285 97 242 121 q 385 72 329 72 q 426 75 404 72 q 469 84 447 78 q 511 101 490 90 q 549 125 532 111 l 549 331 l 392 331 l 392 415 l 639 415 l 639 76 q 514 9 578 32 q 385 -14 450 -14 l 385 -14 z "},"Ĝ":{"ha":694,"x_min":49,"x_max":639,"o":"m 385 -14 q 206 40 282 -14 q 90 193 131 94 q 50 422 50 292 q 70 613 49 535 q 128 743 92 692 q 208 824 164 794 q 298 864 253 853 q 381 875 343 875 q 481 856 432 875 q 572 806 531 838 q 636 729 613 774 l 568 675 l 557 665 l 551 674 q 548 694 553 685 q 528 721 543 703 q 485 760 507 744 q 437 782 463 775 q 379 789 411 789 q 307 778 342 789 q 243 744 272 768 q 192 679 214 719 q 158 581 169 639 q 146 443 146 522 q 163 284 146 353 q 210 168 179 215 q 285 97 242 121 q 385 72 329 72 q 426 75 404 72 q 469 84 447 78 q 511 101 490 90 q 549 125 532 111 l 549 331 l 392 331 l 392 415 l 639 415 l 639 76 q 514 9 578 32 q 385 -14 450 -14 l 385 -14 m 207 910 l 161 963 l 360 1099 l 390 1099 l 600 961 l 558 911 l 378 1008 l 207 910 z "},"Ģ":{"ha":694,"x_min":49,"x_max":639,"o":"m 385 -14 q 206 40 282 -14 q 90 193 131 94 q 50 422 50 292 q 70 613 49 535 q 128 743 92 692 q 208 824 164 794 q 298 864 253 853 q 381 875 343 875 q 481 856 432 875 q 572 806 531 838 q 636 729 613 774 l 568 675 l 557 665 l 551 674 q 548 694 553 685 q 528 721 543 703 q 485 760 507 744 q 437 782 463 775 q 379 789 411 789 q 307 778 342 789 q 243 744 272 768 q 192 679 214 719 q 158 581 169 639 q 146 443 146 522 q 163 284 146 353 q 210 168 179 215 q 285 97 242 121 q 385 72 329 72 q 426 75 404 72 q 469 84 447 78 q 511 101 490 90 q 549 125 532 111 l 549 331 l 392 331 l 392 415 l 639 415 l 639 76 q 514 9 578 32 q 385 -14 450 -14 l 385 -14 m 329 -382 l 288 -344 q 344 -275 321 -312 q 368 -214 368 -237 q 352 -183 368 -197 q 320 -155 336 -169 q 304 -117 304 -140 q 325 -65 304 -86 q 378 -43 346 -43 q 437 -72 411 -43 q 463 -147 463 -101 q 448 -217 463 -181 q 403 -295 433 -254 q 329 -382 374 -336 z "},"Ġ":{"ha":694,"x_min":49,"x_max":639,"o":"m 385 -14 q 206 40 282 -14 q 90 193 131 94 q 50 422 50 292 q 70 613 49 535 q 128 743 92 692 q 208 824 164 794 q 298 864 253 853 q 381 875 343 875 q 481 856 432 875 q 572 806 531 838 q 636 729 613 774 l 568 675 l 557 665 l 551 674 q 548 694 553 685 q 528 721 543 703 q 485 760 507 744 q 437 782 463 775 q 379 789 411 789 q 307 778 342 789 q 243 744 272 768 q 192 679 214 719 q 158 581 169 639 q 146 443 146 522 q 163 284 146 353 q 210 168 179 215 q 285 97 242 121 q 385 72 329 72 q 426 75 404 72 q 469 84 447 78 q 511 101 490 90 q 549 125 532 111 l 549 331 l 392 331 l 392 415 l 639 415 l 639 76 q 514 9 578 32 q 385 -14 450 -14 l 385 -14 z "},"Ḡ":{"ha":694,"x_min":49,"x_max":639,"o":"m 385 -14 q 206 40 282 -14 q 90 193 131 94 q 50 422 50 292 q 70 613 49 535 q 128 743 92 692 q 208 824 164 794 q 298 864 253 853 q 381 875 343 875 q 481 856 432 875 q 572 806 531 838 q 636 729 613 774 l 568 675 l 557 665 l 551 674 q 548 694 553 685 q 528 721 543 703 q 485 760 507 744 q 437 782 463 775 q 379 789 411 789 q 307 778 342 789 q 243 744 272 768 q 192 679 214 719 q 158 581 169 639 q 146 443 146 522 q 163 284 146 353 q 210 168 179 215 q 285 97 242 121 q 385 72 329 72 q 426 75 404 72 q 469 84 447 78 q 511 101 490 90 q 549 125 532 111 l 549 331 l 392 331 l 392 415 l 639 415 l 639 76 q 514 9 578 32 q 385 -14 450 -14 l 385 -14 z "},"H":{"ha":694,"x_min":69,"x_max":624,"o":"m 69 865 l 169 865 l 183 865 l 183 856 q 173 838 175 847 q 171 804 171 828 l 171 496 l 510 496 l 510 865 l 610 865 l 624 865 l 624 856 q 613 838 615 847 q 611 804 611 828 l 611 0 l 508 0 l 508 413 l 171 413 l 171 0 l 69 0 l 69 865 z "},"Ħ":{"ha":694,"x_min":10,"x_max":676,"o":"m 10 692 l 10 768 l 676 768 l 676 692 l 10 692 m 69 865 l 169 865 l 183 865 l 183 856 q 173 838 175 847 q 171 804 171 828 l 171 496 l 510 496 l 510 865 l 610 865 l 624 865 l 624 856 q 613 838 615 847 q 611 804 611 828 l 611 0 l 508 0 l 508 413 l 171 413 l 171 0 l 69 0 l 69 865 z "},"Ḫ":{"ha":694,"x_min":69,"x_max":624,"o":"m 69 865 l 169 865 l 183 865 l 183 856 q 173 838 175 847 q 171 804 171 828 l 171 496 l 510 496 l 510 865 l 610 865 l 624 865 l 624 856 q 613 838 615 847 q 611 804 611 828 l 611 0 l 508 0 l 508 413 l 171 413 l 171 0 l 69 0 l 69 865 z "},"Ĥ":{"ha":694,"x_min":69,"x_max":624,"o":"m 69 865 l 169 865 l 183 865 l 183 856 q 173 838 175 847 q 171 804 171 828 l 171 496 l 510 496 l 510 865 l 610 865 l 624 865 l 624 856 q 613 838 615 847 q 611 804 611 828 l 611 0 l 508 0 l 508 413 l 171 413 l 171 0 l 69 0 l 69 865 m 174 910 l 128 963 l 326 1099 l 357 1099 l 567 961 l 525 911 l 344 1008 l 174 910 z "},"Ḥ":{"ha":694,"x_min":69,"x_max":624,"o":"m 69 865 l 169 865 l 183 865 l 183 856 q 173 838 175 847 q 171 804 171 828 l 171 496 l 510 496 l 510 865 l 610 865 l 624 865 l 624 856 q 613 838 615 847 q 611 804 611 828 l 611 0 l 508 0 l 508 413 l 171 413 l 171 0 l 69 0 l 69 865 z "},"I":{"ha":694,"x_min":113,"x_max":560,"o":"m 113 0 l 113 82 l 283 82 l 283 783 l 122 783 l 122 865 l 551 865 l 551 783 l 381 783 l 381 81 l 560 81 l 560 0 l 113 0 z "},"Í":{"ha":694,"x_min":113,"x_max":560,"o":"m 113 0 l 113 82 l 283 82 l 283 783 l 122 783 l 122 865 l 551 865 l 551 783 l 381 783 l 381 81 l 560 81 l 560 0 l 113 0 z "},"Ĭ":{"ha":694,"x_min":113,"x_max":560,"o":"m 113 0 l 113 82 l 283 82 l 283 783 l 122 783 l 122 865 l 551 865 l 551 783 l 381 783 l 381 81 l 560 81 l 560 0 l 113 0 z "},"Î":{"ha":694,"x_min":113,"x_max":560,"o":"m 113 0 l 113 82 l 283 82 l 283 783 l 122 783 l 122 865 l 551 865 l 551 783 l 381 783 l 381 81 l 560 81 l 560 0 l 113 0 m 158 910 l 113 963 l 311 1099 l 342 1099 l 551 961 l 510 911 l 329 1008 l 158 910 z "},"Ȉ":{"ha":694,"x_min":88,"x_max":560,"o":"m 113 0 l 113 82 l 283 82 l 283 783 l 122 783 l 122 865 l 551 865 l 551 783 l 381 783 l 381 81 l 560 81 l 560 0 l 113 0 z "},"Ï":{"ha":694,"x_min":113,"x_max":560,"o":"m 113 0 l 113 82 l 283 82 l 283 783 l 122 783 l 122 865 l 551 865 l 551 783 l 381 783 l 381 81 l 560 81 l 560 0 l 113 0 z "},"Ḯ":{"ha":694,"x_min":113,"x_max":560,"o":"m 113 0 l 113 82 l 283 82 l 283 783 l 122 783 l 122 865 l 551 865 l 551 783 l 381 783 l 381 81 l 560 81 l 560 0 l 113 0 z "},"İ":{"ha":694,"x_min":113,"x_max":560,"o":"m 113 0 l 113 82 l 283 82 l 283 783 l 122 783 l 122 865 l 551 865 l 551 783 l 381 783 l 381 81 l 560 81 l 560 0 l 113 0 z "},"Ị":{"ha":694,"x_min":113,"x_max":560,"o":"m 113 0 l 113 82 l 283 82 l 283 783 l 122 783 l 122 865 l 551 865 l 551 783 l 381 783 l 381 81 l 560 81 l 560 0 l 113 0 z "},"Ì":{"ha":694,"x_min":113,"x_max":560,"o":"m 113 0 l 113 82 l 283 82 l 283 783 l 122 783 l 122 865 l 551 865 l 551 783 l 381 783 l 381 81 l 560 81 l 560 0 l 113 0 z "},"Ỉ":{"ha":694,"x_min":113,"x_max":560,"o":"m 113 0 l 113 82 l 283 82 l 283 783 l 122 783 l 122 865 l 551 865 l 551 783 l 381 783 l 381 81 l 560 81 l 560 0 l 113 0 m 450 1106 q 438 1060 450 1076 q 411 1033 426 1044 q 384 1008 396 1022 q 372 967 372 993 l 372 957 l 301 957 l 301 996 q 313 1028 301 1014 q 338 1054 324 1042 q 363 1078 351 1067 q 374 1103 374 1090 q 361 1132 374 1122 q 331 1142 349 1142 q 295 1133 313 1142 q 269 1097 278 1125 l 218 1150 q 272 1195 243 1182 q 338 1208 300 1208 q 394 1196 368 1208 q 435 1160 419 1183 q 450 1106 450 1138 z "},"Ȋ":{"ha":694,"x_min":113,"x_max":560,"o":"m 113 0 l 113 82 l 283 82 l 283 783 l 122 783 l 122 865 l 551 865 l 551 783 l 381 783 l 381 81 l 560 81 l 560 0 l 113 0 m 206 964 l 133 997 q 216 1092 165 1058 q 331 1125 267 1125 q 447 1092 396 1125 q 528 997 497 1058 l 456 964 q 403 1035 433 1013 q 331 1058 372 1058 q 281 1049 303 1058 q 240 1018 258 1039 q 206 964 221 997 z "},"Ī":{"ha":694,"x_min":113,"x_max":560,"o":"m 113 0 l 113 82 l 283 82 l 283 783 l 122 783 l 122 865 l 551 865 l 551 783 l 381 783 l 381 81 l 560 81 l 560 0 l 113 0 z "},"Į":{"ha":694,"x_min":113,"x_max":560,"o":"m 113 0 l 113 82 l 283 82 l 283 783 l 122 783 l 122 865 l 551 865 l 551 783 l 381 783 l 381 81 l 560 81 l 560 0 l 113 0 m 532 -249 l 510 -315 q 429 -292 464 -308 q 374 -251 394 -276 q 354 -190 354 -225 q 374 -116 354 -153 q 431 -44 393 -79 q 522 24 468 -8 l 560 0 q 499 -58 525 -28 q 460 -117 474 -87 q 446 -171 446 -146 q 467 -221 446 -200 q 532 -249 488 -242 z "},"Ĩ":{"ha":694,"x_min":111,"x_max":569,"o":"m 113 0 l 113 82 l 283 82 l 283 783 l 122 783 l 122 865 l 551 865 l 551 783 l 381 783 l 381 81 l 560 81 l 560 0 l 113 0 z "},"J":{"ha":694,"x_min":68,"x_max":635,"o":"m 272 -15 q 160 9 211 -15 q 68 81 108 33 l 124 150 l 133 161 l 140 156 q 147 133 142 143 q 169 108 151 124 q 217 81 193 90 q 272 71 242 71 q 349 92 319 71 q 392 160 378 113 q 406 289 406 208 l 406 783 l 239 783 l 239 865 l 635 865 l 635 783 l 501 783 l 501 290 q 486 149 504 207 q 435 53 468 90 q 360 1 401 17 q 272 -15 318 -15 l 272 -15 z "},"Ĵ":{"ha":694,"x_min":68,"x_max":678,"o":"m 272 -15 q 160 9 211 -15 q 68 81 108 33 l 124 150 l 133 161 l 140 156 q 147 133 142 143 q 169 108 151 124 q 217 81 193 90 q 272 71 242 71 q 349 92 319 71 q 392 160 378 113 q 406 289 406 208 l 406 783 l 239 783 l 239 865 l 635 865 l 635 783 l 501 783 l 501 290 q 486 149 504 207 q 435 53 468 90 q 360 1 401 17 q 272 -15 318 -15 l 272 -15 m 285 910 l 239 963 l 438 1099 l 468 1099 l 678 961 l 636 911 l 456 1008 l 285 910 z "},"K":{"ha":694,"x_min":58,"x_max":654,"o":"m 231 433 l 163 358 l 163 0 l 58 0 l 58 865 l 161 865 l 175 865 l 175 856 q 165 838 167 847 q 163 804 163 828 l 163 467 l 524 872 q 540 869 532 871 q 558 867 549 868 q 576 866 567 867 q 596 865 586 865 l 632 865 l 304 492 l 654 0 l 529 -6 l 231 433 z "},"Ķ":{"ha":694,"x_min":58,"x_max":654,"o":"m 231 433 l 163 358 l 163 0 l 58 0 l 58 865 l 161 865 l 175 865 l 175 856 q 165 838 167 847 q 163 804 163 828 l 163 467 l 524 872 q 540 869 532 871 q 558 867 549 868 q 576 866 567 867 q 596 865 586 865 l 632 865 l 304 492 l 654 0 l 529 -6 l 231 433 m 288 -382 l 246 -344 q 303 -275 279 -312 q 326 -214 326 -237 q 310 -183 326 -197 q 278 -155 294 -169 q 263 -117 263 -140 q 283 -65 263 -86 q 336 -43 304 -43 q 395 -72 369 -43 q 421 -147 421 -101 q 406 -217 421 -181 q 362 -295 392 -254 q 288 -382 332 -336 z "},"Ƙ":{"ha":694,"x_min":58,"x_max":654,"o":"m 58 865 l 161 865 l 175 865 l 175 856 q 165 838 167 847 q 163 804 163 828 l 163 453 q 290 650 229 569 q 403 779 350 731 q 506 849 457 828 q 599 871 554 871 q 624 869 611 871 q 647 865 636 868 l 646 765 l 646 751 l 636 751 q 618 765 628 760 q 585 772 608 771 q 583 772 583 772 q 581 772 582 772 q 544 765 567 772 q 490 735 522 758 q 413 665 458 713 q 306 535 367 617 q 163 331 244 454 l 163 0 l 58 0 l 58 865 m 201 475 l 275 533 l 654 0 l 529 -6 l 201 475 z "},"L":{"ha":694,"x_min":92,"x_max":610,"o":"m 92 865 l 192 865 l 206 865 l 206 856 q 195 838 197 847 q 193 804 193 828 l 193 83 l 610 83 l 610 0 l 92 0 l 92 865 z "},"Ǉ":{"ha":694,"x_min":92,"x_max":629,"o":"m 397 -210 q 285 -185 336 -210 q 193 -114 233 -161 l 258 -35 q 269 -47 267 -40 q 274 -62 272 -54 q 285 -79 276 -69 q 308 -98 292 -87 q 346 -116 324 -108 q 396 -124 368 -124 q 470 -103 440 -124 q 515 -34 500 -82 q 531 94 531 14 l 531 783 l 350 783 l 350 865 l 626 865 l 626 783 l 626 783 l 626 96 q 611 -46 629 13 q 560 -140 593 -104 q 485 -193 526 -176 q 397 -210 443 -210 m 92 0 l 92 865 l 206 865 q 202 853 206 856 q 196 846 199 851 q 193 818 193 840 l 193 85 l 429 85 l 429 0 l 92 0 z "},"Ĺ":{"ha":694,"x_min":92,"x_max":610,"o":"m 92 865 l 192 865 l 206 865 l 206 856 q 195 838 197 847 q 193 804 193 828 l 193 83 l 610 83 l 610 0 l 92 0 l 92 865 z "},"Ľ":{"ha":694,"x_min":92,"x_max":610,"o":"m 471 571 l 432 604 q 484 667 464 633 q 504 721 504 701 q 490 749 504 736 q 462 775 476 761 q 447 807 447 789 q 466 853 447 835 q 514 872 485 872 q 566 847 543 872 q 589 781 589 821 q 576 717 589 750 q 537 647 563 683 q 471 571 511 611 m 92 865 l 192 865 l 206 865 l 206 856 q 195 838 197 847 q 193 804 193 828 l 193 83 l 610 83 l 610 0 l 92 0 l 92 865 z "},"Ļ":{"ha":694,"x_min":92,"x_max":610,"o":"m 92 865 l 192 865 l 206 865 l 206 856 q 195 838 197 847 q 193 804 193 828 l 193 83 l 610 83 l 610 0 l 92 0 l 92 865 m 307 -382 l 265 -344 q 322 -275 299 -312 q 346 -214 346 -237 q 330 -183 346 -197 q 298 -155 314 -169 q 282 -117 282 -140 q 303 -65 282 -86 q 356 -43 324 -43 q 415 -72 389 -43 q 440 -147 440 -101 q 426 -217 440 -181 q 381 -295 411 -254 q 307 -382 351 -336 z "},"Ŀ":{"ha":694,"x_min":92,"x_max":610,"o":"m 92 865 l 192 865 l 206 865 l 206 856 q 195 838 197 847 q 193 804 193 828 l 193 83 l 610 83 l 610 0 l 92 0 l 92 865 m 414 381 q 356 403 379 381 q 332 460 332 426 q 357 516 332 493 q 414 539 382 539 q 472 516 446 539 q 497 460 497 493 q 473 404 497 428 q 414 381 449 381 z "},"Ḷ":{"ha":694,"x_min":92,"x_max":610,"o":"m 92 865 l 192 865 l 206 865 l 206 856 q 195 838 197 847 q 193 804 193 828 l 193 83 l 610 83 l 610 0 l 92 0 l 92 865 z "},"ǈ":{"ha":694,"x_min":92,"x_max":604,"o":"m 92 0 l 92 865 l 206 865 q 199 841 206 851 q 193 818 193 831 l 193 85 l 415 85 l 415 0 l 92 0 m 344 -242 q 269 -232 304 -242 q 204 -202 233 -222 q 150 -153 175 -182 l 215 -67 q 225 -82 222 -74 q 232 -99 228 -90 q 248 -118 236 -108 q 286 -140 260 -128 q 308 -148 297 -144 q 329 -153 318 -151 q 351 -156 340 -156 q 409 -145 383 -156 q 454 -113 435 -135 q 484 -57 474 -92 q 494 25 494 -22 l 494 553 l 300 553 l 300 635 l 596 635 l 596 31 q 576 -92 596 -42 q 523 -175 557 -143 q 443 -223 489 -207 q 344 -242 397 -239 m 532 767 q 482 788 503 767 q 461 838 461 808 q 481 889 461 868 q 532 910 501 910 q 583 888 561 910 q 604 838 604 867 q 583 788 604 808 q 532 767 561 767 z "},"Ḻ":{"ha":694,"x_min":92,"x_max":610,"o":"m 92 865 l 192 865 l 206 865 l 206 856 q 195 838 197 847 q 193 804 193 828 l 193 83 l 610 83 l 610 0 l 92 0 l 92 865 z "},"Ł":{"ha":694,"x_min":28,"x_max":619,"o":"m 101 0 l 101 338 l 28 314 l 28 399 l 101 424 l 101 865 l 214 865 q 216 865 215 865 q 217 863 217 864 q 211 851 217 857 q 203 818 206 844 l 203 456 l 433 531 q 453 538 444 535 q 468 544 463 542 l 468 456 l 203 371 l 203 83 l 619 83 l 619 0 l 101 0 z "},"M":{"ha":694,"x_min":57,"x_max":639,"o":"m 57 0 l 57 865 l 133 865 l 347 442 l 565 867 l 639 867 l 639 0 l 547 0 l 547 653 l 360 304 l 322 304 l 147 649 l 147 0 l 57 0 z "},"Ṃ":{"ha":694,"x_min":57,"x_max":639,"o":"m 57 0 l 57 865 l 133 865 l 347 442 l 565 867 l 639 867 l 639 0 l 547 0 l 547 653 l 360 304 l 322 304 l 147 649 l 147 0 l 57 0 z "},"N":{"ha":694,"x_min":69,"x_max":633,"o":"m 69 865 l 164 865 l 528 224 l 528 865 l 619 865 l 633 865 l 633 856 q 623 838 625 847 q 621 804 621 828 l 621 0 l 544 0 l 163 681 l 163 0 l 69 0 l 69 865 z "},"Ń":{"ha":694,"x_min":69,"x_max":633,"o":"m 69 865 l 164 865 l 528 224 l 528 865 l 619 865 l 633 865 l 633 856 q 623 838 625 847 q 621 804 621 828 l 621 0 l 544 0 l 163 681 l 163 0 l 69 0 l 69 865 z "},"Ň":{"ha":694,"x_min":69,"x_max":633,"o":"m 69 865 l 164 865 l 528 224 l 528 865 l 619 865 l 633 865 l 633 856 q 623 838 625 847 q 621 804 621 828 l 621 0 l 544 0 l 163 681 l 163 0 l 69 0 l 69 865 z "},"Ņ":{"ha":694,"x_min":69,"x_max":633,"o":"m 69 865 l 164 865 l 528 224 l 528 865 l 619 865 l 633 865 l 633 856 q 623 838 625 847 q 621 804 621 828 l 621 0 l 544 0 l 163 681 l 163 0 l 69 0 l 69 865 m 307 -382 l 265 -344 q 322 -275 299 -312 q 346 -214 346 -237 q 330 -183 346 -197 q 298 -155 314 -169 q 282 -117 282 -140 q 303 -65 282 -86 q 356 -43 324 -43 q 415 -72 389 -43 q 440 -147 440 -101 q 426 -217 440 -181 q 381 -295 411 -254 q 307 -382 351 -336 z "},"Ṅ":{"ha":694,"x_min":69,"x_max":633,"o":"m 69 865 l 164 865 l 528 224 l 528 865 l 619 865 l 633 865 l 633 856 q 623 838 625 847 q 621 804 621 828 l 621 0 l 544 0 l 163 681 l 163 0 l 69 0 l 69 865 z "},"Ṇ":{"ha":694,"x_min":69,"x_max":633,"o":"m 69 865 l 164 865 l 528 224 l 528 865 l 619 865 l 633 865 l 633 856 q 623 838 625 847 q 621 804 621 828 l 621 0 l 544 0 l 163 681 l 163 0 l 69 0 l 69 865 z "},"Ŋ":{"ha":694,"x_min":69,"x_max":631,"o":"m 528 865 l 631 865 q 626 850 631 857 q 621 828 621 843 l 621 0 q 595 -143 621 -86 q 522 -228 569 -200 q 410 -257 475 -257 q 347 -249 378 -257 q 289 -222 317 -240 l 338 -136 q 352 -144 347 -139 q 363 -156 357 -150 q 380 -165 368 -161 q 414 -169 392 -169 q 481 -148 457 -169 q 516 -82 506 -126 q 528 31 526 -37 l 163 681 l 163 0 l 69 0 l 69 865 l 164 865 l 528 224 l 528 865 z "},"Ṉ":{"ha":694,"x_min":69,"x_max":633,"o":"m 69 865 l 164 865 l 528 224 l 528 865 l 619 865 l 633 865 l 633 856 q 623 838 625 847 q 621 804 621 828 l 621 0 l 544 0 l 163 681 l 163 0 l 69 0 l 69 865 z "},"Ñ":{"ha":694,"x_min":69,"x_max":633,"o":"m 69 865 l 164 865 l 528 224 l 528 865 l 619 865 l 633 865 l 633 856 q 623 838 625 847 q 621 804 621 828 l 621 0 l 544 0 l 163 681 l 163 0 l 69 0 l 69 865 z "},"O":{"ha":694,"x_min":38,"x_max":657,"o":"m 347 -15 q 179 36 249 -15 q 74 187 110 88 q 38 428 38 286 q 74 665 38 565 q 179 817 110 764 q 347 871 249 871 q 516 817 447 871 q 621 665 585 764 q 657 428 657 565 q 621 187 657 286 q 516 36 585 88 q 347 -15 447 -15 m 347 69 q 460 111 414 69 q 532 233 507 153 q 557 428 557 313 q 532 617 557 538 q 460 742 507 697 q 347 786 414 786 q 235 742 282 786 q 163 617 188 697 q 138 428 138 538 q 163 233 138 313 q 235 111 188 153 q 347 69 282 69 z "},"Ó":{"ha":694,"x_min":38,"x_max":657,"o":"m 347 -15 q 179 36 249 -15 q 74 187 110 88 q 38 428 38 286 q 74 665 38 565 q 179 817 110 764 q 347 871 249 871 q 516 817 447 871 q 621 665 585 764 q 657 428 657 565 q 621 187 657 286 q 516 36 585 88 q 347 -15 447 -15 m 347 69 q 460 111 414 69 q 532 233 507 153 q 557 428 557 313 q 532 617 557 538 q 460 742 507 697 q 347 786 414 786 q 235 742 282 786 q 163 617 188 697 q 138 428 138 538 q 163 233 138 313 q 235 111 188 153 q 347 69 282 69 z "},"Ŏ":{"ha":694,"x_min":38,"x_max":657,"o":"m 347 -15 q 179 36 249 -15 q 74 187 110 88 q 38 428 38 286 q 74 665 38 565 q 179 817 110 764 q 347 871 249 871 q 516 817 447 871 q 621 665 585 764 q 657 428 657 565 q 621 187 657 286 q 516 36 585 88 q 347 -15 447 -15 m 347 69 q 460 111 414 69 q 532 233 507 153 q 557 428 557 313 q 532 617 557 538 q 460 742 507 697 q 347 786 414 786 q 235 742 282 786 q 163 617 188 697 q 138 428 138 538 q 163 233 138 313 q 235 111 188 153 q 347 69 282 69 z "},"Ô":{"ha":694,"x_min":38,"x_max":657,"o":"m 347 -15 q 179 36 249 -15 q 74 187 110 88 q 38 428 38 286 q 74 665 38 565 q 179 817 110 764 q 347 871 249 871 q 516 817 447 871 q 621 665 585 764 q 657 428 657 565 q 621 187 657 286 q 516 36 585 88 q 347 -15 447 -15 m 347 69 q 460 111 414 69 q 532 233 507 153 q 557 428 557 313 q 532 617 557 538 q 460 742 507 697 q 347 786 414 786 q 235 742 282 786 q 163 617 188 697 q 138 428 138 538 q 163 233 138 313 q 235 111 188 153 q 347 69 282 69 m 174 910 l 128 963 l 326 1099 l 357 1099 l 567 961 l 525 911 l 344 1008 l 174 910 z "},"Ố":{"ha":694,"x_min":38,"x_max":747,"o":"m 347 -15 q 179 36 249 -15 q 74 187 110 88 q 38 428 38 286 q 74 665 38 565 q 179 817 110 764 q 347 871 249 871 q 516 817 447 871 q 621 665 585 764 q 657 428 657 565 q 621 187 657 286 q 516 36 585 88 q 347 -15 447 -15 m 347 69 q 460 111 414 69 q 532 233 507 153 q 557 428 557 313 q 532 617 557 538 q 460 742 507 697 q 347 786 414 786 q 235 742 282 786 q 163 617 188 697 q 138 428 138 538 q 163 233 138 313 q 235 111 188 153 q 347 69 282 69 z "},"Ộ":{"ha":694,"x_min":38,"x_max":657,"o":"m 347 -15 q 179 36 249 -15 q 74 187 110 88 q 38 428 38 286 q 74 665 38 565 q 179 817 110 764 q 347 871 249 871 q 516 817 447 871 q 621 665 585 764 q 657 428 657 565 q 621 187 657 286 q 516 36 585 88 q 347 -15 447 -15 m 347 69 q 460 111 414 69 q 532 233 507 153 q 557 428 557 313 q 532 617 557 538 q 460 742 507 697 q 347 786 414 786 q 235 742 282 786 q 163 617 188 697 q 138 428 138 538 q 163 233 138 313 q 235 111 188 153 q 347 69 282 69 m 174 910 l 128 963 l 326 1099 l 357 1099 l 567 961 l 525 911 l 344 1008 l 174 910 z "},"Ồ":{"ha":694,"x_min":38,"x_max":657,"o":"m 347 -15 q 179 36 249 -15 q 74 187 110 88 q 38 428 38 286 q 74 665 38 565 q 179 817 110 764 q 347 871 249 871 q 516 817 447 871 q 621 665 585 764 q 657 428 657 565 q 621 187 657 286 q 516 36 585 88 q 347 -15 447 -15 m 347 69 q 460 111 414 69 q 532 233 507 153 q 557 428 557 313 q 532 617 557 538 q 460 742 507 697 q 347 786 414 786 q 235 742 282 786 q 163 617 188 697 q 138 428 138 538 q 163 233 138 313 q 235 111 188 153 q 347 69 282 69 z "},"Ổ":{"ha":694,"x_min":38,"x_max":657,"o":"m 347 -15 q 179 36 249 -15 q 74 187 110 88 q 38 428 38 286 q 74 665 38 565 q 179 817 110 764 q 347 871 249 871 q 516 817 447 871 q 621 665 585 764 q 657 428 657 565 q 621 187 657 286 q 516 36 585 88 q 347 -15 447 -15 m 347 69 q 460 111 414 69 q 532 233 507 153 q 557 428 557 313 q 532 617 557 538 q 460 742 507 697 q 347 786 414 786 q 235 742 282 786 q 163 617 188 697 q 138 428 138 538 q 163 233 138 313 q 235 111 188 153 q 347 69 282 69 z "},"Ỗ":{"ha":694,"x_min":38,"x_max":657,"o":"m 347 -15 q 179 36 249 -15 q 74 187 110 88 q 38 428 38 286 q 74 665 38 565 q 179 817 110 764 q 347 871 249 871 q 516 817 447 871 q 621 665 585 764 q 657 428 657 565 q 621 187 657 286 q 516 36 585 88 q 347 -15 447 -15 m 347 69 q 460 111 414 69 q 532 233 507 153 q 557 428 557 313 q 532 617 557 538 q 460 742 507 697 q 347 786 414 786 q 235 742 282 786 q 163 617 188 697 q 138 428 138 538 q 163 233 138 313 q 235 111 188 153 q 347 69 282 69 z "},"Ȍ":{"ha":694,"x_min":38,"x_max":657,"o":"m 347 -15 q 179 36 249 -15 q 74 187 110 88 q 38 428 38 286 q 74 665 38 565 q 179 817 110 764 q 347 871 249 871 q 516 817 447 871 q 621 665 585 764 q 657 428 657 565 q 621 187 657 286 q 516 36 585 88 q 347 -15 447 -15 m 347 69 q 460 111 414 69 q 532 233 507 153 q 557 428 557 313 q 532 617 557 538 q 460 742 507 697 q 347 786 414 786 q 235 742 282 786 q 163 617 188 697 q 138 428 138 538 q 163 233 138 313 q 235 111 188 153 q 347 69 282 69 z "},"Ö":{"ha":694,"x_min":38,"x_max":657,"o":"m 347 -15 q 179 36 249 -15 q 74 187 110 88 q 38 428 38 286 q 74 665 38 565 q 179 817 110 764 q 347 871 249 871 q 516 817 447 871 q 621 665 585 764 q 657 428 657 565 q 621 187 657 286 q 516 36 585 88 q 347 -15 447 -15 m 347 69 q 460 111 414 69 q 532 233 507 153 q 557 428 557 313 q 532 617 557 538 q 460 742 507 697 q 347 786 414 786 q 235 742 282 786 q 163 617 188 697 q 138 428 138 538 q 163 233 138 313 q 235 111 188 153 q 347 69 282 69 z "},"Ȫ":{"ha":694,"x_min":38,"x_max":657,"o":"m 347 -15 q 179 36 249 -15 q 74 187 110 88 q 38 428 38 286 q 74 665 38 565 q 179 817 110 764 q 347 871 249 871 q 516 817 447 871 q 621 665 585 764 q 657 428 657 565 q 621 187 657 286 q 516 36 585 88 q 347 -15 447 -15 m 347 69 q 460 111 414 69 q 532 233 507 153 q 557 428 557 313 q 532 617 557 538 q 460 742 507 697 q 347 786 414 786 q 235 742 282 786 q 163 617 188 697 q 138 428 138 538 q 163 233 138 313 q 235 111 188 153 q 347 69 282 69 z "},"Ȱ":{"ha":694,"x_min":38,"x_max":657,"o":"m 347 -15 q 179 36 249 -15 q 74 187 110 88 q 38 428 38 286 q 74 665 38 565 q 179 817 110 764 q 347 871 249 871 q 516 817 447 871 q 621 665 585 764 q 657 428 657 565 q 621 187 657 286 q 516 36 585 88 q 347 -15 447 -15 m 347 69 q 460 111 414 69 q 532 233 507 153 q 557 428 557 313 q 532 617 557 538 q 460 742 507 697 q 347 786 414 786 q 235 742 282 786 q 163 617 188 697 q 138 428 138 538 q 163 233 138 313 q 235 111 188 153 q 347 69 282 69 z "},"Ọ":{"ha":694,"x_min":38,"x_max":657,"o":"m 347 -15 q 179 36 249 -15 q 74 187 110 88 q 38 428 38 286 q 74 665 38 565 q 179 817 110 764 q 347 871 249 871 q 516 817 447 871 q 621 665 585 764 q 657 428 657 565 q 621 187 657 286 q 516 36 585 88 q 347 -15 447 -15 m 347 69 q 460 111 414 69 q 532 233 507 153 q 557 428 557 313 q 532 617 557 538 q 460 742 507 697 q 347 786 414 786 q 235 742 282 786 q 163 617 188 697 q 138 428 138 538 q 163 233 138 313 q 235 111 188 153 q 347 69 282 69 z "},"Ò":{"ha":694,"x_min":38,"x_max":657,"o":"m 347 -15 q 179 36 249 -15 q 74 187 110 88 q 38 428 38 286 q 74 665 38 565 q 179 817 110 764 q 347 871 249 871 q 516 817 447 871 q 621 665 585 764 q 657 428 657 565 q 621 187 657 286 q 516 36 585 88 q 347 -15 447 -15 m 347 69 q 460 111 414 69 q 532 233 507 153 q 557 428 557 313 q 532 617 557 538 q 460 742 507 697 q 347 786 414 786 q 235 742 282 786 q 163 617 188 697 q 138 428 138 538 q 163 233 138 313 q 235 111 188 153 q 347 69 282 69 z "},"Ỏ":{"ha":694,"x_min":38,"x_max":657,"o":"m 347 -15 q 179 36 249 -15 q 74 187 110 88 q 38 428 38 286 q 74 665 38 565 q 179 817 110 764 q 347 871 249 871 q 516 817 447 871 q 621 665 585 764 q 657 428 657 565 q 621 187 657 286 q 516 36 585 88 q 347 -15 447 -15 m 347 69 q 460 111 414 69 q 532 233 507 153 q 557 428 557 313 q 532 617 557 538 q 460 742 507 697 q 347 786 414 786 q 235 742 282 786 q 163 617 188 697 q 138 428 138 538 q 163 233 138 313 q 235 111 188 153 q 347 69 282 69 m 465 1106 q 453 1060 465 1076 q 426 1033 442 1044 q 399 1008 411 1022 q 388 967 388 993 l 388 957 l 317 957 l 317 996 q 328 1028 317 1014 q 353 1054 339 1042 q 378 1078 367 1067 q 389 1103 389 1090 q 376 1132 389 1122 q 346 1142 364 1142 q 310 1133 328 1142 q 285 1097 293 1125 l 233 1150 q 287 1195 258 1182 q 353 1208 315 1208 q 409 1196 383 1208 q 450 1160 435 1183 q 465 1106 465 1138 z "},"Ơ":{"ha":694,"x_min":38,"x_max":657,"o":"m 347 -15 q 179 36 249 -15 q 74 187 110 88 q 38 428 38 286 q 74 665 38 565 q 179 817 110 764 q 347 871 249 871 q 516 817 447 871 q 621 665 585 764 q 657 428 657 565 q 621 187 657 286 q 516 36 585 88 q 347 -15 447 -15 m 347 69 q 460 111 414 69 q 532 233 507 153 q 557 428 557 313 q 532 617 557 538 q 460 742 507 697 q 347 786 414 786 q 235 742 282 786 q 163 617 188 697 q 138 428 138 538 q 163 233 138 313 q 235 111 188 153 q 347 69 282 69 m 526 743 l 513 811 q 551 821 539 811 q 566 859 563 831 q 569 942 569 888 l 650 942 q 642 826 650 869 q 608 763 633 782 q 526 743 582 743 z "},"Ớ":{"ha":694,"x_min":38,"x_max":657,"o":"m 347 -15 q 179 36 249 -15 q 74 187 110 88 q 38 428 38 286 q 74 665 38 565 q 179 817 110 764 q 347 871 249 871 q 516 817 447 871 q 621 665 585 764 q 657 428 657 565 q 621 187 657 286 q 516 36 585 88 q 347 -15 447 -15 m 347 69 q 460 111 414 69 q 532 233 507 153 q 557 428 557 313 q 532 617 557 538 q 460 742 507 697 q 347 786 414 786 q 235 742 282 786 q 163 617 188 697 q 138 428 138 538 q 163 233 138 313 q 235 111 188 153 q 347 69 282 69 m 526 743 l 513 811 q 551 821 539 811 q 566 859 563 831 q 569 942 569 888 l 650 942 q 642 826 650 869 q 608 763 633 782 q 526 743 582 743 z "},"Ợ":{"ha":694,"x_min":38,"x_max":657,"o":"m 347 -15 q 179 36 249 -15 q 74 187 110 88 q 38 428 38 286 q 74 665 38 565 q 179 817 110 764 q 347 871 249 871 q 516 817 447 871 q 621 665 585 764 q 657 428 657 565 q 621 187 657 286 q 516 36 585 88 q 347 -15 447 -15 m 347 69 q 460 111 414 69 q 532 233 507 153 q 557 428 557 313 q 532 617 557 538 q 460 742 507 697 q 347 786 414 786 q 235 742 282 786 q 163 617 188 697 q 138 428 138 538 q 163 233 138 313 q 235 111 188 153 q 347 69 282 69 m 526 743 l 513 811 q 551 821 539 811 q 566 859 563 831 q 569 942 569 888 l 650 942 q 642 826 650 869 q 608 763 633 782 q 526 743 582 743 z "},"Ờ":{"ha":694,"x_min":38,"x_max":657,"o":"m 347 -15 q 179 36 249 -15 q 74 187 110 88 q 38 428 38 286 q 74 665 38 565 q 179 817 110 764 q 347 871 249 871 q 516 817 447 871 q 621 665 585 764 q 657 428 657 565 q 621 187 657 286 q 516 36 585 88 q 347 -15 447 -15 m 347 69 q 460 111 414 69 q 532 233 507 153 q 557 428 557 313 q 532 617 557 538 q 460 742 507 697 q 347 786 414 786 q 235 742 282 786 q 163 617 188 697 q 138 428 138 538 q 163 233 138 313 q 235 111 188 153 q 347 69 282 69 m 526 743 l 513 811 q 551 821 539 811 q 566 859 563 831 q 569 942 569 888 l 650 942 q 642 826 650 869 q 608 763 633 782 q 526 743 582 743 z "},"Ở":{"ha":694,"x_min":38,"x_max":657,"o":"m 347 -15 q 179 36 249 -15 q 74 187 110 88 q 38 428 38 286 q 74 665 38 565 q 179 817 110 764 q 347 871 249 871 q 516 817 447 871 q 621 665 585 764 q 657 428 657 565 q 621 187 657 286 q 516 36 585 88 q 347 -15 447 -15 m 347 69 q 460 111 414 69 q 532 233 507 153 q 557 428 557 313 q 532 617 557 538 q 460 742 507 697 q 347 786 414 786 q 235 742 282 786 q 163 617 188 697 q 138 428 138 538 q 163 233 138 313 q 235 111 188 153 q 347 69 282 69 m 526 743 l 513 811 q 551 821 539 811 q 566 859 563 831 q 569 942 569 888 l 650 942 q 642 826 650 869 q 608 763 633 782 q 526 743 582 743 m 465 1106 q 453 1060 465 1076 q 426 1033 442 1044 q 399 1008 411 1022 q 388 967 388 993 l 388 957 l 317 957 l 317 996 q 328 1028 317 1014 q 353 1054 339 1042 q 378 1078 367 1067 q 389 1103 389 1090 q 376 1132 389 1122 q 346 1142 364 1142 q 310 1133 328 1142 q 285 1097 293 1125 l 233 1150 q 287 1195 258 1182 q 353 1208 315 1208 q 409 1196 383 1208 q 450 1160 435 1183 q 465 1106 465 1138 z "},"Ỡ":{"ha":694,"x_min":38,"x_max":657,"o":"m 347 -15 q 179 36 249 -15 q 74 187 110 88 q 38 428 38 286 q 74 665 38 565 q 179 817 110 764 q 347 871 249 871 q 516 817 447 871 q 621 665 585 764 q 657 428 657 565 q 621 187 657 286 q 516 36 585 88 q 347 -15 447 -15 m 347 69 q 460 111 414 69 q 532 233 507 153 q 557 428 557 313 q 532 617 557 538 q 460 742 507 697 q 347 786 414 786 q 235 742 282 786 q 163 617 188 697 q 138 428 138 538 q 163 233 138 313 q 235 111 188 153 q 347 69 282 69 m 526 743 l 513 811 q 551 821 539 811 q 566 859 563 831 q 569 942 569 888 l 650 942 q 642 826 650 869 q 608 763 633 782 q 526 743 582 743 z "},"Ő":{"ha":694,"x_min":38,"x_max":657,"o":"m 347 -15 q 179 36 249 -15 q 74 187 110 88 q 38 428 38 286 q 74 665 38 565 q 179 817 110 764 q 347 871 249 871 q 516 817 447 871 q 621 665 585 764 q 657 428 657 565 q 621 187 657 286 q 516 36 585 88 q 347 -15 447 -15 m 347 69 q 460 111 414 69 q 532 233 507 153 q 557 428 557 313 q 532 617 557 538 q 460 742 507 697 q 347 786 414 786 q 235 742 282 786 q 163 617 188 697 q 138 428 138 538 q 163 233 138 313 q 235 111 188 153 q 347 69 282 69 z "},"Ȏ":{"ha":694,"x_min":38,"x_max":657,"o":"m 347 -15 q 179 36 249 -15 q 74 187 110 88 q 38 428 38 286 q 74 665 38 565 q 179 817 110 764 q 347 871 249 871 q 516 817 447 871 q 621 665 585 764 q 657 428 657 565 q 621 187 657 286 q 516 36 585 88 q 347 -15 447 -15 m 347 69 q 460 111 414 69 q 532 233 507 153 q 557 428 557 313 q 532 617 557 538 q 460 742 507 697 q 347 786 414 786 q 235 742 282 786 q 163 617 188 697 q 138 428 138 538 q 163 233 138 313 q 235 111 188 153 q 347 69 282 69 m 221 964 l 149 997 q 231 1092 181 1058 q 346 1125 282 1125 q 462 1092 411 1125 q 543 997 513 1058 l 471 964 q 418 1035 449 1013 q 346 1058 388 1058 q 296 1049 318 1058 q 255 1018 274 1039 q 221 964 236 997 z "},"Ō":{"ha":694,"x_min":38,"x_max":657,"o":"m 347 -15 q 179 36 249 -15 q 74 187 110 88 q 38 428 38 286 q 74 665 38 565 q 179 817 110 764 q 347 871 249 871 q 516 817 447 871 q 621 665 585 764 q 657 428 657 565 q 621 187 657 286 q 516 36 585 88 q 347 -15 447 -15 m 347 69 q 460 111 414 69 q 532 233 507 153 q 557 428 557 313 q 532 617 557 538 q 460 742 507 697 q 347 786 414 786 q 235 742 282 786 q 163 617 188 697 q 138 428 138 538 q 163 233 138 313 q 235 111 188 153 q 347 69 282 69 z "},"Ṓ":{"ha":694,"x_min":38,"x_max":657,"o":"m 347 -15 q 179 36 249 -15 q 74 187 110 88 q 38 428 38 286 q 74 665 38 565 q 179 817 110 764 q 347 871 249 871 q 516 817 447 871 q 621 665 585 764 q 657 428 657 565 q 621 187 657 286 q 516 36 585 88 q 347 -15 447 -15 m 347 69 q 460 111 414 69 q 532 233 507 153 q 557 428 557 313 q 532 617 557 538 q 460 742 507 697 q 347 786 414 786 q 235 742 282 786 q 163 617 188 697 q 138 428 138 538 q 163 233 138 313 q 235 111 188 153 q 347 69 282 69 z "},"Ṑ":{"ha":694,"x_min":38,"x_max":657,"o":"m 347 -15 q 179 36 249 -15 q 74 187 110 88 q 38 428 38 286 q 74 665 38 565 q 179 817 110 764 q 347 871 249 871 q 516 817 447 871 q 621 665 585 764 q 657 428 657 565 q 621 187 657 286 q 516 36 585 88 q 347 -15 447 -15 m 347 69 q 460 111 414 69 q 532 233 507 153 q 557 428 557 313 q 532 617 557 538 q 460 742 507 697 q 347 786 414 786 q 235 742 282 786 q 163 617 188 697 q 138 428 138 538 q 163 233 138 313 q 235 111 188 153 q 347 69 282 69 z "},"Ǫ":{"ha":694,"x_min":38,"x_max":657,"o":"m 347 -15 q 179 36 249 -15 q 74 187 110 88 q 38 428 38 286 q 74 665 38 565 q 179 817 110 764 q 347 871 249 871 q 516 817 447 871 q 621 665 585 764 q 657 428 657 565 q 621 187 657 286 q 516 36 585 88 q 347 -15 447 -15 m 347 69 q 460 111 414 69 q 532 233 507 153 q 557 428 557 313 q 532 617 557 538 q 460 742 507 697 q 347 786 414 786 q 235 742 282 786 q 163 617 188 697 q 138 428 138 538 q 163 233 138 313 q 235 111 188 153 q 347 69 282 69 m 440 -235 l 418 -301 q 338 -278 372 -294 q 283 -237 303 -262 q 263 -176 263 -211 q 282 -102 263 -139 q 339 -30 301 -65 q 431 38 376 6 l 468 14 q 408 -44 433 -14 q 368 -103 382 -74 q 354 -157 354 -132 q 375 -207 354 -186 q 440 -235 396 -228 z "},"Ø":{"ha":694,"x_min":38,"x_max":657,"o":"m 118 -58 l 57 -31 l 578 947 l 636 917 l 118 -58 m 347 -15 q 179 36 249 -15 q 74 187 110 88 q 38 428 38 286 q 74 665 38 565 q 179 817 110 764 q 347 871 249 871 q 516 817 447 871 q 621 665 585 764 q 657 428 657 565 q 621 187 657 286 q 516 36 585 88 q 347 -15 447 -15 m 347 69 q 460 111 414 69 q 532 233 507 153 q 557 428 557 313 q 532 617 557 538 q 460 742 507 697 q 347 786 414 786 q 235 742 282 786 q 163 617 188 697 q 138 428 138 538 q 163 233 138 313 q 235 111 188 153 q 347 69 282 69 z "},"Ǿ":{"ha":694,"x_min":38,"x_max":657,"o":"m 118 -58 l 57 -31 l 578 947 l 636 917 l 118 -58 m 347 -15 q 179 36 249 -15 q 74 187 110 88 q 38 428 38 286 q 74 665 38 565 q 179 817 110 764 q 347 871 249 871 q 516 817 447 871 q 621 665 585 764 q 657 428 657 565 q 621 187 657 286 q 516 36 585 88 q 347 -15 447 -15 m 347 69 q 460 111 414 69 q 532 233 507 153 q 557 428 557 313 q 532 617 557 538 q 460 742 507 697 q 347 786 414 786 q 235 742 282 786 q 163 617 188 697 q 138 428 138 538 q 163 233 138 313 q 235 111 188 153 q 347 69 282 69 z "},"Õ":{"ha":694,"x_min":38,"x_max":657,"o":"m 347 -15 q 179 36 249 -15 q 74 187 110 88 q 38 428 38 286 q 74 665 38 565 q 179 817 110 764 q 347 871 249 871 q 516 817 447 871 q 621 665 585 764 q 657 428 657 565 q 621 187 657 286 q 516 36 585 88 q 347 -15 447 -15 m 347 69 q 460 111 414 69 q 532 233 507 153 q 557 428 557 313 q 532 617 557 538 q 460 742 507 697 q 347 786 414 786 q 235 742 282 786 q 163 617 188 697 q 138 428 138 538 q 163 233 138 313 q 235 111 188 153 q 347 69 282 69 z "},"Ṍ":{"ha":694,"x_min":38,"x_max":657,"o":"m 347 -15 q 179 36 249 -15 q 74 187 110 88 q 38 428 38 286 q 74 665 38 565 q 179 817 110 764 q 347 871 249 871 q 516 817 447 871 q 621 665 585 764 q 657 428 657 565 q 621 187 657 286 q 516 36 585 88 q 347 -15 447 -15 m 347 69 q 460 111 414 69 q 532 233 507 153 q 557 428 557 313 q 532 617 557 538 q 460 742 507 697 q 347 786 414 786 q 235 742 282 786 q 163 617 188 697 q 138 428 138 538 q 163 233 138 313 q 235 111 188 153 q 347 69 282 69 z "},"Ṏ":{"ha":694,"x_min":38,"x_max":657,"o":"m 347 -15 q 179 36 249 -15 q 74 187 110 88 q 38 428 38 286 q 74 665 38 565 q 179 817 110 764 q 347 871 249 871 q 516 817 447 871 q 621 665 585 764 q 657 428 657 565 q 621 187 657 286 q 516 36 585 88 q 347 -15 447 -15 m 347 69 q 460 111 414 69 q 532 233 507 153 q 557 428 557 313 q 532 617 557 538 q 460 742 507 697 q 347 786 414 786 q 235 742 282 786 q 163 617 188 697 q 138 428 138 538 q 163 233 138 313 q 235 111 188 153 q 347 69 282 69 z "},"Ȭ":{"ha":694,"x_min":38,"x_max":657,"o":"m 347 -15 q 179 36 249 -15 q 74 187 110 88 q 38 428 38 286 q 74 665 38 565 q 179 817 110 764 q 347 871 249 871 q 516 817 447 871 q 621 665 585 764 q 657 428 657 565 q 621 187 657 286 q 516 36 585 88 q 347 -15 447 -15 m 347 69 q 460 111 414 69 q 532 233 507 153 q 557 428 557 313 q 532 617 557 538 q 460 742 507 697 q 347 786 414 786 q 235 742 282 786 q 163 617 188 697 q 138 428 138 538 q 163 233 138 313 q 235 111 188 153 q 347 69 282 69 m 482 1163 l 546 1132 q 492 1051 519 1074 q 428 1028 464 1028 q 382 1039 403 1028 q 343 1065 361 1050 q 308 1092 325 1081 q 275 1103 292 1103 q 240 1088 257 1103 q 213 1044 224 1074 l 149 1075 q 198 1151 164 1122 q 267 1179 232 1179 q 315 1168 292 1179 q 358 1142 338 1157 q 395 1115 378 1126 q 428 1104 413 1104 q 456 1118 443 1104 q 482 1163 469 1132 z "},"Œ":{"ha":694,"x_min":13,"x_max":672,"o":"m 239 -10 q 145 17 188 -10 q 74 98 103 43 q 28 236 44 153 q 13 433 13 319 q 40 679 13 581 q 117 828 67 778 q 240 878 168 878 q 298 866 269 878 q 351 826 326 854 l 351 867 l 672 867 l 672 781 l 438 781 l 438 496 l 636 496 l 636 407 l 438 407 l 438 86 l 669 86 l 669 0 l 350 0 l 350 43 q 299 3 326 15 q 239 -10 271 -10 m 249 75 q 313 104 285 75 q 350 179 340 133 l 350 674 q 307 759 333 721 q 238 797 281 797 q 186 780 211 797 q 142 722 161 763 q 113 610 124 681 q 101 435 101 540 q 119 240 101 321 q 169 117 136 160 q 249 75 201 75 z "},"P":{"ha":694,"x_min":82,"x_max":633,"o":"m 82 0 l 82 865 l 360 865 q 517 832 457 865 q 605 744 576 799 q 633 621 633 689 q 618 528 633 571 q 570 451 603 485 q 488 400 538 418 q 367 382 438 382 l 182 382 l 182 0 l 82 0 m 182 468 l 356 468 q 458 487 419 468 q 515 540 497 506 q 533 618 533 574 q 515 696 533 661 q 458 752 497 731 q 357 774 419 774 l 182 774 l 182 468 z "},"Þ":{"ha":694,"x_min":82,"x_max":633,"o":"m 82 0 l 82 865 l 190 865 q 192 863 192 864 q 193 861 193 863 q 188 848 193 857 q 179 826 182 839 l 179 703 l 360 703 q 517 669 457 703 q 605 581 576 636 q 633 458 633 525 q 606 338 633 392 q 519 251 578 283 q 367 219 461 219 l 179 219 l 179 0 l 82 0 m 179 304 l 367 304 q 463 324 426 304 q 517 379 500 344 q 533 456 533 414 q 515 533 533 499 q 458 590 497 568 q 357 611 419 611 l 179 611 l 179 304 z "},"Q":{"ha":694,"x_min":40,"x_max":657,"o":"m 557 -201 q 442 -195 489 -204 q 367 -162 396 -186 q 326 -101 339 -139 q 314 -10 314 -64 q 182 50 244 0 q 80 194 119 100 q 40 428 40 289 q 69 644 40 557 q 146 781 99 731 q 247 853 193 832 q 349 875 300 875 q 463 849 407 875 q 563 770 519 824 q 632 633 607 717 q 654 432 657 549 q 638 260 654 336 q 590 129 622 185 q 509 39 557 74 q 399 -10 461 4 q 410 -64 401 -40 q 441 -101 419 -87 q 501 -114 463 -114 l 614 -107 l 611 -201 l 557 -201 m 356 76 q 428 94 392 76 q 494 151 464 111 q 542 253 524 190 q 561 408 561 317 q 541 599 561 525 q 488 715 521 674 q 419 774 456 757 q 349 790 382 790 q 254 762 294 790 q 188 685 214 733 q 148 576 161 638 q 135 449 135 515 q 161 255 135 339 q 237 124 188 171 q 356 76 286 76 z "},"R":{"ha":694,"x_min":78,"x_max":644,"o":"m 78 0 l 78 865 l 333 865 q 499 835 436 865 q 592 749 563 804 q 621 618 621 693 q 599 521 621 569 q 538 436 578 472 q 444 386 499 400 l 644 0 l 536 0 l 344 382 l 176 382 l 176 0 l 78 0 m 176 468 l 344 468 q 479 509 438 468 q 521 618 521 550 q 503 697 521 661 q 446 753 485 732 q 344 774 407 774 l 176 774 l 176 468 z "},"Ŕ":{"ha":694,"x_min":78,"x_max":644,"o":"m 78 0 l 78 865 l 333 865 q 499 835 436 865 q 592 749 563 804 q 621 618 621 693 q 599 521 621 569 q 538 436 578 472 q 444 386 499 400 l 644 0 l 536 0 l 344 382 l 176 382 l 176 0 l 78 0 m 176 468 l 344 468 q 479 509 438 468 q 521 618 521 550 q 503 697 521 661 q 446 753 485 732 q 344 774 407 774 l 176 774 l 176 468 z "},"Ř":{"ha":694,"x_min":78,"x_max":644,"o":"m 78 0 l 78 865 l 333 865 q 499 835 436 865 q 592 749 563 804 q 621 618 621 693 q 599 521 621 569 q 538 436 578 472 q 444 386 499 400 l 644 0 l 536 0 l 344 382 l 176 382 l 176 0 l 78 0 m 176 468 l 344 468 q 479 509 438 468 q 521 618 521 550 q 503 697 521 661 q 446 753 485 732 q 344 774 407 774 l 176 774 l 176 468 z "},"Ŗ":{"ha":694,"x_min":78,"x_max":644,"o":"m 78 0 l 78 865 l 333 865 q 499 835 436 865 q 592 749 563 804 q 621 618 621 693 q 599 521 621 569 q 538 436 578 472 q 444 386 499 400 l 644 0 l 536 0 l 344 382 l 176 382 l 176 0 l 78 0 m 176 468 l 344 468 q 479 509 438 468 q 521 618 521 550 q 503 697 521 661 q 446 753 485 732 q 344 774 407 774 l 176 774 l 176 468 m 307 -382 l 265 -344 q 322 -275 299 -312 q 346 -214 346 -237 q 330 -183 346 -197 q 298 -155 314 -169 q 282 -117 282 -140 q 303 -65 282 -86 q 356 -43 324 -43 q 415 -72 389 -43 q 440 -147 440 -101 q 426 -217 440 -181 q 381 -295 411 -254 q 307 -382 351 -336 z "},"Ȑ":{"ha":694,"x_min":78,"x_max":644,"o":"m 78 0 l 78 865 l 333 865 q 499 835 436 865 q 592 749 563 804 q 621 618 621 693 q 599 521 621 569 q 538 436 578 472 q 444 386 499 400 l 644 0 l 536 0 l 344 382 l 176 382 l 176 0 l 78 0 m 176 468 l 344 468 q 479 509 438 468 q 521 618 521 550 q 503 697 521 661 q 446 753 485 732 q 344 774 407 774 l 176 774 l 176 468 z "},"Ṛ":{"ha":694,"x_min":78,"x_max":644,"o":"m 78 0 l 78 865 l 333 865 q 499 835 436 865 q 592 749 563 804 q 621 618 621 693 q 599 521 621 569 q 538 436 578 472 q 444 386 499 400 l 644 0 l 536 0 l 344 382 l 176 382 l 176 0 l 78 0 m 176 468 l 344 468 q 479 509 438 468 q 521 618 521 550 q 503 697 521 661 q 446 753 485 732 q 344 774 407 774 l 176 774 l 176 468 z "},"Ȓ":{"ha":694,"x_min":78,"x_max":644,"o":"m 78 0 l 78 865 l 333 865 q 499 835 436 865 q 592 749 563 804 q 621 618 621 693 q 599 521 621 569 q 538 436 578 472 q 444 386 499 400 l 644 0 l 536 0 l 344 382 l 176 382 l 176 0 l 78 0 m 176 468 l 344 468 q 479 509 438 468 q 521 618 521 550 q 503 697 521 661 q 446 753 485 732 q 344 774 407 774 l 176 774 l 176 468 m 221 964 l 149 997 q 231 1092 181 1058 q 346 1125 282 1125 q 462 1092 411 1125 q 543 997 513 1058 l 471 964 q 418 1035 449 1013 q 346 1058 388 1058 q 296 1049 318 1058 q 255 1018 274 1039 q 221 964 236 997 z "},"Ṟ":{"ha":694,"x_min":78,"x_max":644,"o":"m 78 0 l 78 865 l 333 865 q 499 835 436 865 q 592 749 563 804 q 621 618 621 693 q 599 521 621 569 q 538 436 578 472 q 444 386 499 400 l 644 0 l 536 0 l 344 382 l 176 382 l 176 0 l 78 0 m 176 468 l 344 468 q 479 509 438 468 q 521 618 521 550 q 503 697 521 661 q 446 753 485 732 q 344 774 407 774 l 176 774 l 176 468 z "},"S":{"ha":694,"x_min":72,"x_max":632,"o":"m 343 -14 q 191 14 258 -14 q 72 96 124 42 l 122 183 l 128 196 l 138 190 q 144 169 140 181 q 164 140 149 157 q 248 92 200 110 q 357 74 296 74 q 428 85 396 74 q 485 117 461 97 q 523 165 510 138 q 536 222 536 192 q 531 265 536 246 q 513 301 526 285 q 478 333 500 317 q 421 367 456 349 q 338 406 386 385 q 195 481 247 440 q 122 568 143 522 q 100 663 100 614 q 132 774 100 726 q 223 849 164 822 q 364 876 282 876 q 455 863 411 876 q 537 826 499 850 q 604 768 575 803 l 550 696 l 542 685 l 533 690 q 528 713 532 701 q 508 740 524 724 q 438 784 475 772 q 349 796 400 796 q 287 786 314 796 q 240 758 260 776 q 210 717 221 740 q 200 669 200 694 q 206 626 200 646 q 225 589 211 607 q 263 553 239 571 q 324 517 288 535 q 414 478 361 499 q 520 426 478 451 q 587 372 563 400 q 622 310 611 343 q 632 236 632 276 q 602 119 632 176 q 508 24 572 61 q 343 -14 444 -14 l 343 -14 z "},"Ś":{"ha":694,"x_min":72,"x_max":632,"o":"m 343 -14 q 191 14 258 -14 q 72 96 124 42 l 122 183 l 128 196 l 138 190 q 144 169 140 181 q 164 140 149 157 q 248 92 200 110 q 357 74 296 74 q 428 85 396 74 q 485 117 461 97 q 523 165 510 138 q 536 222 536 192 q 531 265 536 246 q 513 301 526 285 q 478 333 500 317 q 421 367 456 349 q 338 406 386 385 q 195 481 247 440 q 122 568 143 522 q 100 663 100 614 q 132 774 100 726 q 223 849 164 822 q 364 876 282 876 q 455 863 411 876 q 537 826 499 850 q 604 768 575 803 l 550 696 l 542 685 l 533 690 q 528 713 532 701 q 508 740 524 724 q 438 784 475 772 q 349 796 400 796 q 287 786 314 796 q 240 758 260 776 q 210 717 221 740 q 200 669 200 694 q 206 626 200 646 q 225 589 211 607 q 263 553 239 571 q 324 517 288 535 q 414 478 361 499 q 520 426 478 451 q 587 372 563 400 q 622 310 611 343 q 632 236 632 276 q 602 119 632 176 q 508 24 572 61 q 343 -14 444 -14 l 343 -14 z "},"Ṥ":{"ha":694,"x_min":72,"x_max":632,"o":"m 343 -14 q 191 14 258 -14 q 72 96 124 42 l 122 183 l 128 196 l 138 190 q 144 169 140 181 q 164 140 149 157 q 248 92 200 110 q 357 74 296 74 q 428 85 396 74 q 485 117 461 97 q 523 165 510 138 q 536 222 536 192 q 531 265 536 246 q 513 301 526 285 q 478 333 500 317 q 421 367 456 349 q 338 406 386 385 q 195 481 247 440 q 122 568 143 522 q 100 663 100 614 q 132 774 100 726 q 223 849 164 822 q 364 876 282 876 q 455 863 411 876 q 537 826 499 850 q 604 768 575 803 l 550 696 l 542 685 l 533 690 q 528 713 532 701 q 508 740 524 724 q 438 784 475 772 q 349 796 400 796 q 287 786 314 796 q 240 758 260 776 q 210 717 221 740 q 200 669 200 694 q 206 626 200 646 q 225 589 211 607 q 263 553 239 571 q 324 517 288 535 q 414 478 361 499 q 520 426 478 451 q 587 372 563 400 q 622 310 611 343 q 632 236 632 276 q 602 119 632 176 q 508 24 572 61 q 343 -14 444 -14 l 343 -14 z "},"Š":{"ha":694,"x_min":72,"x_max":632,"o":"m 343 -14 q 191 14 258 -14 q 72 96 124 42 l 122 183 l 128 196 l 138 190 q 144 169 140 181 q 164 140 149 157 q 248 92 200 110 q 357 74 296 74 q 428 85 396 74 q 485 117 461 97 q 523 165 510 138 q 536 222 536 192 q 531 265 536 246 q 513 301 526 285 q 478 333 500 317 q 421 367 456 349 q 338 406 386 385 q 195 481 247 440 q 122 568 143 522 q 100 663 100 614 q 132 774 100 726 q 223 849 164 822 q 364 876 282 876 q 455 863 411 876 q 537 826 499 850 q 604 768 575 803 l 550 696 l 542 685 l 533 690 q 528 713 532 701 q 508 740 524 724 q 438 784 475 772 q 349 796 400 796 q 287 786 314 796 q 240 758 260 776 q 210 717 221 740 q 200 669 200 694 q 206 626 200 646 q 225 589 211 607 q 263 553 239 571 q 324 517 288 535 q 414 478 361 499 q 520 426 478 451 q 587 372 563 400 q 622 310 611 343 q 632 236 632 276 q 602 119 632 176 q 508 24 572 61 q 343 -14 444 -14 l 343 -14 z "},"Ṧ":{"ha":694,"x_min":72,"x_max":632,"o":"m 343 -14 q 191 14 258 -14 q 72 96 124 42 l 122 183 l 128 196 l 138 190 q 144 169 140 181 q 164 140 149 157 q 248 92 200 110 q 357 74 296 74 q 428 85 396 74 q 485 117 461 97 q 523 165 510 138 q 536 222 536 192 q 531 265 536 246 q 513 301 526 285 q 478 333 500 317 q 421 367 456 349 q 338 406 386 385 q 195 481 247 440 q 122 568 143 522 q 100 663 100 614 q 132 774 100 726 q 223 849 164 822 q 364 876 282 876 q 455 863 411 876 q 537 826 499 850 q 604 768 575 803 l 550 696 l 542 685 l 533 690 q 528 713 532 701 q 508 740 524 724 q 438 784 475 772 q 349 796 400 796 q 287 786 314 796 q 240 758 260 776 q 210 717 221 740 q 200 669 200 694 q 206 626 200 646 q 225 589 211 607 q 263 553 239 571 q 324 517 288 535 q 414 478 361 499 q 520 426 478 451 q 587 372 563 400 q 622 310 611 343 q 632 236 632 276 q 602 119 632 176 q 508 24 572 61 q 343 -14 444 -14 l 343 -14 z "},"Ş":{"ha":694,"x_min":72,"x_max":632,"o":"m 343 -14 q 191 14 258 -14 q 72 96 124 42 l 122 183 l 128 196 l 138 190 q 144 169 140 181 q 164 140 149 157 q 248 92 200 110 q 357 74 296 74 q 428 85 396 74 q 485 117 461 97 q 523 165 510 138 q 536 222 536 192 q 531 265 536 246 q 513 301 526 285 q 478 333 500 317 q 421 367 456 349 q 338 406 386 385 q 195 481 247 440 q 122 568 143 522 q 100 663 100 614 q 132 774 100 726 q 223 849 164 822 q 364 876 282 876 q 455 863 411 876 q 537 826 499 850 q 604 768 575 803 l 550 696 l 542 685 l 533 690 q 528 713 532 701 q 508 740 524 724 q 438 784 475 772 q 349 796 400 796 q 287 786 314 796 q 240 758 260 776 q 210 717 221 740 q 200 669 200 694 q 206 626 200 646 q 225 589 211 607 q 263 553 239 571 q 324 517 288 535 q 414 478 361 499 q 520 426 478 451 q 587 372 563 400 q 622 310 611 343 q 632 236 632 276 q 602 119 632 176 q 508 24 572 61 q 343 -14 444 -14 l 343 -14 z "},"Ŝ":{"ha":694,"x_min":72,"x_max":632,"o":"m 343 -14 q 191 14 258 -14 q 72 96 124 42 l 122 183 l 128 196 l 138 190 q 144 169 140 181 q 164 140 149 157 q 248 92 200 110 q 357 74 296 74 q 428 85 396 74 q 485 117 461 97 q 523 165 510 138 q 536 222 536 192 q 531 265 536 246 q 513 301 526 285 q 478 333 500 317 q 421 367 456 349 q 338 406 386 385 q 195 481 247 440 q 122 568 143 522 q 100 663 100 614 q 132 774 100 726 q 223 849 164 822 q 364 876 282 876 q 455 863 411 876 q 537 826 499 850 q 604 768 575 803 l 550 696 l 542 685 l 533 690 q 528 713 532 701 q 508 740 524 724 q 438 784 475 772 q 349 796 400 796 q 287 786 314 796 q 240 758 260 776 q 210 717 221 740 q 200 669 200 694 q 206 626 200 646 q 225 589 211 607 q 263 553 239 571 q 324 517 288 535 q 414 478 361 499 q 520 426 478 451 q 587 372 563 400 q 622 310 611 343 q 632 236 632 276 q 602 119 632 176 q 508 24 572 61 q 343 -14 444 -14 l 343 -14 m 189 910 l 143 963 l 342 1099 l 372 1099 l 582 961 l 540 911 l 360 1008 l 189 910 z "},"Ș":{"ha":694,"x_min":72,"x_max":632,"o":"m 343 -14 q 191 14 258 -14 q 72 96 124 42 l 122 183 l 128 196 l 138 190 q 144 169 140 181 q 164 140 149 157 q 248 92 200 110 q 357 74 296 74 q 428 85 396 74 q 485 117 461 97 q 523 165 510 138 q 536 222 536 192 q 531 265 536 246 q 513 301 526 285 q 478 333 500 317 q 421 367 456 349 q 338 406 386 385 q 195 481 247 440 q 122 568 143 522 q 100 663 100 614 q 132 774 100 726 q 223 849 164 822 q 364 876 282 876 q 455 863 411 876 q 537 826 499 850 q 604 768 575 803 l 550 696 l 542 685 l 533 690 q 528 713 532 701 q 508 740 524 724 q 438 784 475 772 q 349 796 400 796 q 287 786 314 796 q 240 758 260 776 q 210 717 221 740 q 200 669 200 694 q 206 626 200 646 q 225 589 211 607 q 263 553 239 571 q 324 517 288 535 q 414 478 361 499 q 520 426 478 451 q 587 372 563 400 q 622 310 611 343 q 632 236 632 276 q 602 119 632 176 q 508 24 572 61 q 343 -14 444 -14 l 343 -14 m 303 -382 l 261 -344 q 318 -275 294 -312 q 342 -214 342 -237 q 326 -183 342 -197 q 294 -155 310 -169 q 278 -117 278 -140 q 299 -65 278 -86 q 351 -43 319 -43 q 410 -72 385 -43 q 436 -147 436 -101 q 422 -217 436 -181 q 377 -295 407 -254 q 303 -382 347 -336 z "},"Ṡ":{"ha":694,"x_min":72,"x_max":632,"o":"m 343 -14 q 191 14 258 -14 q 72 96 124 42 l 122 183 l 128 196 l 138 190 q 144 169 140 181 q 164 140 149 157 q 248 92 200 110 q 357 74 296 74 q 428 85 396 74 q 485 117 461 97 q 523 165 510 138 q 536 222 536 192 q 531 265 536 246 q 513 301 526 285 q 478 333 500 317 q 421 367 456 349 q 338 406 386 385 q 195 481 247 440 q 122 568 143 522 q 100 663 100 614 q 132 774 100 726 q 223 849 164 822 q 364 876 282 876 q 455 863 411 876 q 537 826 499 850 q 604 768 575 803 l 550 696 l 542 685 l 533 690 q 528 713 532 701 q 508 740 524 724 q 438 784 475 772 q 349 796 400 796 q 287 786 314 796 q 240 758 260 776 q 210 717 221 740 q 200 669 200 694 q 206 626 200 646 q 225 589 211 607 q 263 553 239 571 q 324 517 288 535 q 414 478 361 499 q 520 426 478 451 q 587 372 563 400 q 622 310 611 343 q 632 236 632 276 q 602 119 632 176 q 508 24 572 61 q 343 -14 444 -14 l 343 -14 z "},"Ṣ":{"ha":694,"x_min":72,"x_max":632,"o":"m 343 -14 q 191 14 258 -14 q 72 96 124 42 l 122 183 l 128 196 l 138 190 q 144 169 140 181 q 164 140 149 157 q 248 92 200 110 q 357 74 296 74 q 428 85 396 74 q 485 117 461 97 q 523 165 510 138 q 536 222 536 192 q 531 265 536 246 q 513 301 526 285 q 478 333 500 317 q 421 367 456 349 q 338 406 386 385 q 195 481 247 440 q 122 568 143 522 q 100 663 100 614 q 132 774 100 726 q 223 849 164 822 q 364 876 282 876 q 455 863 411 876 q 537 826 499 850 q 604 768 575 803 l 550 696 l 542 685 l 533 690 q 528 713 532 701 q 508 740 524 724 q 438 784 475 772 q 349 796 400 796 q 287 786 314 796 q 240 758 260 776 q 210 717 221 740 q 200 669 200 694 q 206 626 200 646 q 225 589 211 607 q 263 553 239 571 q 324 517 288 535 q 414 478 361 499 q 520 426 478 451 q 587 372 563 400 q 622 310 611 343 q 632 236 632 276 q 602 119 632 176 q 508 24 572 61 q 343 -14 444 -14 l 343 -14 z "},"Ṩ":{"ha":694,"x_min":72,"x_max":632,"o":"m 343 -14 q 191 14 258 -14 q 72 96 124 42 l 122 183 l 128 196 l 138 190 q 144 169 140 181 q 164 140 149 157 q 248 92 200 110 q 357 74 296 74 q 428 85 396 74 q 485 117 461 97 q 523 165 510 138 q 536 222 536 192 q 531 265 536 246 q 513 301 526 285 q 478 333 500 317 q 421 367 456 349 q 338 406 386 385 q 195 481 247 440 q 122 568 143 522 q 100 663 100 614 q 132 774 100 726 q 223 849 164 822 q 364 876 282 876 q 455 863 411 876 q 537 826 499 850 q 604 768 575 803 l 550 696 l 542 685 l 533 690 q 528 713 532 701 q 508 740 524 724 q 438 784 475 772 q 349 796 400 796 q 287 786 314 796 q 240 758 260 776 q 210 717 221 740 q 200 669 200 694 q 206 626 200 646 q 225 589 211 607 q 263 553 239 571 q 324 517 288 535 q 414 478 361 499 q 520 426 478 451 q 587 372 563 400 q 622 310 611 343 q 632 236 632 276 q 602 119 632 176 q 508 24 572 61 q 343 -14 444 -14 l 343 -14 z "},"ẞ":{"ha":694,"x_min":76,"x_max":644,"o":"m 393 -14 q 314 -3 350 -14 q 246 29 278 7 l 276 107 q 312 88 293 96 q 349 77 331 81 q 383 74 367 74 q 449 86 418 74 q 503 123 479 99 q 540 183 526 147 q 553 264 553 218 q 536 349 553 307 q 474 420 519 392 q 339 449 428 449 l 297 449 l 297 528 l 489 696 q 475 771 489 736 q 429 827 461 806 q 343 849 397 849 q 281 839 311 849 q 225 807 250 829 q 185 749 200 785 q 171 660 171 713 l 171 0 l 76 0 l 76 642 q 99 778 76 722 q 160 867 122 833 q 246 915 199 900 q 342 929 293 929 q 477 895 424 929 q 557 806 531 861 q 583 685 583 750 l 346 483 l 333 528 q 500 498 431 528 q 607 407 569 468 q 644 251 644 346 q 624 131 644 181 q 569 49 604 81 q 489 1 535 17 q 393 -14 443 -14 z "},"Ə":{"ha":694,"x_min":38,"x_max":657,"o":"m 347 -15 q 179 36 249 -15 q 74 187 110 88 q 38 428 38 286 q 74 665 38 565 q 179 817 110 764 q 347 871 249 871 q 516 817 447 871 q 621 665 585 764 q 657 428 657 565 q 621 187 657 286 q 516 36 585 88 q 347 -15 447 -15 m 347 69 q 460 111 414 69 q 532 233 507 153 q 557 428 557 313 q 532 617 557 538 q 460 742 507 697 q 347 786 414 786 q 235 742 282 786 q 163 617 188 697 q 138 428 138 538 q 163 233 138 313 q 235 111 188 153 q 347 69 282 69 z "},"T":{"ha":694,"x_min":43,"x_max":643,"o":"m 289 0 l 289 779 l 43 779 l 43 867 l 643 867 l 643 779 l 388 779 l 388 0 l 289 0 z "},"Ŧ":{"ha":694,"x_min":43,"x_max":643,"o":"m 289 0 l 289 779 l 43 779 l 43 867 l 643 867 l 643 779 l 388 779 l 388 0 l 289 0 m 122 393 l 122 472 l 572 472 l 572 393 l 122 393 z "},"Ť":{"ha":694,"x_min":43,"x_max":643,"o":"m 289 0 l 289 779 l 43 779 l 43 867 l 643 867 l 643 779 l 388 779 l 388 0 l 289 0 z "},"Ţ":{"ha":694,"x_min":43,"x_max":643,"o":"m 289 0 l 289 779 l 43 779 l 43 867 l 643 867 l 643 779 l 388 779 l 388 0 l 289 0 z "},"Ț":{"ha":694,"x_min":43,"x_max":643,"o":"m 289 0 l 289 779 l 43 779 l 43 867 l 643 867 l 643 779 l 388 779 l 388 0 l 289 0 m 307 -382 l 265 -344 q 322 -275 299 -312 q 346 -214 346 -237 q 330 -183 346 -197 q 298 -155 314 -169 q 282 -117 282 -140 q 303 -65 282 -86 q 356 -43 324 -43 q 415 -72 389 -43 q 440 -147 440 -101 q 426 -217 440 -181 q 381 -295 411 -254 q 307 -382 351 -336 z "},"Ṭ":{"ha":694,"x_min":43,"x_max":643,"o":"m 289 0 l 289 779 l 43 779 l 43 867 l 643 867 l 643 779 l 388 779 l 388 0 l 289 0 z "},"Ṯ":{"ha":694,"x_min":43,"x_max":643,"o":"m 289 0 l 289 779 l 43 779 l 43 867 l 643 867 l 643 779 l 388 779 l 388 0 l 289 0 z "},"U":{"ha":694,"x_min":69,"x_max":631,"o":"m 349 -15 q 140 67 210 -15 q 69 299 69 150 l 69 865 l 164 865 l 178 865 l 178 856 q 167 838 169 847 q 165 804 165 828 l 165 297 q 206 129 165 192 q 350 67 247 67 q 496 129 454 67 q 538 301 538 192 l 538 865 l 631 865 l 631 303 q 596 123 631 193 q 498 19 561 53 q 349 -15 435 -15 l 349 -15 z "},"Ú":{"ha":694,"x_min":69,"x_max":631,"o":"m 349 -15 q 140 67 210 -15 q 69 299 69 150 l 69 865 l 164 865 l 178 865 l 178 856 q 167 838 169 847 q 165 804 165 828 l 165 297 q 206 129 165 192 q 350 67 247 67 q 496 129 454 67 q 538 301 538 192 l 538 865 l 631 865 l 631 303 q 596 123 631 193 q 498 19 561 53 q 349 -15 435 -15 l 349 -15 z "},"Ŭ":{"ha":694,"x_min":69,"x_max":631,"o":"m 349 -15 q 140 67 210 -15 q 69 299 69 150 l 69 865 l 164 865 l 178 865 l 178 856 q 167 838 169 847 q 165 804 165 828 l 165 297 q 206 129 165 192 q 350 67 247 67 q 496 129 454 67 q 538 301 538 192 l 538 865 l 631 865 l 631 303 q 596 123 631 193 q 498 19 561 53 q 349 -15 435 -15 l 349 -15 z "},"Û":{"ha":694,"x_min":69,"x_max":631,"o":"m 349 -15 q 140 67 210 -15 q 69 299 69 150 l 69 865 l 164 865 l 178 865 l 178 856 q 167 838 169 847 q 165 804 165 828 l 165 297 q 206 129 165 192 q 350 67 247 67 q 496 129 454 67 q 538 301 538 192 l 538 865 l 631 865 l 631 303 q 596 123 631 193 q 498 19 561 53 q 349 -15 435 -15 l 349 -15 m 174 910 l 128 963 l 326 1099 l 357 1099 l 567 961 l 525 911 l 344 1008 l 174 910 z "},"Ȕ":{"ha":694,"x_min":69,"x_max":631,"o":"m 349 -15 q 140 67 210 -15 q 69 299 69 150 l 69 865 l 164 865 l 178 865 l 178 856 q 167 838 169 847 q 165 804 165 828 l 165 297 q 206 129 165 192 q 350 67 247 67 q 496 129 454 67 q 538 301 538 192 l 538 865 l 631 865 l 631 303 q 596 123 631 193 q 498 19 561 53 q 349 -15 435 -15 l 349 -15 z "},"Ü":{"ha":694,"x_min":69,"x_max":631,"o":"m 349 -15 q 140 67 210 -15 q 69 299 69 150 l 69 865 l 164 865 l 178 865 l 178 856 q 167 838 169 847 q 165 804 165 828 l 165 297 q 206 129 165 192 q 350 67 247 67 q 496 129 454 67 q 538 301 538 192 l 538 865 l 631 865 l 631 303 q 596 123 631 193 q 498 19 561 53 q 349 -15 435 -15 l 349 -15 z "},"Ụ":{"ha":694,"x_min":69,"x_max":631,"o":"m 349 -15 q 140 67 210 -15 q 69 299 69 150 l 69 865 l 164 865 l 178 865 l 178 856 q 167 838 169 847 q 165 804 165 828 l 165 297 q 206 129 165 192 q 350 67 247 67 q 496 129 454 67 q 538 301 538 192 l 538 865 l 631 865 l 631 303 q 596 123 631 193 q 498 19 561 53 q 349 -15 435 -15 l 349 -15 z "},"Ù":{"ha":694,"x_min":69,"x_max":631,"o":"m 349 -15 q 140 67 210 -15 q 69 299 69 150 l 69 865 l 164 865 l 178 865 l 178 856 q 167 838 169 847 q 165 804 165 828 l 165 297 q 206 129 165 192 q 350 67 247 67 q 496 129 454 67 q 538 301 538 192 l 538 865 l 631 865 l 631 303 q 596 123 631 193 q 498 19 561 53 q 349 -15 435 -15 l 349 -15 z "},"Ủ":{"ha":694,"x_min":69,"x_max":631,"o":"m 349 -15 q 140 67 210 -15 q 69 299 69 150 l 69 865 l 164 865 l 178 865 l 178 856 q 167 838 169 847 q 165 804 165 828 l 165 297 q 206 129 165 192 q 350 67 247 67 q 496 129 454 67 q 538 301 538 192 l 538 865 l 631 865 l 631 303 q 596 123 631 193 q 498 19 561 53 q 349 -15 435 -15 l 349 -15 m 465 1106 q 453 1060 465 1076 q 426 1033 442 1044 q 399 1008 411 1022 q 388 967 388 993 l 388 957 l 317 957 l 317 996 q 328 1028 317 1014 q 353 1054 339 1042 q 378 1078 367 1067 q 389 1103 389 1090 q 376 1132 389 1122 q 346 1142 364 1142 q 310 1133 328 1142 q 285 1097 293 1125 l 233 1150 q 287 1195 258 1182 q 353 1208 315 1208 q 409 1196 383 1208 q 450 1160 435 1183 q 465 1106 465 1138 z "},"Ư":{"ha":694,"x_min":63,"x_max":690,"o":"m 314 -15 q 126 67 189 -15 q 63 299 63 150 l 63 865 l 147 865 l 160 865 l 160 856 q 151 838 153 847 q 149 804 149 828 l 149 297 q 185 129 149 192 q 315 67 222 67 q 447 129 410 67 q 483 301 483 192 l 483 865 l 568 865 l 568 303 q 537 123 568 193 q 449 19 506 53 q 314 -15 392 -15 l 314 -15 m 567 797 l 553 865 q 591 875 579 865 q 606 913 603 885 q 610 996 610 942 l 690 996 q 682 880 690 924 q 648 817 674 836 q 567 797 622 797 z "},"Ứ":{"ha":694,"x_min":63,"x_max":690,"o":"m 314 -15 q 126 67 189 -15 q 63 299 63 150 l 63 865 l 147 865 l 160 865 l 160 856 q 151 838 153 847 q 149 804 149 828 l 149 297 q 185 129 149 192 q 315 67 222 67 q 447 129 410 67 q 483 301 483 192 l 483 865 l 568 865 l 568 303 q 537 123 568 193 q 449 19 506 53 q 314 -15 392 -15 l 314 -15 m 567 797 l 553 865 q 591 875 579 865 q 606 913 603 885 q 610 996 610 942 l 690 996 q 682 880 690 924 q 648 817 674 836 q 567 797 622 797 z "},"Ự":{"ha":694,"x_min":63,"x_max":690,"o":"m 314 -15 q 126 67 189 -15 q 63 299 63 150 l 63 865 l 147 865 l 160 865 l 160 856 q 151 838 153 847 q 149 804 149 828 l 149 297 q 185 129 149 192 q 315 67 222 67 q 447 129 410 67 q 483 301 483 192 l 483 865 l 568 865 l 568 303 q 537 123 568 193 q 449 19 506 53 q 314 -15 392 -15 l 314 -15 m 567 797 l 553 865 q 591 875 579 865 q 606 913 603 885 q 610 996 610 942 l 690 996 q 682 880 690 924 q 648 817 674 836 q 567 797 622 797 z "},"Ừ":{"ha":694,"x_min":63,"x_max":690,"o":"m 314 -15 q 126 67 189 -15 q 63 299 63 150 l 63 865 l 147 865 l 160 865 l 160 856 q 151 838 153 847 q 149 804 149 828 l 149 297 q 185 129 149 192 q 315 67 222 67 q 447 129 410 67 q 483 301 483 192 l 483 865 l 568 865 l 568 303 q 537 123 568 193 q 449 19 506 53 q 314 -15 392 -15 l 314 -15 m 567 797 l 553 865 q 591 875 579 865 q 606 913 603 885 q 610 996 610 942 l 690 996 q 682 880 690 924 q 648 817 674 836 q 567 797 622 797 z "},"Ử":{"ha":694,"x_min":63,"x_max":690,"o":"m 314 -15 q 126 67 189 -15 q 63 299 63 150 l 63 865 l 147 865 l 160 865 l 160 856 q 151 838 153 847 q 149 804 149 828 l 149 297 q 185 129 149 192 q 315 67 222 67 q 447 129 410 67 q 483 301 483 192 l 483 865 l 568 865 l 568 303 q 537 123 568 193 q 449 19 506 53 q 314 -15 392 -15 l 314 -15 m 567 797 l 553 865 q 591 875 579 865 q 606 913 603 885 q 610 996 610 942 l 690 996 q 682 880 690 924 q 648 817 674 836 q 567 797 622 797 m 428 1106 q 416 1060 428 1076 q 389 1033 404 1044 q 362 1008 374 1022 q 350 967 350 993 l 350 957 l 279 957 l 279 996 q 290 1028 279 1014 q 315 1054 301 1042 q 340 1078 329 1067 q 351 1103 351 1090 q 339 1132 351 1122 q 308 1142 326 1142 q 273 1133 290 1142 q 247 1097 256 1125 l 196 1150 q 249 1195 221 1182 q 315 1208 278 1208 q 372 1196 346 1208 q 413 1160 397 1183 q 428 1106 428 1138 z "},"Ữ":{"ha":694,"x_min":63,"x_max":690,"o":"m 314 -15 q 126 67 189 -15 q 63 299 63 150 l 63 865 l 147 865 l 160 865 l 160 856 q 151 838 153 847 q 149 804 149 828 l 149 297 q 185 129 149 192 q 315 67 222 67 q 447 129 410 67 q 483 301 483 192 l 483 865 l 568 865 l 568 303 q 537 123 568 193 q 449 19 506 53 q 314 -15 392 -15 l 314 -15 m 567 797 l 553 865 q 591 875 579 865 q 606 913 603 885 q 610 996 610 942 l 690 996 q 682 880 690 924 q 648 817 674 836 q 567 797 622 797 z "},"Ű":{"ha":694,"x_min":69,"x_max":631,"o":"m 349 -15 q 140 67 210 -15 q 69 299 69 150 l 69 865 l 164 865 l 178 865 l 178 856 q 167 838 169 847 q 165 804 165 828 l 165 297 q 206 129 165 192 q 350 67 247 67 q 496 129 454 67 q 538 301 538 192 l 538 865 l 631 865 l 631 303 q 596 123 631 193 q 498 19 561 53 q 349 -15 435 -15 l 349 -15 z "},"Ȗ":{"ha":694,"x_min":69,"x_max":631,"o":"m 349 -15 q 140 67 210 -15 q 69 299 69 150 l 69 865 l 164 865 l 178 865 l 178 856 q 167 838 169 847 q 165 804 165 828 l 165 297 q 206 129 165 192 q 350 67 247 67 q 496 129 454 67 q 538 301 538 192 l 538 865 l 631 865 l 631 303 q 596 123 631 193 q 498 19 561 53 q 349 -15 435 -15 l 349 -15 m 221 964 l 149 997 q 231 1092 181 1058 q 346 1125 282 1125 q 462 1092 411 1125 q 543 997 513 1058 l 471 964 q 418 1035 449 1013 q 346 1058 388 1058 q 296 1049 318 1058 q 255 1018 274 1039 q 221 964 236 997 z "},"Ū":{"ha":694,"x_min":69,"x_max":631,"o":"m 349 -15 q 140 67 210 -15 q 69 299 69 150 l 69 865 l 164 865 l 178 865 l 178 856 q 167 838 169 847 q 165 804 165 828 l 165 297 q 206 129 165 192 q 350 67 247 67 q 496 129 454 67 q 538 301 538 192 l 538 865 l 631 865 l 631 303 q 596 123 631 193 q 498 19 561 53 q 349 -15 435 -15 l 349 -15 z "},"Ṻ":{"ha":694,"x_min":69,"x_max":631,"o":"m 349 -15 q 140 67 210 -15 q 69 299 69 150 l 69 865 l 164 865 l 178 865 l 178 856 q 167 838 169 847 q 165 804 165 828 l 165 297 q 206 129 165 192 q 350 67 247 67 q 496 129 454 67 q 538 301 538 192 l 538 865 l 631 865 l 631 303 q 596 123 631 193 q 498 19 561 53 q 349 -15 435 -15 l 349 -15 z "},"Ų":{"ha":694,"x_min":69,"x_max":631,"o":"m 349 -15 q 140 67 210 -15 q 69 299 69 150 l 69 865 l 164 865 l 178 865 l 178 856 q 167 838 169 847 q 165 804 165 828 l 165 297 q 206 129 165 192 q 350 67 247 67 q 496 129 454 67 q 538 301 538 192 l 538 865 l 631 865 l 631 303 q 596 123 631 193 q 498 19 561 53 q 349 -15 435 -15 l 349 -15 m 461 -235 l 439 -301 q 358 -278 393 -294 q 303 -237 324 -262 q 283 -176 283 -211 q 303 -102 283 -139 q 360 -30 322 -65 q 451 38 397 6 l 489 14 q 428 -44 454 -14 q 389 -103 403 -74 q 375 -157 375 -132 q 396 -207 375 -186 q 461 -235 417 -228 z "},"Ů":{"ha":694,"x_min":69,"x_max":631,"o":"m 349 -15 q 140 67 210 -15 q 69 299 69 150 l 69 865 l 164 865 l 178 865 l 178 856 q 167 838 169 847 q 165 804 165 828 l 165 297 q 206 129 165 192 q 350 67 247 67 q 496 129 454 67 q 538 301 538 192 l 538 865 l 631 865 l 631 303 q 596 123 631 193 q 498 19 561 53 q 349 -15 435 -15 l 349 -15 z "},"Ũ":{"ha":694,"x_min":69,"x_max":631,"o":"m 349 -15 q 140 67 210 -15 q 69 299 69 150 l 69 865 l 164 865 l 178 865 l 178 856 q 167 838 169 847 q 165 804 165 828 l 165 297 q 206 129 165 192 q 350 67 247 67 q 496 129 454 67 q 538 301 538 192 l 538 865 l 631 865 l 631 303 q 596 123 631 193 q 498 19 561 53 q 349 -15 435 -15 l 349 -15 z "},"Ṹ":{"ha":694,"x_min":69,"x_max":631,"o":"m 349 -15 q 140 67 210 -15 q 69 299 69 150 l 69 865 l 164 865 l 178 865 l 178 856 q 167 838 169 847 q 165 804 165 828 l 165 297 q 206 129 165 192 q 350 67 247 67 q 496 129 454 67 q 538 301 538 192 l 538 865 l 631 865 l 631 303 q 596 123 631 193 q 498 19 561 53 q 349 -15 435 -15 l 349 -15 z "},"V":{"ha":694,"x_min":35,"x_max":664,"o":"m 329 -6 l 35 867 l 136 867 l 358 201 l 568 865 l 664 865 l 374 -6 l 329 -6 z "},"W":{"ha":694,"x_min":24,"x_max":678,"o":"m 163 0 l 24 865 l 114 865 l 207 281 l 346 801 l 376 801 l 517 278 l 596 865 l 678 865 l 540 0 l 503 0 l 354 565 l 203 0 l 163 0 z "},"Ẃ":{"ha":694,"x_min":24,"x_max":678,"o":"m 163 0 l 24 865 l 114 865 l 207 281 l 346 801 l 376 801 l 517 278 l 596 865 l 678 865 l 540 0 l 503 0 l 354 565 l 203 0 l 163 0 z "},"Ŵ":{"ha":694,"x_min":24,"x_max":678,"o":"m 163 0 l 24 865 l 114 865 l 207 281 l 346 801 l 376 801 l 517 278 l 596 865 l 678 865 l 540 0 l 503 0 l 354 565 l 203 0 l 163 0 m 188 910 l 142 963 l 340 1099 l 371 1099 l 581 961 l 539 911 l 358 1008 l 188 910 z "},"Ẅ":{"ha":694,"x_min":24,"x_max":678,"o":"m 163 0 l 24 865 l 114 865 l 207 281 l 346 801 l 376 801 l 517 278 l 596 865 l 678 865 l 540 0 l 503 0 l 354 565 l 203 0 l 163 0 z "},"Ẁ":{"ha":694,"x_min":24,"x_max":678,"o":"m 163 0 l 24 865 l 114 865 l 207 281 l 346 801 l 376 801 l 517 278 l 596 865 l 678 865 l 540 0 l 503 0 l 354 565 l 203 0 l 163 0 z "},"X":{"ha":694,"x_min":57,"x_max":650,"o":"m 57 0 l 293 442 l 61 867 l 165 867 l 347 538 l 526 867 l 624 867 l 404 443 l 650 0 l 540 0 l 349 343 l 163 0 l 57 0 z "},"Y":{"ha":694,"x_min":39,"x_max":657,"o":"m 306 0 l 306 342 l 39 865 l 150 865 l 363 446 l 554 865 l 657 865 l 411 342 l 411 0 l 306 0 z "},"Ý":{"ha":694,"x_min":39,"x_max":657,"o":"m 306 0 l 306 342 l 39 865 l 150 865 l 363 446 l 554 865 l 657 865 l 411 342 l 411 0 l 306 0 z "},"Ŷ":{"ha":694,"x_min":39,"x_max":657,"o":"m 306 0 l 306 342 l 39 865 l 150 865 l 363 446 l 554 865 l 657 865 l 411 342 l 411 0 l 306 0 m 174 910 l 128 963 l 326 1099 l 357 1099 l 567 961 l 525 911 l 344 1008 l 174 910 z "},"Ÿ":{"ha":694,"x_min":39,"x_max":657,"o":"m 306 0 l 306 342 l 39 865 l 150 865 l 363 446 l 554 865 l 657 865 l 411 342 l 411 0 l 306 0 z "},"Ẏ":{"ha":694,"x_min":39,"x_max":657,"o":"m 306 0 l 306 342 l 39 865 l 150 865 l 363 446 l 554 865 l 657 865 l 411 342 l 411 0 l 306 0 z "},"Ỵ":{"ha":694,"x_min":39,"x_max":657,"o":"m 306 0 l 306 342 l 39 865 l 150 865 l 363 446 l 554 865 l 657 865 l 411 342 l 411 0 l 306 0 z "},"Ỳ":{"ha":694,"x_min":39,"x_max":657,"o":"m 306 0 l 306 342 l 39 865 l 150 865 l 363 446 l 554 865 l 657 865 l 411 342 l 411 0 l 306 0 z "},"Ỷ":{"ha":694,"x_min":39,"x_max":657,"o":"m 306 0 l 306 342 l 39 865 l 150 865 l 363 446 l 554 865 l 657 865 l 411 342 l 411 0 l 306 0 m 465 1106 q 453 1060 465 1076 q 426 1033 442 1044 q 399 1008 411 1022 q 388 967 388 993 l 388 957 l 317 957 l 317 996 q 328 1028 317 1014 q 353 1054 339 1042 q 378 1078 367 1067 q 389 1103 389 1090 q 376 1132 389 1122 q 346 1142 364 1142 q 310 1133 328 1142 q 285 1097 293 1125 l 233 1150 q 287 1195 258 1182 q 353 1208 315 1208 q 409 1196 383 1208 q 450 1160 435 1183 q 465 1106 465 1138 z "},"Ȳ":{"ha":694,"x_min":39,"x_max":657,"o":"m 306 0 l 306 342 l 39 865 l 150 865 l 363 446 l 554 865 l 657 865 l 411 342 l 411 0 l 306 0 z "},"Ỹ":{"ha":694,"x_min":39,"x_max":657,"o":"m 306 0 l 306 342 l 39 865 l 150 865 l 363 446 l 554 865 l 657 865 l 411 342 l 411 0 l 306 0 z "},"Z":{"ha":694,"x_min":69,"x_max":643,"o":"m 69 68 l 506 778 l 86 778 l 86 865 l 621 865 l 621 797 l 192 86 l 582 86 q 615 89 606 86 q 633 100 625 92 l 643 100 l 643 86 l 643 0 l 69 0 l 69 68 z "},"Ź":{"ha":694,"x_min":69,"x_max":643,"o":"m 69 68 l 506 778 l 86 778 l 86 865 l 621 865 l 621 797 l 192 86 l 582 86 q 615 89 606 86 q 633 100 625 92 l 643 100 l 643 86 l 643 0 l 69 0 l 69 68 z "},"Ž":{"ha":694,"x_min":69,"x_max":643,"o":"m 69 68 l 506 778 l 86 778 l 86 865 l 621 865 l 621 797 l 192 86 l 582 86 q 615 89 606 86 q 633 100 625 92 l 643 100 l 643 86 l 643 0 l 69 0 l 69 68 z "},"Ż":{"ha":694,"x_min":69,"x_max":643,"o":"m 69 68 l 506 778 l 86 778 l 86 865 l 621 865 l 621 797 l 192 86 l 582 86 q 615 89 606 86 q 633 100 625 92 l 643 100 l 643 86 l 643 0 l 69 0 l 69 68 z "},"Ẓ":{"ha":694,"x_min":69,"x_max":643,"o":"m 69 68 l 506 778 l 86 778 l 86 865 l 621 865 l 621 797 l 192 86 l 582 86 q 615 89 606 86 q 633 100 625 92 l 643 100 l 643 86 l 643 0 l 69 0 l 69 68 z "},"a":{"ha":694,"x_min":68,"x_max":618,"o":"m 293 -15 q 126 34 185 -15 q 68 160 68 83 q 93 252 68 211 q 162 322 118 293 q 264 365 206 350 q 388 381 322 381 q 435 380 411 381 q 487 377 460 379 q 543 371 514 375 l 546 294 q 495 301 521 299 q 444 304 469 303 q 396 306 419 306 q 304 297 346 306 q 232 272 263 289 q 185 229 201 256 q 168 165 168 203 q 178 116 168 136 q 207 84 189 96 q 249 67 225 72 q 303 61 274 61 q 399 78 357 61 q 472 129 442 96 q 517 211 501 163 q 532 322 532 260 q 510 469 532 417 q 444 544 488 522 q 332 567 400 567 q 242 549 286 567 q 161 496 197 532 l 113 560 q 215 626 157 604 q 339 649 274 649 q 453 633 401 649 q 541 583 504 618 q 598 488 578 547 q 618 338 618 428 l 618 0 l 510 0 l 510 97 q 466 40 492 63 q 411 6 440 18 q 351 -10 382 -6 q 293 -15 321 -15 z "},"á":{"ha":694,"x_min":68,"x_max":618,"o":"m 293 -15 q 126 34 185 -15 q 68 160 68 83 q 93 252 68 211 q 162 322 118 293 q 264 365 206 350 q 388 381 322 381 q 435 380 411 381 q 487 377 460 379 q 543 371 514 375 l 546 294 q 495 301 521 299 q 444 304 469 303 q 396 306 419 306 q 304 297 346 306 q 232 272 263 289 q 185 229 201 256 q 168 165 168 203 q 178 116 168 136 q 207 84 189 96 q 249 67 225 72 q 303 61 274 61 q 399 78 357 61 q 472 129 442 96 q 517 211 501 163 q 532 322 532 260 q 510 469 532 417 q 444 544 488 522 q 332 567 400 567 q 242 549 286 567 q 161 496 197 532 l 113 560 q 215 626 157 604 q 339 649 274 649 q 453 633 401 649 q 541 583 504 618 q 598 488 578 547 q 618 338 618 428 l 618 0 l 510 0 l 510 97 q 466 40 492 63 q 411 6 440 18 q 351 -10 382 -6 q 293 -15 321 -15 z "},"ă":{"ha":694,"x_min":68,"x_max":618,"o":"m 293 -15 q 126 34 185 -15 q 68 160 68 83 q 93 252 68 211 q 162 322 118 293 q 264 365 206 350 q 388 381 322 381 q 435 380 411 381 q 487 377 460 379 q 543 371 514 375 l 546 294 q 495 301 521 299 q 444 304 469 303 q 396 306 419 306 q 304 297 346 306 q 232 272 263 289 q 185 229 201 256 q 168 165 168 203 q 178 116 168 136 q 207 84 189 96 q 249 67 225 72 q 303 61 274 61 q 399 78 357 61 q 472 129 442 96 q 517 211 501 163 q 532 322 532 260 q 510 469 532 417 q 444 544 488 522 q 332 567 400 567 q 242 549 286 567 q 161 496 197 532 l 113 560 q 215 626 157 604 q 339 649 274 649 q 453 633 401 649 q 541 583 504 618 q 598 488 578 547 q 618 338 618 428 l 618 0 l 510 0 l 510 97 q 466 40 492 63 q 411 6 440 18 q 351 -10 382 -6 q 293 -15 321 -15 m 472 908 l 544 875 q 463 781 514 814 q 347 747 413 747 q 233 781 283 747 q 150 875 182 814 l 222 908 q 276 837 246 860 q 347 814 306 814 q 398 824 375 814 q 439 855 421 833 q 472 908 457 876 z "},"ắ":{"ha":694,"x_min":68,"x_max":618,"o":"m 293 -15 q 126 34 185 -15 q 68 160 68 83 q 93 252 68 211 q 162 322 118 293 q 264 365 206 350 q 388 381 322 381 q 435 380 411 381 q 487 377 460 379 q 543 371 514 375 l 546 294 q 495 301 521 299 q 444 304 469 303 q 396 306 419 306 q 304 297 346 306 q 232 272 263 289 q 185 229 201 256 q 168 165 168 203 q 178 116 168 136 q 207 84 189 96 q 249 67 225 72 q 303 61 274 61 q 399 78 357 61 q 472 129 442 96 q 517 211 501 163 q 532 322 532 260 q 510 469 532 417 q 444 544 488 522 q 332 567 400 567 q 242 549 286 567 q 161 496 197 532 l 113 560 q 215 626 157 604 q 339 649 274 649 q 453 633 401 649 q 541 583 504 618 q 598 488 578 547 q 618 338 618 428 l 618 0 l 510 0 l 510 97 q 466 40 492 63 q 411 6 440 18 q 351 -10 382 -6 q 293 -15 321 -15 z "},"ặ":{"ha":694,"x_min":68,"x_max":618,"o":"m 293 -15 q 126 34 185 -15 q 68 160 68 83 q 93 252 68 211 q 162 322 118 293 q 264 365 206 350 q 388 381 322 381 q 435 380 411 381 q 487 377 460 379 q 543 371 514 375 l 546 294 q 495 301 521 299 q 444 304 469 303 q 396 306 419 306 q 304 297 346 306 q 232 272 263 289 q 185 229 201 256 q 168 165 168 203 q 178 116 168 136 q 207 84 189 96 q 249 67 225 72 q 303 61 274 61 q 399 78 357 61 q 472 129 442 96 q 517 211 501 163 q 532 322 532 260 q 510 469 532 417 q 444 544 488 522 q 332 567 400 567 q 242 549 286 567 q 161 496 197 532 l 113 560 q 215 626 157 604 q 339 649 274 649 q 453 633 401 649 q 541 583 504 618 q 598 488 578 547 q 618 338 618 428 l 618 0 l 510 0 l 510 97 q 466 40 492 63 q 411 6 440 18 q 351 -10 382 -6 q 293 -15 321 -15 m 472 908 l 544 875 q 463 781 514 814 q 347 747 413 747 q 233 781 283 747 q 150 875 182 814 l 222 908 q 276 837 246 860 q 347 814 306 814 q 398 824 375 814 q 439 855 421 833 q 472 908 457 876 z "},"ằ":{"ha":694,"x_min":68,"x_max":618,"o":"m 293 -15 q 126 34 185 -15 q 68 160 68 83 q 93 252 68 211 q 162 322 118 293 q 264 365 206 350 q 388 381 322 381 q 435 380 411 381 q 487 377 460 379 q 543 371 514 375 l 546 294 q 495 301 521 299 q 444 304 469 303 q 396 306 419 306 q 304 297 346 306 q 232 272 263 289 q 185 229 201 256 q 168 165 168 203 q 178 116 168 136 q 207 84 189 96 q 249 67 225 72 q 303 61 274 61 q 399 78 357 61 q 472 129 442 96 q 517 211 501 163 q 532 322 532 260 q 510 469 532 417 q 444 544 488 522 q 332 567 400 567 q 242 549 286 567 q 161 496 197 532 l 113 560 q 215 626 157 604 q 339 649 274 649 q 453 633 401 649 q 541 583 504 618 q 598 488 578 547 q 618 338 618 428 l 618 0 l 510 0 l 510 97 q 466 40 492 63 q 411 6 440 18 q 351 -10 382 -6 q 293 -15 321 -15 z "},"ẳ":{"ha":694,"x_min":68,"x_max":618,"o":"m 293 -15 q 126 34 185 -15 q 68 160 68 83 q 93 252 68 211 q 162 322 118 293 q 264 365 206 350 q 388 381 322 381 q 435 380 411 381 q 487 377 460 379 q 543 371 514 375 l 546 294 q 495 301 521 299 q 444 304 469 303 q 396 306 419 306 q 304 297 346 306 q 232 272 263 289 q 185 229 201 256 q 168 165 168 203 q 178 116 168 136 q 207 84 189 96 q 249 67 225 72 q 303 61 274 61 q 399 78 357 61 q 472 129 442 96 q 517 211 501 163 q 532 322 532 260 q 510 469 532 417 q 444 544 488 522 q 332 567 400 567 q 242 549 286 567 q 161 496 197 532 l 113 560 q 215 626 157 604 q 339 649 274 649 q 453 633 401 649 q 541 583 504 618 q 598 488 578 547 q 618 338 618 428 l 618 0 l 510 0 l 510 97 q 466 40 492 63 q 411 6 440 18 q 351 -10 382 -6 q 293 -15 321 -15 z "},"ẵ":{"ha":694,"x_min":68,"x_max":618,"o":"m 293 -15 q 126 34 185 -15 q 68 160 68 83 q 93 252 68 211 q 162 322 118 293 q 264 365 206 350 q 388 381 322 381 q 435 380 411 381 q 487 377 460 379 q 543 371 514 375 l 546 294 q 495 301 521 299 q 444 304 469 303 q 396 306 419 306 q 304 297 346 306 q 232 272 263 289 q 185 229 201 256 q 168 165 168 203 q 178 116 168 136 q 207 84 189 96 q 249 67 225 72 q 303 61 274 61 q 399 78 357 61 q 472 129 442 96 q 517 211 501 163 q 532 322 532 260 q 510 469 532 417 q 444 544 488 522 q 332 567 400 567 q 242 549 286 567 q 161 496 197 532 l 113 560 q 215 626 157 604 q 339 649 274 649 q 453 633 401 649 q 541 583 504 618 q 598 488 578 547 q 618 338 618 428 l 618 0 l 510 0 l 510 97 q 466 40 492 63 q 411 6 440 18 q 351 -10 382 -6 q 293 -15 321 -15 z "},"â":{"ha":694,"x_min":68,"x_max":618,"o":"m 293 -15 q 126 34 185 -15 q 68 160 68 83 q 93 252 68 211 q 162 322 118 293 q 264 365 206 350 q 388 381 322 381 q 435 380 411 381 q 487 377 460 379 q 543 371 514 375 l 546 294 q 495 301 521 299 q 444 304 469 303 q 396 306 419 306 q 304 297 346 306 q 232 272 263 289 q 185 229 201 256 q 168 165 168 203 q 178 116 168 136 q 207 84 189 96 q 249 67 225 72 q 303 61 274 61 q 399 78 357 61 q 472 129 442 96 q 517 211 501 163 q 532 322 532 260 q 510 469 532 417 q 444 544 488 522 q 332 567 400 567 q 242 549 286 567 q 161 496 197 532 l 113 560 q 215 626 157 604 q 339 649 274 649 q 453 633 401 649 q 541 583 504 618 q 598 488 578 547 q 618 338 618 428 l 618 0 l 510 0 l 510 97 q 466 40 492 63 q 411 6 440 18 q 351 -10 382 -6 q 293 -15 321 -15 m 193 710 l 138 757 l 331 951 l 364 951 l 557 757 l 501 710 l 347 863 l 193 710 z "},"ấ":{"ha":694,"x_min":68,"x_max":675,"o":"m 293 -15 q 126 34 185 -15 q 68 160 68 83 q 93 252 68 211 q 162 322 118 293 q 264 365 206 350 q 388 381 322 381 q 435 380 411 381 q 487 377 460 379 q 543 371 514 375 l 546 294 q 495 301 521 299 q 444 304 469 303 q 396 306 419 306 q 304 297 346 306 q 232 272 263 289 q 185 229 201 256 q 168 165 168 203 q 178 116 168 136 q 207 84 189 96 q 249 67 225 72 q 303 61 274 61 q 399 78 357 61 q 472 129 442 96 q 517 211 501 163 q 532 322 532 260 q 510 469 532 417 q 444 544 488 522 q 332 567 400 567 q 242 549 286 567 q 161 496 197 532 l 113 560 q 215 626 157 604 q 339 649 274 649 q 453 633 401 649 q 541 583 504 618 q 598 488 578 547 q 618 338 618 428 l 618 0 l 510 0 l 510 97 q 466 40 492 63 q 411 6 440 18 q 351 -10 382 -6 q 293 -15 321 -15 z "},"ậ":{"ha":694,"x_min":68,"x_max":618,"o":"m 293 -15 q 126 34 185 -15 q 68 160 68 83 q 93 252 68 211 q 162 322 118 293 q 264 365 206 350 q 388 381 322 381 q 435 380 411 381 q 487 377 460 379 q 543 371 514 375 l 546 294 q 495 301 521 299 q 444 304 469 303 q 396 306 419 306 q 304 297 346 306 q 232 272 263 289 q 185 229 201 256 q 168 165 168 203 q 178 116 168 136 q 207 84 189 96 q 249 67 225 72 q 303 61 274 61 q 399 78 357 61 q 472 129 442 96 q 517 211 501 163 q 532 322 532 260 q 510 469 532 417 q 444 544 488 522 q 332 567 400 567 q 242 549 286 567 q 161 496 197 532 l 113 560 q 215 626 157 604 q 339 649 274 649 q 453 633 401 649 q 541 583 504 618 q 598 488 578 547 q 618 338 618 428 l 618 0 l 510 0 l 510 97 q 466 40 492 63 q 411 6 440 18 q 351 -10 382 -6 q 293 -15 321 -15 m 193 710 l 138 757 l 331 951 l 364 951 l 557 757 l 501 710 l 347 863 l 193 710 z "},"ầ":{"ha":694,"x_min":68,"x_max":618,"o":"m 293 -15 q 126 34 185 -15 q 68 160 68 83 q 93 252 68 211 q 162 322 118 293 q 264 365 206 350 q 388 381 322 381 q 435 380 411 381 q 487 377 460 379 q 543 371 514 375 l 546 294 q 495 301 521 299 q 444 304 469 303 q 396 306 419 306 q 304 297 346 306 q 232 272 263 289 q 185 229 201 256 q 168 165 168 203 q 178 116 168 136 q 207 84 189 96 q 249 67 225 72 q 303 61 274 61 q 399 78 357 61 q 472 129 442 96 q 517 211 501 163 q 532 322 532 260 q 510 469 532 417 q 444 544 488 522 q 332 567 400 567 q 242 549 286 567 q 161 496 197 532 l 113 560 q 215 626 157 604 q 339 649 274 649 q 453 633 401 649 q 541 583 504 618 q 598 488 578 547 q 618 338 618 428 l 618 0 l 510 0 l 510 97 q 466 40 492 63 q 411 6 440 18 q 351 -10 382 -6 q 293 -15 321 -15 z "},"ẩ":{"ha":694,"x_min":68,"x_max":633,"o":"m 293 -15 q 126 34 185 -15 q 68 160 68 83 q 93 252 68 211 q 162 322 118 293 q 264 365 206 350 q 388 381 322 381 q 435 380 411 381 q 487 377 460 379 q 543 371 514 375 l 546 294 q 495 301 521 299 q 444 304 469 303 q 396 306 419 306 q 304 297 346 306 q 232 272 263 289 q 185 229 201 256 q 168 165 168 203 q 178 116 168 136 q 207 84 189 96 q 249 67 225 72 q 303 61 274 61 q 399 78 357 61 q 472 129 442 96 q 517 211 501 163 q 532 322 532 260 q 510 469 532 417 q 444 544 488 522 q 332 567 400 567 q 242 549 286 567 q 161 496 197 532 l 113 560 q 215 626 157 604 q 339 649 274 649 q 453 633 401 649 q 541 583 504 618 q 598 488 578 547 q 618 338 618 428 l 618 0 l 510 0 l 510 97 q 466 40 492 63 q 411 6 440 18 q 351 -10 382 -6 q 293 -15 321 -15 z "},"ẫ":{"ha":694,"x_min":68,"x_max":618,"o":"m 293 -15 q 126 34 185 -15 q 68 160 68 83 q 93 252 68 211 q 162 322 118 293 q 264 365 206 350 q 388 381 322 381 q 435 380 411 381 q 487 377 460 379 q 543 371 514 375 l 546 294 q 495 301 521 299 q 444 304 469 303 q 396 306 419 306 q 304 297 346 306 q 232 272 263 289 q 185 229 201 256 q 168 165 168 203 q 178 116 168 136 q 207 84 189 96 q 249 67 225 72 q 303 61 274 61 q 399 78 357 61 q 472 129 442 96 q 517 211 501 163 q 532 322 532 260 q 510 469 532 417 q 444 544 488 522 q 332 567 400 567 q 242 549 286 567 q 161 496 197 532 l 113 560 q 215 626 157 604 q 339 649 274 649 q 453 633 401 649 q 541 583 504 618 q 598 488 578 547 q 618 338 618 428 l 618 0 l 510 0 l 510 97 q 466 40 492 63 q 411 6 440 18 q 351 -10 382 -6 q 293 -15 321 -15 z "},"ȁ":{"ha":694,"x_min":68,"x_max":618,"o":"m 293 -15 q 126 34 185 -15 q 68 160 68 83 q 93 252 68 211 q 162 322 118 293 q 264 365 206 350 q 388 381 322 381 q 435 380 411 381 q 487 377 460 379 q 543 371 514 375 l 546 294 q 495 301 521 299 q 444 304 469 303 q 396 306 419 306 q 304 297 346 306 q 232 272 263 289 q 185 229 201 256 q 168 165 168 203 q 178 116 168 136 q 207 84 189 96 q 249 67 225 72 q 303 61 274 61 q 399 78 357 61 q 472 129 442 96 q 517 211 501 163 q 532 322 532 260 q 510 469 532 417 q 444 544 488 522 q 332 567 400 567 q 242 549 286 567 q 161 496 197 532 l 113 560 q 215 626 157 604 q 339 649 274 649 q 453 633 401 649 q 541 583 504 618 q 598 488 578 547 q 618 338 618 428 l 618 0 l 510 0 l 510 97 q 466 40 492 63 q 411 6 440 18 q 351 -10 382 -6 q 293 -15 321 -15 z "},"ä":{"ha":694,"x_min":68,"x_max":618,"o":"m 293 -15 q 126 34 185 -15 q 68 160 68 83 q 93 252 68 211 q 162 322 118 293 q 264 365 206 350 q 388 381 322 381 q 435 380 411 381 q 487 377 460 379 q 543 371 514 375 l 546 294 q 495 301 521 299 q 444 304 469 303 q 396 306 419 306 q 304 297 346 306 q 232 272 263 289 q 185 229 201 256 q 168 165 168 203 q 178 116 168 136 q 207 84 189 96 q 249 67 225 72 q 303 61 274 61 q 399 78 357 61 q 472 129 442 96 q 517 211 501 163 q 532 322 532 260 q 510 469 532 417 q 444 544 488 522 q 332 567 400 567 q 242 549 286 567 q 161 496 197 532 l 113 560 q 215 626 157 604 q 339 649 274 649 q 453 633 401 649 q 541 583 504 618 q 598 488 578 547 q 618 338 618 428 l 618 0 l 510 0 l 510 97 q 466 40 492 63 q 411 6 440 18 q 351 -10 382 -6 q 293 -15 321 -15 z "},"ạ":{"ha":694,"x_min":68,"x_max":618,"o":"m 293 -15 q 126 34 185 -15 q 68 160 68 83 q 93 252 68 211 q 162 322 118 293 q 264 365 206 350 q 388 381 322 381 q 435 380 411 381 q 487 377 460 379 q 543 371 514 375 l 546 294 q 495 301 521 299 q 444 304 469 303 q 396 306 419 306 q 304 297 346 306 q 232 272 263 289 q 185 229 201 256 q 168 165 168 203 q 178 116 168 136 q 207 84 189 96 q 249 67 225 72 q 303 61 274 61 q 399 78 357 61 q 472 129 442 96 q 517 211 501 163 q 532 322 532 260 q 510 469 532 417 q 444 544 488 522 q 332 567 400 567 q 242 549 286 567 q 161 496 197 532 l 113 560 q 215 626 157 604 q 339 649 274 649 q 453 633 401 649 q 541 583 504 618 q 598 488 578 547 q 618 338 618 428 l 618 0 l 510 0 l 510 97 q 466 40 492 63 q 411 6 440 18 q 351 -10 382 -6 q 293 -15 321 -15 z "},"à":{"ha":694,"x_min":68,"x_max":618,"o":"m 293 -15 q 126 34 185 -15 q 68 160 68 83 q 93 252 68 211 q 162 322 118 293 q 264 365 206 350 q 388 381 322 381 q 435 380 411 381 q 487 377 460 379 q 543 371 514 375 l 546 294 q 495 301 521 299 q 444 304 469 303 q 396 306 419 306 q 304 297 346 306 q 232 272 263 289 q 185 229 201 256 q 168 165 168 203 q 178 116 168 136 q 207 84 189 96 q 249 67 225 72 q 303 61 274 61 q 399 78 357 61 q 472 129 442 96 q 517 211 501 163 q 532 322 532 260 q 510 469 532 417 q 444 544 488 522 q 332 567 400 567 q 242 549 286 567 q 161 496 197 532 l 113 560 q 215 626 157 604 q 339 649 274 649 q 453 633 401 649 q 541 583 504 618 q 598 488 578 547 q 618 338 618 428 l 618 0 l 510 0 l 510 97 q 466 40 492 63 q 411 6 440 18 q 351 -10 382 -6 q 293 -15 321 -15 z "},"ả":{"ha":694,"x_min":68,"x_max":618,"o":"m 293 -15 q 126 34 185 -15 q 68 160 68 83 q 93 252 68 211 q 162 322 118 293 q 264 365 206 350 q 388 381 322 381 q 435 380 411 381 q 487 377 460 379 q 543 371 514 375 l 546 294 q 495 301 521 299 q 444 304 469 303 q 396 306 419 306 q 304 297 346 306 q 232 272 263 289 q 185 229 201 256 q 168 165 168 203 q 178 116 168 136 q 207 84 189 96 q 249 67 225 72 q 303 61 274 61 q 399 78 357 61 q 472 129 442 96 q 517 211 501 163 q 532 322 532 260 q 510 469 532 417 q 444 544 488 522 q 332 567 400 567 q 242 549 286 567 q 161 496 197 532 l 113 560 q 215 626 157 604 q 339 649 274 649 q 453 633 401 649 q 541 583 504 618 q 598 488 578 547 q 618 338 618 428 l 618 0 l 510 0 l 510 97 q 466 40 492 63 q 411 6 440 18 q 351 -10 382 -6 q 293 -15 321 -15 m 465 875 q 453 830 465 846 q 426 803 442 814 q 399 777 411 792 q 388 736 388 763 l 388 726 l 317 726 l 317 765 q 328 797 317 783 q 353 824 339 811 q 378 848 367 836 q 389 872 389 860 q 376 901 389 892 q 346 911 364 911 q 310 903 328 911 q 285 867 293 894 l 233 919 q 287 965 258 951 q 353 978 315 978 q 409 965 383 978 q 450 930 435 953 q 465 875 465 907 z "},"ȃ":{"ha":694,"x_min":68,"x_max":618,"o":"m 293 -15 q 126 34 185 -15 q 68 160 68 83 q 93 252 68 211 q 162 322 118 293 q 264 365 206 350 q 388 381 322 381 q 435 380 411 381 q 487 377 460 379 q 543 371 514 375 l 546 294 q 495 301 521 299 q 444 304 469 303 q 396 306 419 306 q 304 297 346 306 q 232 272 263 289 q 185 229 201 256 q 168 165 168 203 q 178 116 168 136 q 207 84 189 96 q 249 67 225 72 q 303 61 274 61 q 399 78 357 61 q 472 129 442 96 q 517 211 501 163 q 532 322 532 260 q 510 469 532 417 q 444 544 488 522 q 332 567 400 567 q 242 549 286 567 q 161 496 197 532 l 113 560 q 215 626 157 604 q 339 649 274 649 q 453 633 401 649 q 541 583 504 618 q 598 488 578 547 q 618 338 618 428 l 618 0 l 510 0 l 510 97 q 466 40 492 63 q 411 6 440 18 q 351 -10 382 -6 q 293 -15 321 -15 m 221 733 l 149 767 q 231 861 181 828 q 346 894 282 894 q 462 861 411 894 q 543 767 513 828 l 471 733 q 418 805 449 782 q 346 828 388 828 q 296 818 318 828 q 255 788 274 808 q 221 733 236 767 z "},"ā":{"ha":694,"x_min":68,"x_max":618,"o":"m 293 -15 q 126 34 185 -15 q 68 160 68 83 q 93 252 68 211 q 162 322 118 293 q 264 365 206 350 q 388 381 322 381 q 435 380 411 381 q 487 377 460 379 q 543 371 514 375 l 546 294 q 495 301 521 299 q 444 304 469 303 q 396 306 419 306 q 304 297 346 306 q 232 272 263 289 q 185 229 201 256 q 168 165 168 203 q 178 116 168 136 q 207 84 189 96 q 249 67 225 72 q 303 61 274 61 q 399 78 357 61 q 472 129 442 96 q 517 211 501 163 q 532 322 532 260 q 510 469 532 417 q 444 544 488 522 q 332 567 400 567 q 242 549 286 567 q 161 496 197 532 l 113 560 q 215 626 157 604 q 339 649 274 649 q 453 633 401 649 q 541 583 504 618 q 598 488 578 547 q 618 338 618 428 l 618 0 l 510 0 l 510 97 q 466 40 492 63 q 411 6 440 18 q 351 -10 382 -6 q 293 -15 321 -15 z "},"ą":{"ha":694,"x_min":68,"x_max":618,"o":"m 293 -15 q 126 34 185 -15 q 68 160 68 83 q 93 252 68 211 q 162 322 118 293 q 264 365 206 350 q 388 381 322 381 q 435 380 411 381 q 487 377 460 379 q 543 371 514 375 l 546 294 q 495 301 521 299 q 444 304 469 303 q 396 306 419 306 q 304 297 346 306 q 232 272 263 289 q 185 229 201 256 q 168 165 168 203 q 178 116 168 136 q 207 84 189 96 q 249 67 225 72 q 303 61 274 61 q 399 78 357 61 q 472 129 442 96 q 517 211 501 163 q 532 322 532 260 q 510 469 532 417 q 444 544 488 522 q 332 567 400 567 q 242 549 286 567 q 161 496 197 532 l 113 560 q 215 626 157 604 q 339 649 274 649 q 453 633 401 649 q 541 583 504 618 q 598 488 578 547 q 618 338 618 428 l 618 0 l 510 0 l 510 97 q 466 40 492 63 q 411 6 440 18 q 351 -10 382 -6 q 293 -15 321 -15 m 526 -249 l 504 -315 q 424 -292 458 -308 q 369 -251 389 -276 q 349 -190 349 -225 q 368 -116 349 -153 q 425 -44 388 -79 q 517 24 463 -8 l 554 0 q 494 -58 519 -28 q 454 -117 468 -87 q 440 -171 440 -146 q 461 -221 440 -200 q 526 -249 482 -242 z "},"å":{"ha":694,"x_min":68,"x_max":618,"o":"m 293 -15 q 126 34 185 -15 q 68 160 68 83 q 93 252 68 211 q 162 322 118 293 q 264 365 206 350 q 388 381 322 381 q 435 380 411 381 q 487 377 460 379 q 543 371 514 375 l 546 294 q 495 301 521 299 q 444 304 469 303 q 396 306 419 306 q 304 297 346 306 q 232 272 263 289 q 185 229 201 256 q 168 165 168 203 q 178 116 168 136 q 207 84 189 96 q 249 67 225 72 q 303 61 274 61 q 399 78 357 61 q 472 129 442 96 q 517 211 501 163 q 532 322 532 260 q 510 469 532 417 q 444 544 488 522 q 332 567 400 567 q 242 549 286 567 q 161 496 197 532 l 113 560 q 215 626 157 604 q 339 649 274 649 q 453 633 401 649 q 541 583 504 618 q 598 488 578 547 q 618 338 618 428 l 618 0 l 510 0 l 510 97 q 466 40 492 63 q 411 6 440 18 q 351 -10 382 -6 q 293 -15 321 -15 z "},"ǻ":{"ha":694,"x_min":68,"x_max":618,"o":"m 293 -15 q 126 34 185 -15 q 68 160 68 83 q 93 252 68 211 q 162 322 118 293 q 264 365 206 350 q 388 381 322 381 q 435 380 411 381 q 487 377 460 379 q 543 371 514 375 l 546 294 q 495 301 521 299 q 444 304 469 303 q 396 306 419 306 q 304 297 346 306 q 232 272 263 289 q 185 229 201 256 q 168 165 168 203 q 178 116 168 136 q 207 84 189 96 q 249 67 225 72 q 303 61 274 61 q 399 78 357 61 q 472 129 442 96 q 517 211 501 163 q 532 322 532 260 q 510 469 532 417 q 444 544 488 522 q 332 567 400 567 q 242 549 286 567 q 161 496 197 532 l 113 560 q 215 626 157 604 q 339 649 274 649 q 453 633 401 649 q 541 583 504 618 q 598 488 578 547 q 618 338 618 428 l 618 0 l 510 0 l 510 97 q 466 40 492 63 q 411 6 440 18 q 351 -10 382 -6 q 293 -15 321 -15 z "},"ã":{"ha":694,"x_min":68,"x_max":618,"o":"m 293 -15 q 126 34 185 -15 q 68 160 68 83 q 93 252 68 211 q 162 322 118 293 q 264 365 206 350 q 388 381 322 381 q 435 380 411 381 q 487 377 460 379 q 543 371 514 375 l 546 294 q 495 301 521 299 q 444 304 469 303 q 396 306 419 306 q 304 297 346 306 q 232 272 263 289 q 185 229 201 256 q 168 165 168 203 q 178 116 168 136 q 207 84 189 96 q 249 67 225 72 q 303 61 274 61 q 399 78 357 61 q 472 129 442 96 q 517 211 501 163 q 532 322 532 260 q 510 469 532 417 q 444 544 488 522 q 332 567 400 567 q 242 549 286 567 q 161 496 197 532 l 113 560 q 215 626 157 604 q 339 649 274 649 q 453 633 401 649 q 541 583 504 618 q 598 488 578 547 q 618 338 618 428 l 618 0 l 510 0 l 510 97 q 466 40 492 63 q 411 6 440 18 q 351 -10 382 -6 q 293 -15 321 -15 m 521 940 l 585 901 q 526 820 554 843 q 456 797 497 797 q 401 808 425 797 q 356 835 376 819 q 316 861 336 850 q 272 872 296 872 q 230 858 249 872 q 194 807 211 844 l 126 838 q 181 917 146 885 q 269 949 215 949 q 323 938 300 949 q 365 911 346 926 q 405 885 385 896 q 450 874 425 874 q 487 888 472 874 q 521 940 501 901 z "},"æ":{"ha":694,"x_min":14,"x_max":686,"o":"m 197 -15 q 92 10 132 -15 q 33 77 51 35 q 14 171 14 119 q 33 260 14 221 q 88 327 51 300 q 179 369 124 354 q 307 388 235 385 q 296 489 307 449 q 260 550 285 529 q 197 571 236 571 q 140 556 167 571 q 92 511 114 542 l 43 572 q 113 630 74 611 q 204 649 153 649 q 267 638 238 649 q 321 609 297 628 q 358 563 344 590 q 398 609 375 590 q 448 638 421 628 q 503 649 475 649 q 606 615 567 649 q 663 520 644 582 q 681 372 681 458 l 681 319 l 392 310 l 392 243 q 401 170 392 203 q 431 114 411 138 q 476 78 450 90 q 536 65 503 65 q 576 71 558 65 q 610 88 594 76 q 638 117 625 100 l 686 58 q 616 3 656 22 q 528 -15 576 -15 q 460 -3 493 -15 q 401 30 428 8 q 354 81 374 51 q 315 30 339 51 q 260 -3 290 8 q 197 -15 231 -15 m 200 69 q 272 101 250 69 q 301 187 294 133 q 307 304 307 240 q 188 288 233 301 q 123 247 143 275 q 103 169 103 218 q 114 109 103 131 q 147 78 125 88 q 200 69 169 69 m 392 388 l 600 394 q 590 492 600 453 q 559 551 581 532 q 503 571 538 571 q 443 549 468 571 q 405 488 418 528 q 392 388 392 447 z "},"ǽ":{"ha":694,"x_min":14,"x_max":686,"o":"m 197 -15 q 92 10 132 -15 q 33 77 51 35 q 14 171 14 119 q 33 260 14 221 q 88 327 51 300 q 179 369 124 354 q 307 388 235 385 q 296 489 307 449 q 260 550 285 529 q 197 571 236 571 q 140 556 167 571 q 92 511 114 542 l 43 572 q 113 630 74 611 q 204 649 153 649 q 267 638 238 649 q 321 609 297 628 q 358 563 344 590 q 398 609 375 590 q 448 638 421 628 q 503 649 475 649 q 606 615 567 649 q 663 520 644 582 q 681 372 681 458 l 681 319 l 392 310 l 392 243 q 401 170 392 203 q 431 114 411 138 q 476 78 450 90 q 536 65 503 65 q 576 71 558 65 q 610 88 594 76 q 638 117 625 100 l 686 58 q 616 3 656 22 q 528 -15 576 -15 q 460 -3 493 -15 q 401 30 428 8 q 354 81 374 51 q 315 30 339 51 q 260 -3 290 8 q 197 -15 231 -15 m 200 69 q 272 101 250 69 q 301 187 294 133 q 307 304 307 240 q 188 288 233 301 q 123 247 143 275 q 103 169 103 218 q 114 109 103 131 q 147 78 125 88 q 200 69 169 69 m 392 388 l 600 394 q 590 492 600 453 q 559 551 581 532 q 503 571 538 571 q 443 549 468 571 q 405 488 418 528 q 392 388 392 447 z "},"b":{"ha":694,"x_min":83,"x_max":635,"o":"m 369 -15 q 296 -3 331 -15 q 233 31 261 8 q 182 83 204 53 l 147 0 l 83 0 l 83 924 l 183 924 l 197 924 l 197 914 q 187 896 189 906 q 185 863 185 886 l 185 538 q 221 583 200 563 q 267 619 242 604 q 319 642 292 635 q 374 650 347 650 q 480 630 432 650 q 563 569 528 610 q 616 467 597 528 q 635 324 635 406 q 613 175 635 239 q 552 69 590 111 q 467 6 514 26 q 369 -15 419 -15 l 369 -15 m 357 74 q 422 86 390 74 q 478 127 453 99 q 517 203 503 156 q 532 318 532 250 q 519 427 532 381 q 484 504 507 474 q 429 549 461 535 q 360 564 397 564 q 269 533 308 564 q 207 445 229 501 q 185 315 185 389 q 194 217 185 261 q 224 140 204 172 q 277 91 244 108 q 357 74 310 74 l 357 74 z "},"ʘ":{"ha":694,"x_min":38,"x_max":657,"o":"m 347 -15 q 179 36 249 -15 q 74 187 110 88 q 38 428 38 286 q 74 665 38 565 q 179 817 110 764 q 347 871 249 871 q 516 817 447 871 q 621 665 585 764 q 657 428 657 565 q 621 187 657 286 q 516 36 585 88 q 347 -15 447 -15 m 347 69 q 460 111 414 69 q 532 233 507 153 q 557 428 557 313 q 532 617 557 538 q 460 742 507 697 q 347 786 414 786 q 235 742 282 786 q 163 617 188 697 q 138 428 138 538 q 163 233 138 313 q 235 111 188 153 q 347 69 282 69 m 350 372 q 307 390 325 372 q 289 433 289 408 q 307 478 289 460 q 350 496 325 496 q 394 477 376 496 q 413 433 413 458 q 394 390 413 408 q 350 372 376 372 z "},"c":{"ha":694,"x_min":78,"x_max":635,"o":"m 396 -15 q 268 10 326 -15 q 167 79 210 35 q 101 184 125 124 q 78 317 78 244 q 101 448 78 388 q 167 553 125 508 q 268 622 210 597 q 394 647 326 647 q 534 616 472 647 q 635 529 596 585 l 572 468 l 563 458 l 556 465 q 551 486 556 476 q 529 513 546 496 q 464 551 499 540 q 383 563 429 563 q 307 546 343 563 q 242 498 271 529 q 197 422 214 467 q 181 324 181 378 q 197 224 181 269 q 243 146 214 179 q 313 94 272 113 q 401 75 354 75 q 463 84 433 75 q 518 110 492 93 q 567 153 544 128 l 625 85 q 520 10 578 35 q 396 -15 463 -15 l 396 -15 z "},"ć":{"ha":694,"x_min":78,"x_max":635,"o":"m 396 -15 q 268 10 326 -15 q 167 79 210 35 q 101 184 125 124 q 78 317 78 244 q 101 448 78 388 q 167 553 125 508 q 268 622 210 597 q 394 647 326 647 q 534 616 472 647 q 635 529 596 585 l 572 468 l 563 458 l 556 465 q 551 486 556 476 q 529 513 546 496 q 464 551 499 540 q 383 563 429 563 q 307 546 343 563 q 242 498 271 529 q 197 422 214 467 q 181 324 181 378 q 197 224 181 269 q 243 146 214 179 q 313 94 272 113 q 401 75 354 75 q 463 84 433 75 q 518 110 492 93 q 567 153 544 128 l 625 85 q 520 10 578 35 q 396 -15 463 -15 l 396 -15 z "},"č":{"ha":694,"x_min":78,"x_max":635,"o":"m 396 -15 q 268 10 326 -15 q 167 79 210 35 q 101 184 125 124 q 78 317 78 244 q 101 448 78 388 q 167 553 125 508 q 268 622 210 597 q 394 647 326 647 q 534 616 472 647 q 635 529 596 585 l 572 468 l 563 458 l 556 465 q 551 486 556 476 q 529 513 546 496 q 464 551 499 540 q 383 563 429 563 q 307 546 343 563 q 242 498 271 529 q 197 422 214 467 q 181 324 181 378 q 197 224 181 269 q 243 146 214 179 q 313 94 272 113 q 401 75 354 75 q 463 84 433 75 q 518 110 492 93 q 567 153 544 128 l 625 85 q 520 10 578 35 q 396 -15 463 -15 l 396 -15 m 242 956 l 396 803 l 550 956 l 606 908 l 413 714 l 379 714 l 186 908 l 242 956 z "},"ç":{"ha":694,"x_min":78,"x_max":635,"o":"m 396 -15 q 268 10 326 -15 q 167 79 210 35 q 101 184 125 124 q 78 317 78 244 q 101 448 78 388 q 167 553 125 508 q 268 622 210 597 q 394 647 326 647 q 534 616 472 647 q 635 529 596 585 l 572 468 l 563 458 l 556 465 q 551 486 556 476 q 529 513 546 496 q 464 551 499 540 q 383 563 429 563 q 307 546 343 563 q 242 498 271 529 q 197 422 214 467 q 181 324 181 378 q 197 224 181 269 q 243 146 214 179 q 313 94 272 113 q 401 75 354 75 q 463 84 433 75 q 518 110 492 93 q 567 153 544 128 l 625 85 q 520 10 578 35 q 396 -15 463 -15 l 396 -15 z "},"ḉ":{"ha":694,"x_min":78,"x_max":635,"o":"m 396 -15 q 268 10 326 -15 q 167 79 210 35 q 101 184 125 124 q 78 317 78 244 q 101 448 78 388 q 167 553 125 508 q 268 622 210 597 q 394 647 326 647 q 534 616 472 647 q 635 529 596 585 l 572 468 l 563 458 l 556 465 q 551 486 556 476 q 529 513 546 496 q 464 551 499 540 q 383 563 429 563 q 307 546 343 563 q 242 498 271 529 q 197 422 214 467 q 181 324 181 378 q 197 224 181 269 q 243 146 214 179 q 313 94 272 113 q 401 75 354 75 q 463 84 433 75 q 518 110 492 93 q 567 153 544 128 l 625 85 q 520 10 578 35 q 396 -15 463 -15 l 396 -15 z "},"ĉ":{"ha":694,"x_min":78,"x_max":635,"o":"m 396 -15 q 268 10 326 -15 q 167 79 210 35 q 101 184 125 124 q 78 317 78 244 q 101 448 78 388 q 167 553 125 508 q 268 622 210 597 q 394 647 326 647 q 534 616 472 647 q 635 529 596 585 l 572 468 l 563 458 l 556 465 q 551 486 556 476 q 529 513 546 496 q 464 551 499 540 q 383 563 429 563 q 307 546 343 563 q 242 498 271 529 q 197 422 214 467 q 181 324 181 378 q 197 224 181 269 q 243 146 214 179 q 313 94 272 113 q 401 75 354 75 q 463 84 433 75 q 518 110 492 93 q 567 153 544 128 l 625 85 q 520 10 578 35 q 396 -15 463 -15 l 396 -15 m 243 710 l 188 757 l 381 951 l 414 951 l 607 757 l 551 710 l 397 863 l 243 710 z "},"ċ":{"ha":694,"x_min":78,"x_max":635,"o":"m 396 -15 q 268 10 326 -15 q 167 79 210 35 q 101 184 125 124 q 78 317 78 244 q 101 448 78 388 q 167 553 125 508 q 268 622 210 597 q 394 647 326 647 q 534 616 472 647 q 635 529 596 585 l 572 468 l 563 458 l 556 465 q 551 486 556 476 q 529 513 546 496 q 464 551 499 540 q 383 563 429 563 q 307 546 343 563 q 242 498 271 529 q 197 422 214 467 q 181 324 181 378 q 197 224 181 269 q 243 146 214 179 q 313 94 272 113 q 401 75 354 75 q 463 84 433 75 q 518 110 492 93 q 567 153 544 128 l 625 85 q 520 10 578 35 q 396 -15 463 -15 l 396 -15 z "},"d":{"ha":694,"x_min":63,"x_max":624,"o":"m 325 -14 q 230 7 276 -14 q 145 69 183 28 q 85 175 107 111 q 63 324 63 239 q 86 473 63 411 q 149 574 110 535 q 235 633 188 614 q 331 651 282 651 q 410 638 375 651 q 473 599 446 624 q 515 542 500 575 l 515 924 l 607 924 l 621 924 l 621 914 q 610 896 613 906 q 608 863 608 886 l 610 99 q 612 49 610 74 q 624 0 614 25 l 525 0 q 515 33 518 17 q 512 66 513 50 q 511 99 511 82 q 464 40 492 65 q 401 0 436 14 q 325 -14 367 -14 l 325 -14 m 340 74 q 418 92 386 74 q 469 145 450 111 q 498 224 489 179 q 507 321 507 269 q 489 448 507 392 q 432 537 471 504 q 332 569 393 569 q 258 553 290 569 q 203 507 225 538 q 171 434 182 476 q 160 339 160 392 q 181 200 160 260 q 242 107 201 140 q 340 74 282 74 l 340 74 z "},"ð":{"ha":694,"x_min":56,"x_max":639,"o":"m 356 -17 q 242 8 296 -17 q 145 76 188 32 q 79 179 103 119 q 56 310 56 239 q 79 440 56 379 q 143 549 103 501 q 233 622 183 596 q 336 649 283 649 q 403 641 372 649 q 463 617 435 633 q 513 576 490 601 q 461 677 490 629 q 393 767 432 725 l 215 717 l 190 783 l 335 822 q 291 856 314 840 q 244 885 268 871 q 193 911 219 900 l 306 933 q 367 894 338 915 q 426 847 397 874 l 576 888 l 600 826 l 482 792 q 550 698 521 747 q 599 593 579 649 q 629 477 619 538 q 639 351 639 417 q 620 200 639 268 q 566 84 601 132 q 478 10 531 36 q 356 -17 425 -17 m 356 69 q 423 84 390 69 q 481 130 456 99 q 522 208 507 161 q 538 322 538 256 q 526 417 538 376 q 497 485 515 457 q 455 530 479 513 q 404 556 431 547 q 351 564 378 564 q 284 549 318 564 q 223 503 250 533 q 179 427 196 472 q 163 322 163 382 q 178 219 163 265 q 219 139 193 172 q 281 88 246 106 q 356 69 315 69 z "},"ď":{"ha":694,"x_min":49,"x_max":664,"o":"m 254 -14 q 178 4 215 -14 q 113 61 142 22 q 66 165 83 100 q 49 324 49 231 q 66 480 49 417 q 114 581 83 543 q 182 635 144 618 q 261 651 219 651 q 349 624 313 651 q 403 547 386 597 l 403 924 l 488 924 l 501 924 l 501 914 q 491 896 493 906 q 489 863 489 886 l 489 99 q 490 49 489 74 q 500 0 492 25 l 413 0 q 404 30 407 15 q 400 60 401 44 q 399 92 399 75 q 363 37 385 61 q 315 -1 342 13 q 254 -14 288 -14 l 254 -14 m 271 72 q 343 101 315 72 q 384 186 371 131 q 397 321 397 242 q 383 456 397 401 q 340 540 368 511 q 267 568 311 568 q 210 554 235 568 q 168 513 185 540 q 143 442 151 485 q 135 339 135 399 q 144 217 135 268 q 172 135 154 167 q 215 88 189 103 q 271 72 240 72 l 271 72 m 601 928 q 645 907 626 928 q 664 856 664 886 q 650 791 664 828 q 614 717 636 754 q 568 649 592 679 l 528 678 q 554 712 542 694 q 575 748 567 729 q 583 786 583 767 q 572 810 583 800 q 549 835 561 821 q 538 872 538 849 q 554 910 538 892 q 601 928 571 928 z "},"đ":{"ha":694,"x_min":63,"x_max":694,"o":"m 325 -14 q 230 7 276 -14 q 145 69 183 28 q 85 175 107 111 q 63 324 63 239 q 86 473 63 411 q 149 574 110 535 q 235 633 188 614 q 331 651 282 651 q 410 638 375 651 q 473 599 446 624 q 515 542 500 575 l 515 924 l 607 924 l 621 924 l 621 914 q 610 896 613 906 q 608 863 608 886 l 610 99 q 612 49 610 74 q 624 0 614 25 l 525 0 q 515 33 518 17 q 512 66 513 50 q 511 99 511 82 q 464 40 492 65 q 401 0 436 14 q 325 -14 367 -14 l 325 -14 m 340 74 q 418 92 386 74 q 469 145 450 111 q 498 224 489 179 q 507 321 507 269 q 489 448 507 392 q 432 537 471 504 q 332 569 393 569 q 258 553 290 569 q 203 507 225 538 q 171 434 182 476 q 160 339 160 392 q 181 200 160 260 q 242 107 201 140 q 340 74 282 74 l 340 74 m 319 722 l 319 801 l 694 801 l 694 722 l 319 722 z "},"ḍ":{"ha":694,"x_min":63,"x_max":624,"o":"m 325 -14 q 230 7 276 -14 q 145 69 183 28 q 85 175 107 111 q 63 324 63 239 q 86 473 63 411 q 149 574 110 535 q 235 633 188 614 q 331 651 282 651 q 410 638 375 651 q 473 599 446 624 q 515 542 500 575 l 515 924 l 607 924 l 621 924 l 621 914 q 610 896 613 906 q 608 863 608 886 l 610 99 q 612 49 610 74 q 624 0 614 25 l 525 0 q 515 33 518 17 q 512 66 513 50 q 511 99 511 82 q 464 40 492 65 q 401 0 436 14 q 325 -14 367 -14 l 325 -14 m 340 74 q 418 92 386 74 q 469 145 450 111 q 498 224 489 179 q 507 321 507 269 q 489 448 507 392 q 432 537 471 504 q 332 569 393 569 q 258 553 290 569 q 203 507 225 538 q 171 434 182 476 q 160 339 160 392 q 181 200 160 260 q 242 107 201 140 q 340 74 282 74 l 340 74 z "},"ḏ":{"ha":694,"x_min":63,"x_max":624,"o":"m 325 -14 q 230 7 276 -14 q 145 69 183 28 q 85 175 107 111 q 63 324 63 239 q 86 473 63 411 q 149 574 110 535 q 235 633 188 614 q 331 651 282 651 q 410 638 375 651 q 473 599 446 624 q 515 542 500 575 l 515 924 l 607 924 l 621 924 l 621 914 q 610 896 613 906 q 608 863 608 886 l 610 99 q 612 49 610 74 q 624 0 614 25 l 525 0 q 515 33 518 17 q 512 66 513 50 q 511 99 511 82 q 464 40 492 65 q 401 0 436 14 q 325 -14 367 -14 l 325 -14 m 340 74 q 418 92 386 74 q 469 145 450 111 q 498 224 489 179 q 507 321 507 269 q 489 448 507 392 q 432 537 471 504 q 332 569 393 569 q 258 553 290 569 q 203 507 225 538 q 171 434 182 476 q 160 339 160 392 q 181 200 160 260 q 242 107 201 140 q 340 74 282 74 l 340 74 z "},"e":{"ha":694,"x_min":68,"x_max":618,"o":"m 378 -14 q 251 8 308 -14 q 153 71 194 29 q 90 174 113 113 q 68 315 68 236 q 91 458 68 396 q 153 563 114 521 q 247 628 193 606 q 360 650 300 650 q 461 632 414 650 q 543 577 508 614 q 598 483 578 540 q 618 349 618 426 q 617 326 618 338 q 615 303 617 314 l 164 303 q 185 197 167 242 q 232 123 203 151 q 299 81 261 94 q 381 67 338 67 q 443 74 414 67 q 498 98 472 82 q 544 138 524 114 l 600 83 q 540 29 574 51 q 465 -3 506 7 q 378 -14 425 -14 m 168 381 l 517 381 q 505 460 517 425 q 472 522 493 496 q 420 560 450 547 q 353 574 390 574 q 290 563 319 574 q 235 527 260 551 q 192 467 210 503 q 168 381 175 431 z "},"é":{"ha":694,"x_min":68,"x_max":618,"o":"m 378 -14 q 251 8 308 -14 q 153 71 194 29 q 90 174 113 113 q 68 315 68 236 q 91 458 68 396 q 153 563 114 521 q 247 628 193 606 q 360 650 300 650 q 461 632 414 650 q 543 577 508 614 q 598 483 578 540 q 618 349 618 426 q 617 326 618 338 q 615 303 617 314 l 164 303 q 185 197 167 242 q 232 123 203 151 q 299 81 261 94 q 381 67 338 67 q 443 74 414 67 q 498 98 472 82 q 544 138 524 114 l 600 83 q 540 29 574 51 q 465 -3 506 7 q 378 -14 425 -14 m 168 381 l 517 381 q 505 460 517 425 q 472 522 493 496 q 420 560 450 547 q 353 574 390 574 q 290 563 319 574 q 235 527 260 551 q 192 467 210 503 q 168 381 175 431 z "},"ĕ":{"ha":694,"x_min":68,"x_max":618,"o":"m 378 -14 q 251 8 308 -14 q 153 71 194 29 q 90 174 113 113 q 68 315 68 236 q 91 458 68 396 q 153 563 114 521 q 247 628 193 606 q 360 650 300 650 q 461 632 414 650 q 543 577 508 614 q 598 483 578 540 q 618 349 618 426 q 617 326 618 338 q 615 303 617 314 l 164 303 q 185 197 167 242 q 232 123 203 151 q 299 81 261 94 q 381 67 338 67 q 443 74 414 67 q 498 98 472 82 q 544 138 524 114 l 600 83 q 540 29 574 51 q 465 -3 506 7 q 378 -14 425 -14 m 168 381 l 517 381 q 505 460 517 425 q 472 522 493 496 q 420 560 450 547 q 353 574 390 574 q 290 563 319 574 q 235 527 260 551 q 192 467 210 503 q 168 381 175 431 m 486 908 l 558 875 q 477 781 528 814 q 361 747 426 747 q 247 781 297 747 q 164 875 196 814 l 236 908 q 290 837 260 860 q 361 814 319 814 q 412 824 389 814 q 453 855 435 833 q 486 908 471 876 z "},"ě":{"ha":694,"x_min":68,"x_max":618,"o":"m 378 -14 q 251 8 308 -14 q 153 71 194 29 q 90 174 113 113 q 68 315 68 236 q 91 458 68 396 q 153 563 114 521 q 247 628 193 606 q 360 650 300 650 q 461 632 414 650 q 543 577 508 614 q 598 483 578 540 q 618 349 618 426 q 617 326 618 338 q 615 303 617 314 l 164 303 q 185 197 167 242 q 232 123 203 151 q 299 81 261 94 q 381 67 338 67 q 443 74 414 67 q 498 98 472 82 q 544 138 524 114 l 600 83 q 540 29 574 51 q 465 -3 506 7 q 378 -14 425 -14 m 168 381 l 517 381 q 505 460 517 425 q 472 522 493 496 q 420 560 450 547 q 353 574 390 574 q 290 563 319 574 q 235 527 260 551 q 192 467 210 503 q 168 381 175 431 m 206 956 l 360 803 l 514 956 l 569 908 l 376 714 l 343 714 l 150 908 l 206 956 z "},"ḝ":{"ha":694,"x_min":68,"x_max":618,"o":"m 378 -14 q 251 8 308 -14 q 153 71 194 29 q 90 174 113 113 q 68 315 68 236 q 91 458 68 396 q 153 563 114 521 q 247 628 193 606 q 360 650 300 650 q 461 632 414 650 q 543 577 508 614 q 598 483 578 540 q 618 349 618 426 q 617 326 618 338 q 615 303 617 314 l 164 303 q 185 197 167 242 q 232 123 203 151 q 299 81 261 94 q 381 67 338 67 q 443 74 414 67 q 498 98 472 82 q 544 138 524 114 l 600 83 q 540 29 574 51 q 465 -3 506 7 q 378 -14 425 -14 m 168 381 l 517 381 q 505 460 517 425 q 472 522 493 496 q 420 560 450 547 q 353 574 390 574 q 290 563 319 574 q 235 527 260 551 q 192 467 210 503 q 168 381 175 431 m 486 908 l 558 875 q 477 781 528 814 q 361 747 426 747 q 247 781 297 747 q 164 875 196 814 l 236 908 q 290 837 260 860 q 361 814 319 814 q 412 824 389 814 q 453 855 435 833 q 486 908 471 876 z "},"ê":{"ha":694,"x_min":68,"x_max":618,"o":"m 378 -14 q 251 8 308 -14 q 153 71 194 29 q 90 174 113 113 q 68 315 68 236 q 91 458 68 396 q 153 563 114 521 q 247 628 193 606 q 360 650 300 650 q 461 632 414 650 q 543 577 508 614 q 598 483 578 540 q 618 349 618 426 q 617 326 618 338 q 615 303 617 314 l 164 303 q 185 197 167 242 q 232 123 203 151 q 299 81 261 94 q 381 67 338 67 q 443 74 414 67 q 498 98 472 82 q 544 138 524 114 l 600 83 q 540 29 574 51 q 465 -3 506 7 q 378 -14 425 -14 m 168 381 l 517 381 q 505 460 517 425 q 472 522 493 496 q 420 560 450 547 q 353 574 390 574 q 290 563 319 574 q 235 527 260 551 q 192 467 210 503 q 168 381 175 431 m 207 710 l 151 757 l 344 951 l 378 951 l 571 757 l 515 710 l 361 863 l 207 710 z "},"ế":{"ha":694,"x_min":68,"x_max":689,"o":"m 378 -14 q 251 8 308 -14 q 153 71 194 29 q 90 174 113 113 q 68 315 68 236 q 91 458 68 396 q 153 563 114 521 q 247 628 193 606 q 360 650 300 650 q 461 632 414 650 q 543 577 508 614 q 598 483 578 540 q 618 349 618 426 q 617 326 618 338 q 615 303 617 314 l 164 303 q 185 197 167 242 q 232 123 203 151 q 299 81 261 94 q 381 67 338 67 q 443 74 414 67 q 498 98 472 82 q 544 138 524 114 l 600 83 q 540 29 574 51 q 465 -3 506 7 q 378 -14 425 -14 m 168 381 l 517 381 q 505 460 517 425 q 472 522 493 496 q 420 560 450 547 q 353 574 390 574 q 290 563 319 574 q 235 527 260 551 q 192 467 210 503 q 168 381 175 431 z "},"ệ":{"ha":694,"x_min":68,"x_max":618,"o":"m 378 -14 q 251 8 308 -14 q 153 71 194 29 q 90 174 113 113 q 68 315 68 236 q 91 458 68 396 q 153 563 114 521 q 247 628 193 606 q 360 650 300 650 q 461 632 414 650 q 543 577 508 614 q 598 483 578 540 q 618 349 618 426 q 617 326 618 338 q 615 303 617 314 l 164 303 q 185 197 167 242 q 232 123 203 151 q 299 81 261 94 q 381 67 338 67 q 443 74 414 67 q 498 98 472 82 q 544 138 524 114 l 600 83 q 540 29 574 51 q 465 -3 506 7 q 378 -14 425 -14 m 168 381 l 517 381 q 505 460 517 425 q 472 522 493 496 q 420 560 450 547 q 353 574 390 574 q 290 563 319 574 q 235 527 260 551 q 192 467 210 503 q 168 381 175 431 m 207 710 l 151 757 l 344 951 l 378 951 l 571 757 l 515 710 l 361 863 l 207 710 z "},"ề":{"ha":694,"x_min":68,"x_max":618,"o":"m 378 -14 q 251 8 308 -14 q 153 71 194 29 q 90 174 113 113 q 68 315 68 236 q 91 458 68 396 q 153 563 114 521 q 247 628 193 606 q 360 650 300 650 q 461 632 414 650 q 543 577 508 614 q 598 483 578 540 q 618 349 618 426 q 617 326 618 338 q 615 303 617 314 l 164 303 q 185 197 167 242 q 232 123 203 151 q 299 81 261 94 q 381 67 338 67 q 443 74 414 67 q 498 98 472 82 q 544 138 524 114 l 600 83 q 540 29 574 51 q 465 -3 506 7 q 378 -14 425 -14 m 168 381 l 517 381 q 505 460 517 425 q 472 522 493 496 q 420 560 450 547 q 353 574 390 574 q 290 563 319 574 q 235 527 260 551 q 192 467 210 503 q 168 381 175 431 z "},"ể":{"ha":694,"x_min":68,"x_max":647,"o":"m 378 -14 q 251 8 308 -14 q 153 71 194 29 q 90 174 113 113 q 68 315 68 236 q 91 458 68 396 q 153 563 114 521 q 247 628 193 606 q 360 650 300 650 q 461 632 414 650 q 543 577 508 614 q 598 483 578 540 q 618 349 618 426 q 617 326 618 338 q 615 303 617 314 l 164 303 q 185 197 167 242 q 232 123 203 151 q 299 81 261 94 q 381 67 338 67 q 443 74 414 67 q 498 98 472 82 q 544 138 524 114 l 600 83 q 540 29 574 51 q 465 -3 506 7 q 378 -14 425 -14 m 168 381 l 517 381 q 505 460 517 425 q 472 522 493 496 q 420 560 450 547 q 353 574 390 574 q 290 563 319 574 q 235 527 260 551 q 192 467 210 503 q 168 381 175 431 z "},"ễ":{"ha":694,"x_min":68,"x_max":618,"o":"m 378 -14 q 251 8 308 -14 q 153 71 194 29 q 90 174 113 113 q 68 315 68 236 q 91 458 68 396 q 153 563 114 521 q 247 628 193 606 q 360 650 300 650 q 461 632 414 650 q 543 577 508 614 q 598 483 578 540 q 618 349 618 426 q 617 326 618 338 q 615 303 617 314 l 164 303 q 185 197 167 242 q 232 123 203 151 q 299 81 261 94 q 381 67 338 67 q 443 74 414 67 q 498 98 472 82 q 544 138 524 114 l 600 83 q 540 29 574 51 q 465 -3 506 7 q 378 -14 425 -14 m 168 381 l 517 381 q 505 460 517 425 q 472 522 493 496 q 420 560 450 547 q 353 574 390 574 q 290 563 319 574 q 235 527 260 551 q 192 467 210 503 q 168 381 175 431 z "},"ȅ":{"ha":694,"x_min":68,"x_max":618,"o":"m 378 -14 q 251 8 308 -14 q 153 71 194 29 q 90 174 113 113 q 68 315 68 236 q 91 458 68 396 q 153 563 114 521 q 247 628 193 606 q 360 650 300 650 q 461 632 414 650 q 543 577 508 614 q 598 483 578 540 q 618 349 618 426 q 617 326 618 338 q 615 303 617 314 l 164 303 q 185 197 167 242 q 232 123 203 151 q 299 81 261 94 q 381 67 338 67 q 443 74 414 67 q 498 98 472 82 q 544 138 524 114 l 600 83 q 540 29 574 51 q 465 -3 506 7 q 378 -14 425 -14 m 168 381 l 517 381 q 505 460 517 425 q 472 522 493 496 q 420 560 450 547 q 353 574 390 574 q 290 563 319 574 q 235 527 260 551 q 192 467 210 503 q 168 381 175 431 z "},"ë":{"ha":694,"x_min":68,"x_max":618,"o":"m 378 -14 q 251 8 308 -14 q 153 71 194 29 q 90 174 113 113 q 68 315 68 236 q 91 458 68 396 q 153 563 114 521 q 247 628 193 606 q 360 650 300 650 q 461 632 414 650 q 543 577 508 614 q 598 483 578 540 q 618 349 618 426 q 617 326 618 338 q 615 303 617 314 l 164 303 q 185 197 167 242 q 232 123 203 151 q 299 81 261 94 q 381 67 338 67 q 443 74 414 67 q 498 98 472 82 q 544 138 524 114 l 600 83 q 540 29 574 51 q 465 -3 506 7 q 378 -14 425 -14 m 168 381 l 517 381 q 505 460 517 425 q 472 522 493 496 q 420 560 450 547 q 353 574 390 574 q 290 563 319 574 q 235 527 260 551 q 192 467 210 503 q 168 381 175 431 z "},"ė":{"ha":694,"x_min":68,"x_max":618,"o":"m 378 -14 q 251 8 308 -14 q 153 71 194 29 q 90 174 113 113 q 68 315 68 236 q 91 458 68 396 q 153 563 114 521 q 247 628 193 606 q 360 650 300 650 q 461 632 414 650 q 543 577 508 614 q 598 483 578 540 q 618 349 618 426 q 617 326 618 338 q 615 303 617 314 l 164 303 q 185 197 167 242 q 232 123 203 151 q 299 81 261 94 q 381 67 338 67 q 443 74 414 67 q 498 98 472 82 q 544 138 524 114 l 600 83 q 540 29 574 51 q 465 -3 506 7 q 378 -14 425 -14 m 168 381 l 517 381 q 505 460 517 425 q 472 522 493 496 q 420 560 450 547 q 353 574 390 574 q 290 563 319 574 q 235 527 260 551 q 192 467 210 503 q 168 381 175 431 z "},"ẹ":{"ha":694,"x_min":68,"x_max":618,"o":"m 378 -14 q 251 8 308 -14 q 153 71 194 29 q 90 174 113 113 q 68 315 68 236 q 91 458 68 396 q 153 563 114 521 q 247 628 193 606 q 360 650 300 650 q 461 632 414 650 q 543 577 508 614 q 598 483 578 540 q 618 349 618 426 q 617 326 618 338 q 615 303 617 314 l 164 303 q 185 197 167 242 q 232 123 203 151 q 299 81 261 94 q 381 67 338 67 q 443 74 414 67 q 498 98 472 82 q 544 138 524 114 l 600 83 q 540 29 574 51 q 465 -3 506 7 q 378 -14 425 -14 m 168 381 l 517 381 q 505 460 517 425 q 472 522 493 496 q 420 560 450 547 q 353 574 390 574 q 290 563 319 574 q 235 527 260 551 q 192 467 210 503 q 168 381 175 431 z "},"è":{"ha":694,"x_min":68,"x_max":618,"o":"m 378 -14 q 251 8 308 -14 q 153 71 194 29 q 90 174 113 113 q 68 315 68 236 q 91 458 68 396 q 153 563 114 521 q 247 628 193 606 q 360 650 300 650 q 461 632 414 650 q 543 577 508 614 q 598 483 578 540 q 618 349 618 426 q 617 326 618 338 q 615 303 617 314 l 164 303 q 185 197 167 242 q 232 123 203 151 q 299 81 261 94 q 381 67 338 67 q 443 74 414 67 q 498 98 472 82 q 544 138 524 114 l 600 83 q 540 29 574 51 q 465 -3 506 7 q 378 -14 425 -14 m 168 381 l 517 381 q 505 460 517 425 q 472 522 493 496 q 420 560 450 547 q 353 574 390 574 q 290 563 319 574 q 235 527 260 551 q 192 467 210 503 q 168 381 175 431 z "},"ẻ":{"ha":694,"x_min":68,"x_max":618,"o":"m 378 -14 q 251 8 308 -14 q 153 71 194 29 q 90 174 113 113 q 68 315 68 236 q 91 458 68 396 q 153 563 114 521 q 247 628 193 606 q 360 650 300 650 q 461 632 414 650 q 543 577 508 614 q 598 483 578 540 q 618 349 618 426 q 617 326 618 338 q 615 303 617 314 l 164 303 q 185 197 167 242 q 232 123 203 151 q 299 81 261 94 q 381 67 338 67 q 443 74 414 67 q 498 98 472 82 q 544 138 524 114 l 600 83 q 540 29 574 51 q 465 -3 506 7 q 378 -14 425 -14 m 168 381 l 517 381 q 505 460 517 425 q 472 522 493 496 q 420 560 450 547 q 353 574 390 574 q 290 563 319 574 q 235 527 260 551 q 192 467 210 503 q 168 381 175 431 m 479 875 q 467 830 479 846 q 440 803 456 814 q 413 777 425 792 q 401 736 401 763 l 401 726 l 331 726 l 331 765 q 342 797 331 783 q 367 824 353 811 q 392 848 381 836 q 403 872 403 860 q 390 901 403 892 q 360 911 378 911 q 324 903 342 911 q 299 867 307 894 l 247 919 q 301 965 272 951 q 367 978 329 978 q 423 965 397 978 q 464 930 449 953 q 479 875 479 907 z "},"ȇ":{"ha":694,"x_min":68,"x_max":618,"o":"m 378 -14 q 251 8 308 -14 q 153 71 194 29 q 90 174 113 113 q 68 315 68 236 q 91 458 68 396 q 153 563 114 521 q 247 628 193 606 q 360 650 300 650 q 461 632 414 650 q 543 577 508 614 q 598 483 578 540 q 618 349 618 426 q 617 326 618 338 q 615 303 617 314 l 164 303 q 185 197 167 242 q 232 123 203 151 q 299 81 261 94 q 381 67 338 67 q 443 74 414 67 q 498 98 472 82 q 544 138 524 114 l 600 83 q 540 29 574 51 q 465 -3 506 7 q 378 -14 425 -14 m 168 381 l 517 381 q 505 460 517 425 q 472 522 493 496 q 420 560 450 547 q 353 574 390 574 q 290 563 319 574 q 235 527 260 551 q 192 467 210 503 q 168 381 175 431 m 235 733 l 163 767 q 245 861 194 828 q 360 894 296 894 q 476 861 425 894 q 557 767 526 828 l 485 733 q 432 805 463 782 q 360 828 401 828 q 310 818 332 828 q 269 788 288 808 q 235 733 250 767 z "},"ē":{"ha":694,"x_min":68,"x_max":618,"o":"m 378 -14 q 251 8 308 -14 q 153 71 194 29 q 90 174 113 113 q 68 315 68 236 q 91 458 68 396 q 153 563 114 521 q 247 628 193 606 q 360 650 300 650 q 461 632 414 650 q 543 577 508 614 q 598 483 578 540 q 618 349 618 426 q 617 326 618 338 q 615 303 617 314 l 164 303 q 185 197 167 242 q 232 123 203 151 q 299 81 261 94 q 381 67 338 67 q 443 74 414 67 q 498 98 472 82 q 544 138 524 114 l 600 83 q 540 29 574 51 q 465 -3 506 7 q 378 -14 425 -14 m 168 381 l 517 381 q 505 460 517 425 q 472 522 493 496 q 420 560 450 547 q 353 574 390 574 q 290 563 319 574 q 235 527 260 551 q 192 467 210 503 q 168 381 175 431 z "},"ḗ":{"ha":694,"x_min":68,"x_max":618,"o":"m 378 -14 q 251 8 308 -14 q 153 71 194 29 q 90 174 113 113 q 68 315 68 236 q 91 458 68 396 q 153 563 114 521 q 247 628 193 606 q 360 650 300 650 q 461 632 414 650 q 543 577 508 614 q 598 483 578 540 q 618 349 618 426 q 617 326 618 338 q 615 303 617 314 l 164 303 q 185 197 167 242 q 232 123 203 151 q 299 81 261 94 q 381 67 338 67 q 443 74 414 67 q 498 98 472 82 q 544 138 524 114 l 600 83 q 540 29 574 51 q 465 -3 506 7 q 378 -14 425 -14 m 168 381 l 517 381 q 505 460 517 425 q 472 522 493 496 q 420 560 450 547 q 353 574 390 574 q 290 563 319 574 q 235 527 260 551 q 192 467 210 503 q 168 381 175 431 z "},"ḕ":{"ha":694,"x_min":68,"x_max":618,"o":"m 378 -14 q 251 8 308 -14 q 153 71 194 29 q 90 174 113 113 q 68 315 68 236 q 91 458 68 396 q 153 563 114 521 q 247 628 193 606 q 360 650 300 650 q 461 632 414 650 q 543 577 508 614 q 598 483 578 540 q 618 349 618 426 q 617 326 618 338 q 615 303 617 314 l 164 303 q 185 197 167 242 q 232 123 203 151 q 299 81 261 94 q 381 67 338 67 q 443 74 414 67 q 498 98 472 82 q 544 138 524 114 l 600 83 q 540 29 574 51 q 465 -3 506 7 q 378 -14 425 -14 m 168 381 l 517 381 q 505 460 517 425 q 472 522 493 496 q 420 560 450 547 q 353 574 390 574 q 290 563 319 574 q 235 527 260 551 q 192 467 210 503 q 168 381 175 431 z "},"ę":{"ha":694,"x_min":68,"x_max":618,"o":"m 378 -14 q 251 8 308 -14 q 153 71 194 29 q 90 174 113 113 q 68 315 68 236 q 91 458 68 396 q 153 563 114 521 q 247 628 193 606 q 360 650 300 650 q 461 632 414 650 q 543 577 508 614 q 598 483 578 540 q 618 349 618 426 q 617 326 618 338 q 615 303 617 314 l 164 303 q 185 197 167 242 q 232 123 203 151 q 299 81 261 94 q 381 67 338 67 q 443 74 414 67 q 498 98 472 82 q 544 138 524 114 l 600 83 q 540 29 574 51 q 465 -3 506 7 q 378 -14 425 -14 m 168 381 l 517 381 q 505 460 517 425 q 472 522 493 496 q 420 560 450 547 q 353 574 390 574 q 290 563 319 574 q 235 527 260 551 q 192 467 210 503 q 168 381 175 431 m 497 -228 l 475 -294 q 394 -272 429 -287 q 340 -230 360 -256 q 319 -169 319 -204 q 339 -95 319 -132 q 396 -23 358 -58 q 488 44 433 13 l 525 21 q 465 -37 490 -7 q 425 -96 439 -67 q 411 -150 411 -125 q 432 -200 411 -179 q 497 -228 453 -221 z "},"ʚ":{"ha":694,"x_min":63,"x_max":629,"o":"m 328 -11 q 190 18 250 -10 q 96 94 129 46 q 63 199 63 142 q 78 269 63 238 q 120 321 93 300 q 185 350 147 342 q 123 406 144 374 q 101 478 101 439 q 133 566 101 528 q 218 626 164 604 q 339 649 272 649 q 492 606 426 649 q 593 490 557 564 q 629 318 629 415 q 592 147 629 222 q 486 31 554 72 q 328 -11 418 -11 m 328 72 q 431 101 388 72 q 499 185 475 131 q 524 319 524 240 q 501 447 524 392 q 435 534 478 503 q 335 565 393 565 q 264 553 292 565 q 222 519 236 540 q 208 471 208 499 q 220 426 208 446 q 260 396 232 407 q 335 385 288 385 q 351 385 343 385 q 368 386 360 385 l 368 293 q 351 295 360 294 q 335 297 343 296 q 318 297 328 297 q 259 291 286 297 q 213 271 232 285 q 182 238 193 257 q 171 190 171 218 q 192 128 171 156 q 248 87 213 101 q 328 72 283 72 z "},"ẽ":{"ha":694,"x_min":68,"x_max":618,"o":"m 378 -14 q 251 8 308 -14 q 153 71 194 29 q 90 174 113 113 q 68 315 68 236 q 91 458 68 396 q 153 563 114 521 q 247 628 193 606 q 360 650 300 650 q 461 632 414 650 q 543 577 508 614 q 598 483 578 540 q 618 349 618 426 q 617 326 618 338 q 615 303 617 314 l 164 303 q 185 197 167 242 q 232 123 203 151 q 299 81 261 94 q 381 67 338 67 q 443 74 414 67 q 498 98 472 82 q 544 138 524 114 l 600 83 q 540 29 574 51 q 465 -3 506 7 q 378 -14 425 -14 m 168 381 l 517 381 q 505 460 517 425 q 472 522 493 496 q 420 560 450 547 q 353 574 390 574 q 290 563 319 574 q 235 527 260 551 q 192 467 210 503 q 168 381 175 431 m 535 940 l 599 901 q 540 820 568 843 q 469 797 511 797 q 415 808 439 797 q 370 835 390 819 q 330 861 350 850 q 286 872 310 872 q 244 858 263 872 q 208 807 225 844 l 140 838 q 194 917 160 885 q 283 949 229 949 q 337 938 314 949 q 379 911 360 926 q 419 885 399 896 q 464 874 439 874 q 501 888 486 874 q 535 940 515 901 z "},"ə":{"ha":694,"x_min":76,"x_max":626,"o":"m 317 649 q 443 627 386 649 q 541 564 500 606 q 604 460 582 522 q 626 319 626 399 q 603 176 626 239 q 541 72 581 114 q 449 7 501 29 q 335 -15 396 -15 q 233 3 281 -15 q 151 58 186 21 q 97 151 117 94 q 76 286 76 208 q 77 309 76 297 q 79 332 78 321 l 531 332 q 510 438 528 393 q 463 512 492 483 q 395 554 433 540 q 314 568 357 568 q 252 560 282 568 q 197 537 222 553 q 150 497 172 521 l 94 551 q 156 606 122 585 q 229 638 189 628 q 317 649 269 649 m 526 254 l 178 254 q 190 174 178 210 q 223 113 201 139 q 274 74 244 88 q 342 61 304 61 q 405 72 375 61 q 460 108 435 83 q 502 168 485 132 q 526 254 519 204 z "},"ƹ":{"ha":694,"x_min":126,"x_max":624,"o":"m 400 -246 q 249 -210 310 -246 q 157 -117 188 -175 q 126 8 126 -60 q 147 115 126 65 q 204 203 167 165 q 293 264 242 242 q 407 286 344 286 l 497 286 l 497 214 q 386 207 436 217 q 301 174 336 197 q 246 110 265 150 q 226 15 226 71 q 248 -78 226 -37 q 310 -140 269 -118 q 410 -162 351 -162 q 476 -151 450 -162 q 525 -118 503 -140 q 545 -91 540 -100 q 549 -71 550 -82 l 556 -62 l 565 -72 l 624 -147 q 522 -221 579 -196 q 400 -246 465 -246 l 400 -246 m 150 547 l 150 635 l 574 635 l 574 547 l 258 547 l 497 286 l 400 281 l 150 547 z "},"f":{"ha":694,"x_min":88,"x_max":657,"o":"m 225 556 l 88 556 l 88 635 l 225 635 l 225 688 q 255 826 225 772 q 338 906 285 881 q 458 932 390 932 q 570 910 518 932 q 657 844 622 889 l 604 771 l 596 760 l 588 765 q 582 788 586 776 q 563 815 578 799 q 518 843 540 835 q 461 851 496 851 q 389 835 421 851 q 339 784 357 819 q 321 688 321 749 l 321 635 l 529 635 l 529 556 l 321 556 l 321 0 l 225 0 l 225 556 z "},"g":{"ha":694,"x_min":53,"x_max":660,"o":"m 343 -239 q 223 -228 276 -239 q 131 -198 169 -218 q 73 -147 93 -178 q 53 -75 53 -117 q 69 -6 53 -36 q 113 45 86 25 q 172 75 140 65 l 214 50 q 174 19 189 35 q 151 -16 158 4 q 144 -64 144 -36 q 158 -106 144 -87 q 198 -137 172 -125 q 260 -157 224 -150 q 344 -164 297 -164 q 448 -151 408 -164 q 507 -115 488 -137 q 526 -62 526 -92 q 515 -12 526 -32 q 469 17 504 7 q 364 26 435 26 q 275 31 315 26 q 203 44 235 35 q 149 69 171 54 q 117 104 128 83 q 106 153 106 125 q 126 222 106 189 q 181 286 146 256 l 228 249 q 206 222 214 233 q 194 199 197 210 q 190 176 190 189 q 208 140 190 154 q 268 120 225 126 q 385 114 311 114 q 504 102 458 114 q 574 68 550 90 q 608 17 599 46 q 618 -47 618 -12 q 603 -119 618 -85 q 557 -180 589 -153 q 472 -223 525 -207 q 343 -239 419 -239 m 314 215 q 196 245 246 215 q 119 326 146 275 q 92 438 92 376 q 119 549 92 499 q 196 628 146 599 q 314 658 246 658 q 433 628 383 658 q 509 549 482 599 q 536 438 536 499 q 509 326 536 376 q 433 245 482 275 q 314 215 383 215 m 314 299 q 385 317 354 299 q 435 368 417 336 q 453 438 453 400 q 435 508 453 476 q 385 558 417 539 q 314 576 354 576 q 242 558 274 576 q 193 508 211 539 q 175 438 175 476 q 193 368 175 400 q 242 317 211 336 q 314 299 274 299 m 499 532 l 460 578 q 544 637 500 618 q 647 651 588 656 l 660 569 q 574 567 614 574 q 499 532 533 560 z "},"ğ":{"ha":694,"x_min":53,"x_max":660,"o":"m 343 -239 q 223 -228 276 -239 q 131 -198 169 -218 q 73 -147 93 -178 q 53 -75 53 -117 q 69 -6 53 -36 q 113 45 86 25 q 172 75 140 65 l 214 50 q 174 19 189 35 q 151 -16 158 4 q 144 -64 144 -36 q 158 -106 144 -87 q 198 -137 172 -125 q 260 -157 224 -150 q 344 -164 297 -164 q 448 -151 408 -164 q 507 -115 488 -137 q 526 -62 526 -92 q 515 -12 526 -32 q 469 17 504 7 q 364 26 435 26 q 275 31 315 26 q 203 44 235 35 q 149 69 171 54 q 117 104 128 83 q 106 153 106 125 q 126 222 106 189 q 181 286 146 256 l 228 249 q 206 222 214 233 q 194 199 197 210 q 190 176 190 189 q 208 140 190 154 q 268 120 225 126 q 385 114 311 114 q 504 102 458 114 q 574 68 550 90 q 608 17 599 46 q 618 -47 618 -12 q 603 -119 618 -85 q 557 -180 589 -153 q 472 -223 525 -207 q 343 -239 419 -239 m 314 215 q 196 245 246 215 q 119 326 146 275 q 92 438 92 376 q 119 549 92 499 q 196 628 146 599 q 314 658 246 658 q 433 628 383 658 q 509 549 482 599 q 536 438 536 499 q 509 326 536 376 q 433 245 482 275 q 314 215 383 215 m 314 299 q 385 317 354 299 q 435 368 417 336 q 453 438 453 400 q 435 508 453 476 q 385 558 417 539 q 314 576 354 576 q 242 558 274 576 q 193 508 211 539 q 175 438 175 476 q 193 368 175 400 q 242 317 211 336 q 314 299 274 299 m 499 532 l 460 578 q 544 637 500 618 q 647 651 588 656 l 660 569 q 574 567 614 574 q 499 532 533 560 m 361 728 q 249 755 301 728 q 153 835 197 782 l 203 897 q 270 828 229 856 q 360 800 311 800 q 445 824 404 800 q 525 897 486 849 l 564 839 q 506 781 539 806 q 437 742 474 756 q 361 728 400 728 z "},"ǧ":{"ha":694,"x_min":53,"x_max":660,"o":"m 343 -239 q 223 -228 276 -239 q 131 -198 169 -218 q 73 -147 93 -178 q 53 -75 53 -117 q 69 -6 53 -36 q 113 45 86 25 q 172 75 140 65 l 214 50 q 174 19 189 35 q 151 -16 158 4 q 144 -64 144 -36 q 158 -106 144 -87 q 198 -137 172 -125 q 260 -157 224 -150 q 344 -164 297 -164 q 448 -151 408 -164 q 507 -115 488 -137 q 526 -62 526 -92 q 515 -12 526 -32 q 469 17 504 7 q 364 26 435 26 q 275 31 315 26 q 203 44 235 35 q 149 69 171 54 q 117 104 128 83 q 106 153 106 125 q 126 222 106 189 q 181 286 146 256 l 228 249 q 206 222 214 233 q 194 199 197 210 q 190 176 190 189 q 208 140 190 154 q 268 120 225 126 q 385 114 311 114 q 504 102 458 114 q 574 68 550 90 q 608 17 599 46 q 618 -47 618 -12 q 603 -119 618 -85 q 557 -180 589 -153 q 472 -223 525 -207 q 343 -239 419 -239 m 314 215 q 196 245 246 215 q 119 326 146 275 q 92 438 92 376 q 119 549 92 499 q 196 628 146 599 q 314 658 246 658 q 433 628 383 658 q 509 549 482 599 q 536 438 536 499 q 509 326 536 376 q 433 245 482 275 q 314 215 383 215 m 314 299 q 385 317 354 299 q 435 368 417 336 q 453 438 453 400 q 435 508 453 476 q 385 558 417 539 q 314 576 354 576 q 242 558 274 576 q 193 508 211 539 q 175 438 175 476 q 193 368 175 400 q 242 317 211 336 q 314 299 274 299 m 499 532 l 460 578 q 544 637 500 618 q 647 651 588 656 l 660 569 q 574 567 614 574 q 499 532 533 560 m 158 956 l 313 803 l 467 956 l 522 908 l 329 714 l 296 714 l 103 908 l 158 956 z "},"ĝ":{"ha":694,"x_min":53,"x_max":660,"o":"m 343 -239 q 223 -228 276 -239 q 131 -198 169 -218 q 73 -147 93 -178 q 53 -75 53 -117 q 69 -6 53 -36 q 113 45 86 25 q 172 75 140 65 l 214 50 q 174 19 189 35 q 151 -16 158 4 q 144 -64 144 -36 q 158 -106 144 -87 q 198 -137 172 -125 q 260 -157 224 -150 q 344 -164 297 -164 q 448 -151 408 -164 q 507 -115 488 -137 q 526 -62 526 -92 q 515 -12 526 -32 q 469 17 504 7 q 364 26 435 26 q 275 31 315 26 q 203 44 235 35 q 149 69 171 54 q 117 104 128 83 q 106 153 106 125 q 126 222 106 189 q 181 286 146 256 l 228 249 q 206 222 214 233 q 194 199 197 210 q 190 176 190 189 q 208 140 190 154 q 268 120 225 126 q 385 114 311 114 q 504 102 458 114 q 574 68 550 90 q 608 17 599 46 q 618 -47 618 -12 q 603 -119 618 -85 q 557 -180 589 -153 q 472 -223 525 -207 q 343 -239 419 -239 m 314 215 q 196 245 246 215 q 119 326 146 275 q 92 438 92 376 q 119 549 92 499 q 196 628 146 599 q 314 658 246 658 q 433 628 383 658 q 509 549 482 599 q 536 438 536 499 q 509 326 536 376 q 433 245 482 275 q 314 215 383 215 m 314 299 q 385 317 354 299 q 435 368 417 336 q 453 438 453 400 q 435 508 453 476 q 385 558 417 539 q 314 576 354 576 q 242 558 274 576 q 193 508 211 539 q 175 438 175 476 q 193 368 175 400 q 242 317 211 336 q 314 299 274 299 m 499 532 l 460 578 q 544 637 500 618 q 647 651 588 656 l 660 569 q 574 567 614 574 q 499 532 533 560 m 160 710 l 104 757 l 297 951 l 331 951 l 524 757 l 468 710 l 314 863 l 160 710 z "},"ģ":{"ha":694,"x_min":53,"x_max":660,"o":"m 343 -239 q 223 -228 276 -239 q 131 -198 169 -218 q 73 -147 93 -178 q 53 -75 53 -117 q 69 -6 53 -36 q 113 45 86 25 q 172 75 140 65 l 214 50 q 174 19 189 35 q 151 -16 158 4 q 144 -64 144 -36 q 158 -106 144 -87 q 198 -137 172 -125 q 260 -157 224 -150 q 344 -164 297 -164 q 448 -151 408 -164 q 507 -115 488 -137 q 526 -62 526 -92 q 515 -12 526 -32 q 469 17 504 7 q 364 26 435 26 q 275 31 315 26 q 203 44 235 35 q 149 69 171 54 q 117 104 128 83 q 106 153 106 125 q 126 222 106 189 q 181 286 146 256 l 228 249 q 206 222 214 233 q 194 199 197 210 q 190 176 190 189 q 208 140 190 154 q 268 120 225 126 q 385 114 311 114 q 504 102 458 114 q 574 68 550 90 q 608 17 599 46 q 618 -47 618 -12 q 603 -119 618 -85 q 557 -180 589 -153 q 472 -223 525 -207 q 343 -239 419 -239 m 314 215 q 196 245 246 215 q 119 326 146 275 q 92 438 92 376 q 119 549 92 499 q 196 628 146 599 q 314 658 246 658 q 433 628 383 658 q 509 549 482 599 q 536 438 536 499 q 509 326 536 376 q 433 245 482 275 q 314 215 383 215 m 314 299 q 385 317 354 299 q 435 368 417 336 q 453 438 453 400 q 435 508 453 476 q 385 558 417 539 q 314 576 354 576 q 242 558 274 576 q 193 508 211 539 q 175 438 175 476 q 193 368 175 400 q 242 317 211 336 q 314 299 274 299 m 499 532 l 460 578 q 544 637 500 618 q 647 651 588 656 l 660 569 q 574 567 614 574 q 499 532 533 560 m 365 1126 l 413 1085 q 348 1007 374 1049 q 322 939 322 965 q 333 913 322 925 q 358 890 343 901 q 383 865 372 879 q 393 832 393 851 q 370 774 393 797 q 311 750 347 750 q 246 782 275 750 q 217 865 217 814 q 226 923 217 893 q 253 985 235 953 q 300 1053 272 1018 q 365 1126 328 1089 z "},"ġ":{"ha":694,"x_min":53,"x_max":660,"o":"m 343 -239 q 223 -228 276 -239 q 131 -198 169 -218 q 73 -147 93 -178 q 53 -75 53 -117 q 69 -6 53 -36 q 113 45 86 25 q 172 75 140 65 l 214 50 q 174 19 189 35 q 151 -16 158 4 q 144 -64 144 -36 q 158 -106 144 -87 q 198 -137 172 -125 q 260 -157 224 -150 q 344 -164 297 -164 q 448 -151 408 -164 q 507 -115 488 -137 q 526 -62 526 -92 q 515 -12 526 -32 q 469 17 504 7 q 364 26 435 26 q 275 31 315 26 q 203 44 235 35 q 149 69 171 54 q 117 104 128 83 q 106 153 106 125 q 126 222 106 189 q 181 286 146 256 l 228 249 q 206 222 214 233 q 194 199 197 210 q 190 176 190 189 q 208 140 190 154 q 268 120 225 126 q 385 114 311 114 q 504 102 458 114 q 574 68 550 90 q 608 17 599 46 q 618 -47 618 -12 q 603 -119 618 -85 q 557 -180 589 -153 q 472 -223 525 -207 q 343 -239 419 -239 m 314 215 q 196 245 246 215 q 119 326 146 275 q 92 438 92 376 q 119 549 92 499 q 196 628 146 599 q 314 658 246 658 q 433 628 383 658 q 509 549 482 599 q 536 438 536 499 q 509 326 536 376 q 433 245 482 275 q 314 215 383 215 m 314 299 q 385 317 354 299 q 435 368 417 336 q 453 438 453 400 q 435 508 453 476 q 385 558 417 539 q 314 576 354 576 q 242 558 274 576 q 193 508 211 539 q 175 438 175 476 q 193 368 175 400 q 242 317 211 336 q 314 299 274 299 m 499 532 l 460 578 q 544 637 500 618 q 647 651 588 656 l 660 569 q 574 567 614 574 q 499 532 533 560 z "},"ḡ":{"ha":694,"x_min":53,"x_max":660,"o":"m 343 -239 q 223 -228 276 -239 q 131 -198 169 -218 q 73 -147 93 -178 q 53 -75 53 -117 q 69 -6 53 -36 q 113 45 86 25 q 172 75 140 65 l 214 50 q 174 19 189 35 q 151 -16 158 4 q 144 -64 144 -36 q 158 -106 144 -87 q 198 -137 172 -125 q 260 -157 224 -150 q 344 -164 297 -164 q 448 -151 408 -164 q 507 -115 488 -137 q 526 -62 526 -92 q 515 -12 526 -32 q 469 17 504 7 q 364 26 435 26 q 275 31 315 26 q 203 44 235 35 q 149 69 171 54 q 117 104 128 83 q 106 153 106 125 q 126 222 106 189 q 181 286 146 256 l 228 249 q 206 222 214 233 q 194 199 197 210 q 190 176 190 189 q 208 140 190 154 q 268 120 225 126 q 385 114 311 114 q 504 102 458 114 q 574 68 550 90 q 608 17 599 46 q 618 -47 618 -12 q 603 -119 618 -85 q 557 -180 589 -153 q 472 -223 525 -207 q 343 -239 419 -239 m 314 215 q 196 245 246 215 q 119 326 146 275 q 92 438 92 376 q 119 549 92 499 q 196 628 146 599 q 314 658 246 658 q 433 628 383 658 q 509 549 482 599 q 536 438 536 499 q 509 326 536 376 q 433 245 482 275 q 314 215 383 215 m 314 299 q 385 317 354 299 q 435 368 417 336 q 453 438 453 400 q 435 508 453 476 q 385 558 417 539 q 314 576 354 576 q 242 558 274 576 q 193 508 211 539 q 175 438 175 476 q 193 368 175 400 q 242 317 211 336 q 314 299 274 299 m 499 532 l 460 578 q 544 637 500 618 q 647 651 588 656 l 660 569 q 574 567 614 574 q 499 532 533 560 z "},"h":{"ha":694,"x_min":101,"x_max":600,"o":"m 101 924 l 197 924 l 211 924 l 211 914 q 201 896 203 906 q 199 863 199 886 l 199 522 q 258 590 224 561 q 330 634 292 618 q 407 650 368 650 q 508 624 464 650 q 576 539 551 597 q 600 385 600 481 l 600 0 l 503 0 l 503 382 q 488 488 503 449 q 446 545 472 528 q 386 563 419 563 q 335 554 361 563 q 284 529 308 546 q 240 488 260 513 q 210 433 221 464 q 199 365 199 403 l 199 0 l 101 0 l 101 924 z "},"ħ":{"ha":694,"x_min":0,"x_max":600,"o":"m 101 924 l 197 924 l 211 924 l 211 914 q 201 896 203 906 q 199 863 199 886 l 199 522 q 258 590 224 561 q 330 634 292 618 q 407 650 368 650 q 508 624 464 650 q 576 539 551 597 q 600 385 600 481 l 600 0 l 503 0 l 503 382 q 488 488 503 449 q 446 545 472 528 q 386 563 419 563 q 335 554 361 563 q 284 529 308 546 q 240 488 260 513 q 210 433 221 464 q 199 365 199 403 l 199 0 l 101 0 l 101 924 m 0 722 l 0 801 l 375 801 l 375 722 l 0 722 z "},"ḫ":{"ha":694,"x_min":101,"x_max":600,"o":"m 101 924 l 197 924 l 211 924 l 211 914 q 201 896 203 906 q 199 863 199 886 l 199 522 q 258 590 224 561 q 330 634 292 618 q 407 650 368 650 q 508 624 464 650 q 576 539 551 597 q 600 385 600 481 l 600 0 l 503 0 l 503 382 q 488 488 503 449 q 446 545 472 528 q 386 563 419 563 q 335 554 361 563 q 284 529 308 546 q 240 488 260 513 q 210 433 221 464 q 199 365 199 403 l 199 0 l 101 0 l 101 924 z "},"ĥ":{"ha":694,"x_min":-56,"x_max":600,"o":"m 101 924 l 197 924 l 211 924 l 211 914 q 201 896 203 906 q 199 863 199 886 l 199 522 q 258 590 224 561 q 330 634 292 618 q 407 650 368 650 q 508 624 464 650 q 576 539 551 597 q 600 385 600 481 l 600 0 l 503 0 l 503 382 q 488 488 503 449 q 446 545 472 528 q 386 563 419 563 q 335 554 361 563 q 284 529 308 546 q 240 488 260 513 q 210 433 221 464 q 199 365 199 403 l 199 0 l 101 0 l 101 924 m -10 968 l -56 1021 l 143 1157 l 174 1157 l 383 1019 l 342 969 l 161 1067 l -10 968 z "},"ḥ":{"ha":694,"x_min":101,"x_max":600,"o":"m 101 924 l 197 924 l 211 924 l 211 914 q 201 896 203 906 q 199 863 199 886 l 199 522 q 258 590 224 561 q 330 634 292 618 q 407 650 368 650 q 508 624 464 650 q 576 539 551 597 q 600 385 600 481 l 600 0 l 503 0 l 503 382 q 488 488 503 449 q 446 545 472 528 q 386 563 419 563 q 335 554 361 563 q 284 529 308 546 q 240 488 260 513 q 210 433 221 464 q 199 365 199 403 l 199 0 l 101 0 l 101 924 z "},"i":{"ha":694,"x_min":139,"x_max":550,"o":"m 139 0 l 139 81 l 301 81 l 301 554 l 147 554 l 147 635 l 401 635 l 401 81 l 550 81 l 550 0 l 139 0 z "},"ı":{"ha":694,"x_min":139,"x_max":550,"o":"m 139 0 l 139 81 l 301 81 l 301 554 l 147 554 l 147 635 l 401 635 l 401 81 l 550 81 l 550 0 l 139 0 z "},"í":{"ha":694,"x_min":139,"x_max":550,"o":"m 139 0 l 139 81 l 301 81 l 301 554 l 147 554 l 147 635 l 401 635 l 401 81 l 550 81 l 550 0 l 139 0 m 342 725 l 289 761 l 406 968 l 482 913 l 342 725 z "},"ĭ":{"ha":694,"x_min":139,"x_max":550,"o":"m 139 0 l 139 81 l 301 81 l 301 554 l 147 554 l 147 635 l 401 635 l 401 81 l 550 81 l 550 0 l 139 0 m 472 908 l 544 875 q 463 781 514 814 q 347 747 413 747 q 233 781 283 747 q 150 875 182 814 l 222 908 q 276 837 246 860 q 347 814 306 814 q 398 824 375 814 q 439 855 421 833 q 472 908 457 876 z "},"î":{"ha":694,"x_min":138,"x_max":557,"o":"m 139 0 l 139 81 l 301 81 l 301 554 l 147 554 l 147 635 l 401 635 l 401 81 l 550 81 l 550 0 l 139 0 m 193 710 l 138 757 l 331 951 l 364 951 l 557 757 l 501 710 l 347 863 l 193 710 z "},"ȉ":{"ha":694,"x_min":103,"x_max":550,"o":"m 139 0 l 139 81 l 301 81 l 301 554 l 147 554 l 147 635 l 401 635 l 401 81 l 550 81 l 550 0 l 139 0 z "},"ï":{"ha":694,"x_min":139,"x_max":550,"o":"m 139 0 l 139 81 l 301 81 l 301 554 l 147 554 l 147 635 l 401 635 l 401 81 l 550 81 l 550 0 l 139 0 m 215 783 q 165 804 186 783 q 144 853 144 825 q 165 902 144 881 q 215 924 186 924 q 264 903 243 924 q 285 853 285 882 q 264 804 285 825 q 215 783 243 783 m 463 783 q 413 803 433 783 q 393 853 393 824 q 413 903 393 882 q 463 924 433 924 q 511 903 490 924 q 532 853 532 882 q 511 804 532 825 q 463 783 490 783 z "},"ḯ":{"ha":694,"x_min":139,"x_max":550,"o":"m 139 0 l 139 81 l 301 81 l 301 554 l 147 554 l 147 635 l 401 635 l 401 81 l 550 81 l 550 0 l 139 0 z "},"ị":{"ha":694,"x_min":139,"x_max":550,"o":"m 139 0 l 139 81 l 301 81 l 301 554 l 147 554 l 147 635 l 401 635 l 401 81 l 550 81 l 550 0 l 139 0 z "},"ì":{"ha":694,"x_min":139,"x_max":550,"o":"m 139 0 l 139 81 l 301 81 l 301 554 l 147 554 l 147 635 l 401 635 l 401 81 l 550 81 l 550 0 l 139 0 z "},"ỉ":{"ha":694,"x_min":139,"x_max":550,"o":"m 139 0 l 139 81 l 301 81 l 301 554 l 147 554 l 147 635 l 401 635 l 401 81 l 550 81 l 550 0 l 139 0 m 465 875 q 453 830 465 846 q 426 803 442 814 q 399 777 411 792 q 388 736 388 763 l 388 726 l 317 726 l 317 765 q 328 797 317 783 q 353 824 339 811 q 378 848 367 836 q 389 872 389 860 q 376 901 389 892 q 346 911 364 911 q 310 903 328 911 q 285 867 293 894 l 233 919 q 287 965 258 951 q 353 978 315 978 q 409 965 383 978 q 450 930 435 953 q 465 875 465 907 z "},"ȋ":{"ha":694,"x_min":139,"x_max":550,"o":"m 139 0 l 139 81 l 301 81 l 301 554 l 147 554 l 147 635 l 401 635 l 401 81 l 550 81 l 550 0 l 139 0 m 221 733 l 149 767 q 231 861 181 828 q 346 894 282 894 q 462 861 411 894 q 543 767 513 828 l 471 733 q 418 805 449 782 q 346 828 388 828 q 296 818 318 828 q 255 788 274 808 q 221 733 236 767 z "},"ī":{"ha":694,"x_min":139,"x_max":550,"o":"m 139 0 l 139 81 l 301 81 l 301 554 l 147 554 l 147 635 l 401 635 l 401 81 l 550 81 l 550 0 l 139 0 z "},"į":{"ha":694,"x_min":139,"x_max":550,"o":"m 139 0 l 139 81 l 301 81 l 301 554 l 147 554 l 147 635 l 401 635 l 401 81 l 550 81 l 550 0 l 139 0 m 522 -249 l 500 -315 q 419 -292 454 -308 q 365 -251 385 -276 q 344 -190 344 -225 q 364 -116 344 -153 q 421 -44 383 -79 q 513 24 458 -8 l 550 0 q 490 -58 515 -28 q 450 -117 464 -87 q 436 -171 436 -146 q 457 -221 436 -200 q 522 -249 478 -242 z "},"ĩ":{"ha":694,"x_min":139,"x_max":550,"o":"m 139 0 l 139 81 l 301 81 l 301 554 l 147 554 l 147 635 l 401 635 l 401 81 l 550 81 l 550 0 l 139 0 m 482 932 l 546 901 q 492 820 519 843 q 428 797 464 797 q 382 808 403 797 q 343 835 361 819 q 308 861 325 850 q 275 872 292 872 q 240 858 257 872 q 213 814 224 843 l 149 844 q 198 920 164 892 q 267 949 232 949 q 315 938 292 949 q 358 911 338 926 q 395 885 378 896 q 428 874 413 874 q 456 888 443 874 q 482 932 469 901 z "},"j":{"ha":694,"x_min":67,"x_max":526,"o":"m 269 -242 q 156 -219 210 -242 q 67 -153 103 -197 l 122 -78 l 131 -67 l 139 -72 q 146 -94 142 -83 q 165 -121 150 -104 q 210 -146 185 -136 q 268 -156 236 -156 q 342 -137 310 -156 q 393 -78 375 -118 q 411 25 411 -39 l 411 553 l 175 553 l 175 635 l 513 635 l 513 31 q 479 -126 513 -65 q 391 -214 446 -186 q 269 -242 336 -242 l 269 -242 z "},"ȷ":{"ha":694,"x_min":67,"x_max":513,"o":"m 269 -242 q 156 -219 210 -242 q 67 -153 103 -197 l 122 -78 l 131 -67 l 139 -72 q 146 -94 142 -83 q 165 -121 150 -104 q 210 -146 185 -136 q 268 -156 236 -156 q 342 -137 310 -156 q 393 -78 375 -118 q 411 25 411 -39 l 411 553 l 175 553 l 175 635 l 513 635 l 513 31 q 479 -126 513 -65 q 391 -214 446 -186 q 269 -242 336 -242 l 269 -242 z "},"ĵ":{"ha":694,"x_min":67,"x_max":665,"o":"m 269 -242 q 156 -219 210 -242 q 67 -153 103 -197 l 122 -78 l 131 -67 l 139 -72 q 146 -94 142 -83 q 165 -121 150 -104 q 210 -146 185 -136 q 268 -156 236 -156 q 342 -137 310 -156 q 393 -78 375 -118 q 411 25 411 -39 l 411 553 l 175 553 l 175 635 l 513 635 l 513 31 q 479 -126 513 -65 q 391 -214 446 -186 q 269 -242 336 -242 l 269 -242 m 301 710 l 246 757 l 439 951 l 472 951 l 665 757 l 610 710 l 456 863 l 301 710 z "},"k":{"ha":694,"x_min":92,"x_max":665,"o":"m 276 318 l 193 240 l 193 0 l 92 0 l 92 924 l 192 924 l 206 924 l 206 914 q 195 896 197 906 q 193 863 193 886 l 193 343 l 511 638 q 528 635 519 636 q 545 633 536 633 q 565 631 554 632 q 585 631 575 631 l 621 631 l 354 379 l 665 0 l 536 -6 l 276 318 z "},"ķ":{"ha":694,"x_min":92,"x_max":665,"o":"m 276 318 l 193 240 l 193 0 l 92 0 l 92 924 l 192 924 l 206 924 l 206 914 q 195 896 197 906 q 193 863 193 886 l 193 343 l 511 638 q 528 635 519 636 q 545 633 536 633 q 565 631 554 632 q 585 631 575 631 l 621 631 l 354 379 l 665 0 l 536 -6 l 276 318 m 307 -382 l 265 -344 q 322 -275 299 -312 q 346 -214 346 -237 q 330 -183 346 -197 q 298 -155 314 -169 q 282 -117 282 -140 q 303 -65 282 -86 q 356 -43 324 -43 q 415 -72 389 -43 q 440 -147 440 -101 q 426 -217 440 -181 q 381 -295 411 -254 q 307 -382 351 -336 z "},"ĸ":{"ha":694,"x_min":92,"x_max":665,"o":"m 276 318 l 193 240 l 193 0 l 92 0 l 92 635 l 192 635 l 206 635 l 206 625 q 195 607 197 617 q 193 574 193 597 l 193 343 l 511 638 q 528 635 519 636 q 545 633 536 633 q 565 631 554 632 q 585 631 575 631 l 621 631 l 354 379 l 665 0 l 536 -6 l 276 318 z "},"l":{"ha":694,"x_min":110,"x_max":585,"o":"m 110 0 l 110 81 l 297 81 l 297 843 l 118 843 l 118 924 l 399 924 l 399 81 l 585 81 l 585 0 l 110 0 z "},"ĺ":{"ha":694,"x_min":110,"x_max":585,"o":"m 110 0 l 110 81 l 297 81 l 297 843 l 118 843 l 118 924 l 399 924 l 399 81 l 585 81 l 585 0 l 110 0 z "},"ľ":{"ha":694,"x_min":110,"x_max":635,"o":"m 110 0 l 110 81 l 297 81 l 297 843 l 118 843 l 118 924 l 399 924 l 399 81 l 585 81 l 585 0 l 110 0 m 517 631 l 478 664 q 516 706 500 683 q 541 748 532 728 q 550 782 550 768 q 542 802 550 793 q 522 820 533 811 q 501 840 510 829 q 493 867 493 851 q 512 913 493 894 q 560 932 531 932 q 612 906 589 932 q 635 840 635 881 q 622 777 635 811 q 583 707 608 743 q 517 631 557 671 z "},"ļ":{"ha":694,"x_min":110,"x_max":585,"o":"m 110 0 l 110 81 l 297 81 l 297 843 l 118 843 l 118 924 l 399 924 l 399 81 l 585 81 l 585 0 l 110 0 m 307 -382 l 265 -344 q 322 -275 299 -312 q 346 -214 346 -237 q 330 -183 346 -197 q 298 -155 314 -169 q 282 -117 282 -140 q 303 -65 282 -86 q 356 -43 324 -43 q 415 -72 389 -43 q 440 -147 440 -101 q 426 -217 440 -181 q 381 -295 411 -254 q 307 -382 351 -336 z "},"ŀ":{"ha":694,"x_min":96,"x_max":622,"o":"m 96 0 l 96 81 l 256 81 l 256 843 l 104 843 l 104 924 l 357 924 l 357 81 l 571 81 l 571 0 l 96 0 m 539 381 q 481 403 504 381 q 457 460 457 426 q 482 516 457 493 q 539 539 507 539 q 597 516 571 539 q 622 460 622 493 q 598 404 622 428 q 539 381 574 381 z "},"ḷ":{"ha":694,"x_min":110,"x_max":585,"o":"m 110 0 l 110 81 l 297 81 l 297 843 l 118 843 l 118 924 l 399 924 l 399 81 l 585 81 l 585 0 l 110 0 z "},"ǉ":{"ha":694,"x_min":26,"x_max":603,"o":"m 344 -242 q 235 -219 283 -242 q 150 -153 186 -197 l 215 -67 q 225 -82 222 -74 q 232 -99 228 -90 q 248 -118 236 -108 q 286 -140 260 -128 q 317 -151 301 -147 q 351 -156 333 -156 q 426 -137 393 -156 q 476 -78 458 -118 q 494 25 494 -39 l 494 553 l 300 553 l 300 635 l 596 635 l 596 31 q 576 -92 596 -42 q 523 -175 557 -143 q 443 -223 489 -207 q 344 -242 397 -239 m 26 0 l 26 81 l 117 81 l 117 843 l 35 843 l 35 924 l 218 924 l 218 81 l 390 81 l 390 0 l 26 0 m 531 768 q 481 789 501 768 q 460 839 460 810 q 480 890 460 869 q 531 911 500 911 q 581 890 560 911 q 603 839 603 868 q 581 789 603 810 q 531 768 560 768 z "},"ḻ":{"ha":694,"x_min":110,"x_max":585,"o":"m 110 0 l 110 81 l 297 81 l 297 843 l 118 843 l 118 924 l 399 924 l 399 81 l 585 81 l 585 0 l 110 0 z "},"ł":{"ha":694,"x_min":110,"x_max":585,"o":"m 110 0 l 110 81 l 297 81 l 297 388 l 188 350 l 188 442 l 297 479 l 297 843 l 118 843 l 118 924 l 399 924 l 399 514 l 525 560 l 525 464 l 399 421 l 399 81 l 585 81 l 585 0 l 110 0 z "},"m":{"ha":694,"x_min":53,"x_max":653,"o":"m 53 0 l 53 635 l 144 635 l 144 572 q 180 613 160 596 q 224 640 200 631 q 274 650 249 650 q 325 638 301 650 q 365 606 349 626 q 386 557 381 585 q 420 606 399 585 q 470 638 442 626 q 529 650 499 650 q 585 638 561 650 q 624 603 608 625 q 646 552 639 582 q 651 488 653 522 l 651 0 l 560 0 l 560 450 q 552 535 560 508 q 531 569 544 561 q 500 576 517 576 q 451 552 474 576 q 413 492 428 528 q 399 419 399 456 l 399 0 l 306 0 l 306 442 q 291 547 306 521 q 236 574 276 574 q 205 563 221 574 q 175 534 189 553 q 153 488 161 515 q 144 424 144 460 l 144 0 l 53 0 z "},"ṃ":{"ha":694,"x_min":53,"x_max":653,"o":"m 53 0 l 53 635 l 144 635 l 144 572 q 180 613 160 596 q 224 640 200 631 q 274 650 249 650 q 325 638 301 650 q 365 606 349 626 q 386 557 381 585 q 420 606 399 585 q 470 638 442 626 q 529 650 499 650 q 585 638 561 650 q 624 603 608 625 q 646 552 639 582 q 651 488 653 522 l 651 0 l 560 0 l 560 450 q 552 535 560 508 q 531 569 544 561 q 500 576 517 576 q 451 552 474 576 q 413 492 428 528 q 399 419 399 456 l 399 0 l 306 0 l 306 442 q 291 547 306 521 q 236 574 276 574 q 205 563 221 574 q 175 534 189 553 q 153 488 161 515 q 144 424 144 460 l 144 0 l 53 0 z "},"n":{"ha":694,"x_min":100,"x_max":599,"o":"m 100 0 l 100 635 l 197 635 l 197 522 q 256 590 222 561 q 329 634 289 618 q 413 650 369 650 q 507 624 465 650 q 574 539 549 597 q 599 385 599 481 l 599 0 l 501 0 l 501 382 q 486 488 501 449 q 444 545 471 528 q 385 563 418 563 q 320 549 353 563 q 260 509 288 535 q 215 447 232 483 q 197 365 197 411 l 197 0 l 100 0 z "},"ń":{"ha":694,"x_min":100,"x_max":599,"o":"m 100 0 l 100 635 l 197 635 l 197 522 q 256 590 222 561 q 329 634 289 618 q 413 650 369 650 q 507 624 465 650 q 574 539 549 597 q 599 385 599 481 l 599 0 l 501 0 l 501 382 q 486 488 501 449 q 444 545 471 528 q 385 563 418 563 q 320 549 353 563 q 260 509 288 535 q 215 447 232 483 q 197 365 197 411 l 197 0 l 100 0 z "},"ň":{"ha":694,"x_min":100,"x_max":599,"o":"m 100 0 l 100 635 l 197 635 l 197 522 q 256 590 222 561 q 329 634 289 618 q 413 650 369 650 q 507 624 465 650 q 574 539 549 597 q 599 385 599 481 l 599 0 l 501 0 l 501 382 q 486 488 501 449 q 444 545 471 528 q 385 563 418 563 q 320 549 353 563 q 260 509 288 535 q 215 447 232 483 q 197 365 197 411 l 197 0 l 100 0 m 213 956 l 367 803 l 521 956 l 576 908 l 383 714 l 350 714 l 157 908 l 213 956 z "},"ņ":{"ha":694,"x_min":100,"x_max":599,"o":"m 100 0 l 100 635 l 197 635 l 197 522 q 256 590 222 561 q 329 634 289 618 q 413 650 369 650 q 507 624 465 650 q 574 539 549 597 q 599 385 599 481 l 599 0 l 501 0 l 501 382 q 486 488 501 449 q 444 545 471 528 q 385 563 418 563 q 320 549 353 563 q 260 509 288 535 q 215 447 232 483 q 197 365 197 411 l 197 0 l 100 0 m 321 -382 l 279 -344 q 336 -275 313 -312 q 360 -214 360 -237 q 344 -183 360 -197 q 312 -155 328 -169 q 296 -117 296 -140 q 317 -65 296 -86 q 369 -43 338 -43 q 428 -72 403 -43 q 454 -147 454 -101 q 440 -217 454 -181 q 395 -295 425 -254 q 321 -382 365 -336 z "},"ṅ":{"ha":694,"x_min":100,"x_max":599,"o":"m 100 0 l 100 635 l 197 635 l 197 522 q 256 590 222 561 q 329 634 289 618 q 413 650 369 650 q 507 624 465 650 q 574 539 549 597 q 599 385 599 481 l 599 0 l 501 0 l 501 382 q 486 488 501 449 q 444 545 471 528 q 385 563 418 563 q 320 549 353 563 q 260 509 288 535 q 215 447 232 483 q 197 365 197 411 l 197 0 l 100 0 z "},"ṇ":{"ha":694,"x_min":100,"x_max":599,"o":"m 100 0 l 100 635 l 197 635 l 197 522 q 256 590 222 561 q 329 634 289 618 q 413 650 369 650 q 507 624 465 650 q 574 539 549 597 q 599 385 599 481 l 599 0 l 501 0 l 501 382 q 486 488 501 449 q 444 545 471 528 q 385 563 418 563 q 320 549 353 563 q 260 509 288 535 q 215 447 232 483 q 197 365 197 411 l 197 0 l 100 0 z "},"ŋ":{"ha":694,"x_min":94,"x_max":600,"o":"m 364 -244 q 294 -233 328 -244 q 229 -197 260 -221 l 276 -104 q 284 -112 281 -106 q 296 -128 288 -119 q 321 -144 304 -137 q 367 -151 338 -151 q 442 -128 413 -151 q 487 -56 472 -104 q 501 63 501 -8 l 501 382 q 492 467 501 432 q 467 522 483 501 q 431 553 451 543 q 385 563 410 563 q 332 553 358 563 q 281 528 306 544 q 238 487 257 511 q 208 432 219 463 q 197 365 197 401 l 197 0 l 94 0 l 94 635 l 197 635 l 197 522 q 239 575 215 551 q 290 615 263 599 q 346 641 317 632 q 404 650 375 650 q 482 635 446 650 q 544 590 518 621 q 585 508 571 558 q 600 385 600 457 l 600 78 q 582 -68 600 -7 q 532 -168 564 -129 q 457 -226 500 -207 q 364 -244 414 -244 z "},"ṉ":{"ha":694,"x_min":100,"x_max":599,"o":"m 100 0 l 100 635 l 197 635 l 197 522 q 256 590 222 561 q 329 634 289 618 q 413 650 369 650 q 507 624 465 650 q 574 539 549 597 q 599 385 599 481 l 599 0 l 501 0 l 501 382 q 486 488 501 449 q 444 545 471 528 q 385 563 418 563 q 320 549 353 563 q 260 509 288 535 q 215 447 232 483 q 197 365 197 411 l 197 0 l 100 0 z "},"ñ":{"ha":694,"x_min":100,"x_max":606,"o":"m 100 0 l 100 635 l 197 635 l 197 522 q 256 590 222 561 q 329 634 289 618 q 413 650 369 650 q 507 624 465 650 q 574 539 549 597 q 599 385 599 481 l 599 0 l 501 0 l 501 382 q 486 488 501 449 q 444 545 471 528 q 385 563 418 563 q 320 549 353 563 q 260 509 288 535 q 215 447 232 483 q 197 365 197 411 l 197 0 l 100 0 m 542 940 l 606 901 q 547 820 575 843 q 476 797 518 797 q 422 808 446 797 q 377 835 397 819 q 337 861 357 850 q 293 872 317 872 q 251 858 269 872 q 215 807 232 844 l 147 838 q 201 917 167 885 q 290 949 236 949 q 344 938 321 949 q 386 911 367 926 q 426 885 406 896 q 471 874 446 874 q 508 888 493 874 q 542 940 522 901 z "},"o":{"ha":694,"x_min":54,"x_max":640,"o":"m 347 -11 q 195 31 261 -11 q 92 148 129 74 q 54 318 54 222 q 92 490 54 415 q 195 606 129 564 q 347 649 261 649 q 499 606 433 649 q 603 490 565 564 q 640 318 640 415 q 603 148 640 222 q 499 31 565 74 q 347 -11 433 -11 m 347 72 q 444 104 403 72 q 510 192 486 136 q 535 319 535 247 q 510 447 535 392 q 444 534 486 503 q 347 565 403 565 q 251 534 293 565 q 184 447 208 503 q 160 319 160 392 q 184 192 160 247 q 251 104 208 136 q 347 72 293 72 z "},"ó":{"ha":694,"x_min":54,"x_max":640,"o":"m 347 -11 q 195 31 261 -11 q 92 148 129 74 q 54 318 54 222 q 92 490 54 415 q 195 606 129 564 q 347 649 261 649 q 499 606 433 649 q 603 490 565 564 q 640 318 640 415 q 603 148 640 222 q 499 31 565 74 q 347 -11 433 -11 m 347 72 q 444 104 403 72 q 510 192 486 136 q 535 319 535 247 q 510 447 535 392 q 444 534 486 503 q 347 565 403 565 q 251 534 293 565 q 184 447 208 503 q 160 319 160 392 q 184 192 160 247 q 251 104 208 136 q 347 72 293 72 z "},"ŏ":{"ha":694,"x_min":54,"x_max":640,"o":"m 347 -11 q 195 31 261 -11 q 92 148 129 74 q 54 318 54 222 q 92 490 54 415 q 195 606 129 564 q 347 649 261 649 q 499 606 433 649 q 603 490 565 564 q 640 318 640 415 q 603 148 640 222 q 499 31 565 74 q 347 -11 433 -11 m 347 72 q 444 104 403 72 q 510 192 486 136 q 535 319 535 247 q 510 447 535 392 q 444 534 486 503 q 347 565 403 565 q 251 534 293 565 q 184 447 208 503 q 160 319 160 392 q 184 192 160 247 q 251 104 208 136 q 347 72 293 72 m 472 908 l 544 875 q 463 781 514 814 q 347 747 413 747 q 233 781 283 747 q 150 875 182 814 l 222 908 q 276 837 246 860 q 347 814 306 814 q 398 824 375 814 q 439 855 421 833 q 472 908 457 876 z "},"ô":{"ha":694,"x_min":54,"x_max":640,"o":"m 347 -11 q 195 31 261 -11 q 92 148 129 74 q 54 318 54 222 q 92 490 54 415 q 195 606 129 564 q 347 649 261 649 q 499 606 433 649 q 603 490 565 564 q 640 318 640 415 q 603 148 640 222 q 499 31 565 74 q 347 -11 433 -11 m 347 72 q 444 104 403 72 q 510 192 486 136 q 535 319 535 247 q 510 447 535 392 q 444 534 486 503 q 347 565 403 565 q 251 534 293 565 q 184 447 208 503 q 160 319 160 392 q 184 192 160 247 q 251 104 208 136 q 347 72 293 72 m 193 710 l 138 757 l 331 951 l 364 951 l 557 757 l 501 710 l 347 863 l 193 710 z "},"ố":{"ha":694,"x_min":54,"x_max":675,"o":"m 347 -11 q 195 31 261 -11 q 92 148 129 74 q 54 318 54 222 q 92 490 54 415 q 195 606 129 564 q 347 649 261 649 q 499 606 433 649 q 603 490 565 564 q 640 318 640 415 q 603 148 640 222 q 499 31 565 74 q 347 -11 433 -11 m 347 72 q 444 104 403 72 q 510 192 486 136 q 535 319 535 247 q 510 447 535 392 q 444 534 486 503 q 347 565 403 565 q 251 534 293 565 q 184 447 208 503 q 160 319 160 392 q 184 192 160 247 q 251 104 208 136 q 347 72 293 72 z "},"ộ":{"ha":694,"x_min":54,"x_max":640,"o":"m 347 -11 q 195 31 261 -11 q 92 148 129 74 q 54 318 54 222 q 92 490 54 415 q 195 606 129 564 q 347 649 261 649 q 499 606 433 649 q 603 490 565 564 q 640 318 640 415 q 603 148 640 222 q 499 31 565 74 q 347 -11 433 -11 m 347 72 q 444 104 403 72 q 510 192 486 136 q 535 319 535 247 q 510 447 535 392 q 444 534 486 503 q 347 565 403 565 q 251 534 293 565 q 184 447 208 503 q 160 319 160 392 q 184 192 160 247 q 251 104 208 136 q 347 72 293 72 m 193 710 l 138 757 l 331 951 l 364 951 l 557 757 l 501 710 l 347 863 l 193 710 z "},"ồ":{"ha":694,"x_min":54,"x_max":640,"o":"m 347 -11 q 195 31 261 -11 q 92 148 129 74 q 54 318 54 222 q 92 490 54 415 q 195 606 129 564 q 347 649 261 649 q 499 606 433 649 q 603 490 565 564 q 640 318 640 415 q 603 148 640 222 q 499 31 565 74 q 347 -11 433 -11 m 347 72 q 444 104 403 72 q 510 192 486 136 q 535 319 535 247 q 510 447 535 392 q 444 534 486 503 q 347 565 403 565 q 251 534 293 565 q 184 447 208 503 q 160 319 160 392 q 184 192 160 247 q 251 104 208 136 q 347 72 293 72 z "},"ổ":{"ha":694,"x_min":54,"x_max":640,"o":"m 347 -11 q 195 31 261 -11 q 92 148 129 74 q 54 318 54 222 q 92 490 54 415 q 195 606 129 564 q 347 649 261 649 q 499 606 433 649 q 603 490 565 564 q 640 318 640 415 q 603 148 640 222 q 499 31 565 74 q 347 -11 433 -11 m 347 72 q 444 104 403 72 q 510 192 486 136 q 535 319 535 247 q 510 447 535 392 q 444 534 486 503 q 347 565 403 565 q 251 534 293 565 q 184 447 208 503 q 160 319 160 392 q 184 192 160 247 q 251 104 208 136 q 347 72 293 72 z "},"ỗ":{"ha":694,"x_min":54,"x_max":640,"o":"m 347 -11 q 195 31 261 -11 q 92 148 129 74 q 54 318 54 222 q 92 490 54 415 q 195 606 129 564 q 347 649 261 649 q 499 606 433 649 q 603 490 565 564 q 640 318 640 415 q 603 148 640 222 q 499 31 565 74 q 347 -11 433 -11 m 347 72 q 444 104 403 72 q 510 192 486 136 q 535 319 535 247 q 510 447 535 392 q 444 534 486 503 q 347 565 403 565 q 251 534 293 565 q 184 447 208 503 q 160 319 160 392 q 184 192 160 247 q 251 104 208 136 q 347 72 293 72 z "},"ȍ":{"ha":694,"x_min":54,"x_max":640,"o":"m 347 -11 q 195 31 261 -11 q 92 148 129 74 q 54 318 54 222 q 92 490 54 415 q 195 606 129 564 q 347 649 261 649 q 499 606 433 649 q 603 490 565 564 q 640 318 640 415 q 603 148 640 222 q 499 31 565 74 q 347 -11 433 -11 m 347 72 q 444 104 403 72 q 510 192 486 136 q 535 319 535 247 q 510 447 535 392 q 444 534 486 503 q 347 565 403 565 q 251 534 293 565 q 184 447 208 503 q 160 319 160 392 q 184 192 160 247 q 251 104 208 136 q 347 72 293 72 z "},"ö":{"ha":694,"x_min":54,"x_max":640,"o":"m 347 -11 q 195 31 261 -11 q 92 148 129 74 q 54 318 54 222 q 92 490 54 415 q 195 606 129 564 q 347 649 261 649 q 499 606 433 649 q 603 490 565 564 q 640 318 640 415 q 603 148 640 222 q 499 31 565 74 q 347 -11 433 -11 m 347 72 q 444 104 403 72 q 510 192 486 136 q 535 319 535 247 q 510 447 535 392 q 444 534 486 503 q 347 565 403 565 q 251 534 293 565 q 184 447 208 503 q 160 319 160 392 q 184 192 160 247 q 251 104 208 136 q 347 72 293 72 z "},"ȫ":{"ha":694,"x_min":54,"x_max":640,"o":"m 347 -11 q 195 31 261 -11 q 92 148 129 74 q 54 318 54 222 q 92 490 54 415 q 195 606 129 564 q 347 649 261 649 q 499 606 433 649 q 603 490 565 564 q 640 318 640 415 q 603 148 640 222 q 499 31 565 74 q 347 -11 433 -11 m 347 72 q 444 104 403 72 q 510 192 486 136 q 535 319 535 247 q 510 447 535 392 q 444 534 486 503 q 347 565 403 565 q 251 534 293 565 q 184 447 208 503 q 160 319 160 392 q 184 192 160 247 q 251 104 208 136 q 347 72 293 72 z "},"ȱ":{"ha":694,"x_min":54,"x_max":640,"o":"m 347 -11 q 195 31 261 -11 q 92 148 129 74 q 54 318 54 222 q 92 490 54 415 q 195 606 129 564 q 347 649 261 649 q 499 606 433 649 q 603 490 565 564 q 640 318 640 415 q 603 148 640 222 q 499 31 565 74 q 347 -11 433 -11 m 347 72 q 444 104 403 72 q 510 192 486 136 q 535 319 535 247 q 510 447 535 392 q 444 534 486 503 q 347 565 403 565 q 251 534 293 565 q 184 447 208 503 q 160 319 160 392 q 184 192 160 247 q 251 104 208 136 q 347 72 293 72 z "},"ọ":{"ha":694,"x_min":54,"x_max":640,"o":"m 347 -11 q 195 31 261 -11 q 92 148 129 74 q 54 318 54 222 q 92 490 54 415 q 195 606 129 564 q 347 649 261 649 q 499 606 433 649 q 603 490 565 564 q 640 318 640 415 q 603 148 640 222 q 499 31 565 74 q 347 -11 433 -11 m 347 72 q 444 104 403 72 q 510 192 486 136 q 535 319 535 247 q 510 447 535 392 q 444 534 486 503 q 347 565 403 565 q 251 534 293 565 q 184 447 208 503 q 160 319 160 392 q 184 192 160 247 q 251 104 208 136 q 347 72 293 72 z "},"ò":{"ha":694,"x_min":54,"x_max":640,"o":"m 347 -11 q 195 31 261 -11 q 92 148 129 74 q 54 318 54 222 q 92 490 54 415 q 195 606 129 564 q 347 649 261 649 q 499 606 433 649 q 603 490 565 564 q 640 318 640 415 q 603 148 640 222 q 499 31 565 74 q 347 -11 433 -11 m 347 72 q 444 104 403 72 q 510 192 486 136 q 535 319 535 247 q 510 447 535 392 q 444 534 486 503 q 347 565 403 565 q 251 534 293 565 q 184 447 208 503 q 160 319 160 392 q 184 192 160 247 q 251 104 208 136 q 347 72 293 72 z "},"ỏ":{"ha":694,"x_min":54,"x_max":640,"o":"m 347 -11 q 195 31 261 -11 q 92 148 129 74 q 54 318 54 222 q 92 490 54 415 q 195 606 129 564 q 347 649 261 649 q 499 606 433 649 q 603 490 565 564 q 640 318 640 415 q 603 148 640 222 q 499 31 565 74 q 347 -11 433 -11 m 347 72 q 444 104 403 72 q 510 192 486 136 q 535 319 535 247 q 510 447 535 392 q 444 534 486 503 q 347 565 403 565 q 251 534 293 565 q 184 447 208 503 q 160 319 160 392 q 184 192 160 247 q 251 104 208 136 q 347 72 293 72 m 465 875 q 453 830 465 846 q 426 803 442 814 q 399 777 411 792 q 388 736 388 763 l 388 726 l 317 726 l 317 765 q 328 797 317 783 q 353 824 339 811 q 378 848 367 836 q 389 872 389 860 q 376 901 389 892 q 346 911 364 911 q 310 903 328 911 q 285 867 293 894 l 233 919 q 287 965 258 951 q 353 978 315 978 q 409 965 383 978 q 450 930 435 953 q 465 875 465 907 z "},"ơ":{"ha":694,"x_min":54,"x_max":640,"o":"m 347 -11 q 195 31 261 -11 q 92 148 129 74 q 54 318 54 222 q 92 490 54 415 q 195 606 129 564 q 347 649 261 649 q 499 606 433 649 q 603 490 565 564 q 640 318 640 415 q 603 148 640 222 q 499 31 565 74 q 347 -11 433 -11 m 347 72 q 444 104 403 72 q 510 192 486 136 q 535 319 535 247 q 510 447 535 392 q 444 534 486 503 q 347 565 403 565 q 251 534 293 565 q 184 447 208 503 q 160 319 160 392 q 184 192 160 247 q 251 104 208 136 q 347 72 293 72 m 629 722 q 619 615 629 656 q 582 556 610 574 q 499 538 554 538 l 499 606 q 531 628 521 606 q 540 722 540 650 l 629 722 z "},"ớ":{"ha":694,"x_min":54,"x_max":640,"o":"m 347 -11 q 195 31 261 -11 q 92 148 129 74 q 54 318 54 222 q 92 490 54 415 q 195 606 129 564 q 347 649 261 649 q 499 606 433 649 q 603 490 565 564 q 640 318 640 415 q 603 148 640 222 q 499 31 565 74 q 347 -11 433 -11 m 347 72 q 444 104 403 72 q 510 192 486 136 q 535 319 535 247 q 510 447 535 392 q 444 534 486 503 q 347 565 403 565 q 251 534 293 565 q 184 447 208 503 q 160 319 160 392 q 184 192 160 247 q 251 104 208 136 q 347 72 293 72 m 629 722 q 619 615 629 656 q 582 556 610 574 q 499 538 554 538 l 499 606 q 531 628 521 606 q 540 722 540 650 l 629 722 z "},"ợ":{"ha":694,"x_min":54,"x_max":640,"o":"m 347 -11 q 195 31 261 -11 q 92 148 129 74 q 54 318 54 222 q 92 490 54 415 q 195 606 129 564 q 347 649 261 649 q 499 606 433 649 q 603 490 565 564 q 640 318 640 415 q 603 148 640 222 q 499 31 565 74 q 347 -11 433 -11 m 347 72 q 444 104 403 72 q 510 192 486 136 q 535 319 535 247 q 510 447 535 392 q 444 534 486 503 q 347 565 403 565 q 251 534 293 565 q 184 447 208 503 q 160 319 160 392 q 184 192 160 247 q 251 104 208 136 q 347 72 293 72 m 629 722 q 619 615 629 656 q 582 556 610 574 q 499 538 554 538 l 499 606 q 531 628 521 606 q 540 722 540 650 l 629 722 z "},"ờ":{"ha":694,"x_min":54,"x_max":640,"o":"m 347 -11 q 195 31 261 -11 q 92 148 129 74 q 54 318 54 222 q 92 490 54 415 q 195 606 129 564 q 347 649 261 649 q 499 606 433 649 q 603 490 565 564 q 640 318 640 415 q 603 148 640 222 q 499 31 565 74 q 347 -11 433 -11 m 347 72 q 444 104 403 72 q 510 192 486 136 q 535 319 535 247 q 510 447 535 392 q 444 534 486 503 q 347 565 403 565 q 251 534 293 565 q 184 447 208 503 q 160 319 160 392 q 184 192 160 247 q 251 104 208 136 q 347 72 293 72 m 629 722 q 619 615 629 656 q 582 556 610 574 q 499 538 554 538 l 499 606 q 531 628 521 606 q 540 722 540 650 l 629 722 z "},"ở":{"ha":694,"x_min":54,"x_max":640,"o":"m 347 -11 q 195 31 261 -11 q 92 148 129 74 q 54 318 54 222 q 92 490 54 415 q 195 606 129 564 q 347 649 261 649 q 499 606 433 649 q 603 490 565 564 q 640 318 640 415 q 603 148 640 222 q 499 31 565 74 q 347 -11 433 -11 m 347 72 q 444 104 403 72 q 510 192 486 136 q 535 319 535 247 q 510 447 535 392 q 444 534 486 503 q 347 565 403 565 q 251 534 293 565 q 184 447 208 503 q 160 319 160 392 q 184 192 160 247 q 251 104 208 136 q 347 72 293 72 m 629 722 q 619 615 629 656 q 582 556 610 574 q 499 538 554 538 l 499 606 q 531 628 521 606 q 540 722 540 650 l 629 722 m 465 875 q 453 830 465 846 q 426 803 442 814 q 399 777 411 792 q 388 736 388 763 l 388 726 l 317 726 l 317 765 q 328 797 317 783 q 353 824 339 811 q 378 848 367 836 q 389 872 389 860 q 376 901 389 892 q 346 911 364 911 q 310 903 328 911 q 285 867 293 894 l 233 919 q 287 965 258 951 q 353 978 315 978 q 409 965 383 978 q 450 930 435 953 q 465 875 465 907 z "},"ỡ":{"ha":694,"x_min":54,"x_max":640,"o":"m 347 -11 q 195 31 261 -11 q 92 148 129 74 q 54 318 54 222 q 92 490 54 415 q 195 606 129 564 q 347 649 261 649 q 499 606 433 649 q 603 490 565 564 q 640 318 640 415 q 603 148 640 222 q 499 31 565 74 q 347 -11 433 -11 m 347 72 q 444 104 403 72 q 510 192 486 136 q 535 319 535 247 q 510 447 535 392 q 444 534 486 503 q 347 565 403 565 q 251 534 293 565 q 184 447 208 503 q 160 319 160 392 q 184 192 160 247 q 251 104 208 136 q 347 72 293 72 m 629 722 q 619 615 629 656 q 582 556 610 574 q 499 538 554 538 l 499 606 q 531 628 521 606 q 540 722 540 650 l 629 722 m 521 940 l 585 901 q 526 820 554 843 q 456 797 497 797 q 401 808 425 797 q 356 835 376 819 q 316 861 336 850 q 272 872 296 872 q 230 858 249 872 q 194 807 211 844 l 126 838 q 181 917 146 885 q 269 949 215 949 q 323 938 300 949 q 365 911 346 926 q 405 885 385 896 q 450 874 425 874 q 487 888 472 874 q 521 940 501 901 z "},"ő":{"ha":694,"x_min":54,"x_max":640,"o":"m 347 -11 q 195 31 261 -11 q 92 148 129 74 q 54 318 54 222 q 92 490 54 415 q 195 606 129 564 q 347 649 261 649 q 499 606 433 649 q 603 490 565 564 q 640 318 640 415 q 603 148 640 222 q 499 31 565 74 q 347 -11 433 -11 m 347 72 q 444 104 403 72 q 510 192 486 136 q 535 319 535 247 q 510 447 535 392 q 444 534 486 503 q 347 565 403 565 q 251 534 293 565 q 184 447 208 503 q 160 319 160 392 q 184 192 160 247 q 251 104 208 136 q 347 72 293 72 z "},"ȏ":{"ha":694,"x_min":54,"x_max":640,"o":"m 347 -11 q 195 31 261 -11 q 92 148 129 74 q 54 318 54 222 q 92 490 54 415 q 195 606 129 564 q 347 649 261 649 q 499 606 433 649 q 603 490 565 564 q 640 318 640 415 q 603 148 640 222 q 499 31 565 74 q 347 -11 433 -11 m 347 72 q 444 104 403 72 q 510 192 486 136 q 535 319 535 247 q 510 447 535 392 q 444 534 486 503 q 347 565 403 565 q 251 534 293 565 q 184 447 208 503 q 160 319 160 392 q 184 192 160 247 q 251 104 208 136 q 347 72 293 72 m 221 733 l 149 767 q 231 861 181 828 q 346 894 282 894 q 462 861 411 894 q 543 767 513 828 l 471 733 q 418 805 449 782 q 346 828 388 828 q 296 818 318 828 q 255 788 274 808 q 221 733 236 767 z "},"ō":{"ha":694,"x_min":54,"x_max":640,"o":"m 347 -11 q 195 31 261 -11 q 92 148 129 74 q 54 318 54 222 q 92 490 54 415 q 195 606 129 564 q 347 649 261 649 q 499 606 433 649 q 603 490 565 564 q 640 318 640 415 q 603 148 640 222 q 499 31 565 74 q 347 -11 433 -11 m 347 72 q 444 104 403 72 q 510 192 486 136 q 535 319 535 247 q 510 447 535 392 q 444 534 486 503 q 347 565 403 565 q 251 534 293 565 q 184 447 208 503 q 160 319 160 392 q 184 192 160 247 q 251 104 208 136 q 347 72 293 72 z "},"ṓ":{"ha":694,"x_min":54,"x_max":640,"o":"m 347 -11 q 195 31 261 -11 q 92 148 129 74 q 54 318 54 222 q 92 490 54 415 q 195 606 129 564 q 347 649 261 649 q 499 606 433 649 q 603 490 565 564 q 640 318 640 415 q 603 148 640 222 q 499 31 565 74 q 347 -11 433 -11 m 347 72 q 444 104 403 72 q 510 192 486 136 q 535 319 535 247 q 510 447 535 392 q 444 534 486 503 q 347 565 403 565 q 251 534 293 565 q 184 447 208 503 q 160 319 160 392 q 184 192 160 247 q 251 104 208 136 q 347 72 293 72 z "},"ṑ":{"ha":694,"x_min":54,"x_max":640,"o":"m 347 -11 q 195 31 261 -11 q 92 148 129 74 q 54 318 54 222 q 92 490 54 415 q 195 606 129 564 q 347 649 261 649 q 499 606 433 649 q 603 490 565 564 q 640 318 640 415 q 603 148 640 222 q 499 31 565 74 q 347 -11 433 -11 m 347 72 q 444 104 403 72 q 510 192 486 136 q 535 319 535 247 q 510 447 535 392 q 444 534 486 503 q 347 565 403 565 q 251 534 293 565 q 184 447 208 503 q 160 319 160 392 q 184 192 160 247 q 251 104 208 136 q 347 72 293 72 z "},"ǫ":{"ha":694,"x_min":54,"x_max":640,"o":"m 347 -11 q 195 31 261 -11 q 92 148 129 74 q 54 318 54 222 q 92 490 54 415 q 195 606 129 564 q 347 649 261 649 q 499 606 433 649 q 603 490 565 564 q 640 318 640 415 q 603 148 640 222 q 499 31 565 74 q 347 -11 433 -11 m 347 72 q 444 104 403 72 q 510 192 486 136 q 535 319 535 247 q 510 447 535 392 q 444 534 486 503 q 347 565 403 565 q 251 534 293 565 q 184 447 208 503 q 160 319 160 392 q 184 192 160 247 q 251 104 208 136 q 347 72 293 72 m 439 -235 l 417 -301 q 336 -278 371 -294 q 281 -237 301 -262 q 261 -176 261 -211 q 281 -102 261 -139 q 338 -30 300 -65 q 429 38 375 6 l 467 14 q 406 -44 432 -14 q 367 -103 381 -74 q 353 -157 353 -132 q 374 -207 353 -186 q 439 -235 394 -228 z "},"ø":{"ha":694,"x_min":54,"x_max":640,"o":"m 168 -87 l 97 -50 l 517 721 l 592 682 l 168 -87 m 347 -11 q 195 31 261 -11 q 92 148 129 74 q 54 318 54 222 q 92 490 54 415 q 195 606 129 564 q 347 649 261 649 q 499 606 433 649 q 603 490 565 564 q 640 318 640 415 q 603 148 640 222 q 499 31 565 74 q 347 -11 433 -11 m 347 72 q 444 104 403 72 q 510 192 486 136 q 535 319 535 247 q 510 447 535 392 q 444 534 486 503 q 347 565 403 565 q 251 534 293 565 q 184 447 208 503 q 160 319 160 392 q 184 192 160 247 q 251 104 208 136 q 347 72 293 72 z "},"ǿ":{"ha":694,"x_min":54,"x_max":640,"o":"m 168 -87 l 97 -50 l 517 721 l 592 682 l 168 -87 m 347 -11 q 195 31 261 -11 q 92 148 129 74 q 54 318 54 222 q 92 490 54 415 q 195 606 129 564 q 347 649 261 649 q 499 606 433 649 q 603 490 565 564 q 640 318 640 415 q 603 148 640 222 q 499 31 565 74 q 347 -11 433 -11 m 347 72 q 444 104 403 72 q 510 192 486 136 q 535 319 535 247 q 510 447 535 392 q 444 534 486 503 q 347 565 403 565 q 251 534 293 565 q 184 447 208 503 q 160 319 160 392 q 184 192 160 247 q 251 104 208 136 q 347 72 293 72 z "},"õ":{"ha":694,"x_min":54,"x_max":640,"o":"m 347 -11 q 195 31 261 -11 q 92 148 129 74 q 54 318 54 222 q 92 490 54 415 q 195 606 129 564 q 347 649 261 649 q 499 606 433 649 q 603 490 565 564 q 640 318 640 415 q 603 148 640 222 q 499 31 565 74 q 347 -11 433 -11 m 347 72 q 444 104 403 72 q 510 192 486 136 q 535 319 535 247 q 510 447 535 392 q 444 534 486 503 q 347 565 403 565 q 251 534 293 565 q 184 447 208 503 q 160 319 160 392 q 184 192 160 247 q 251 104 208 136 q 347 72 293 72 m 521 940 l 585 901 q 526 820 554 843 q 456 797 497 797 q 401 808 425 797 q 356 835 376 819 q 316 861 336 850 q 272 872 296 872 q 230 858 249 872 q 194 807 211 844 l 126 838 q 181 917 146 885 q 269 949 215 949 q 323 938 300 949 q 365 911 346 926 q 405 885 385 896 q 450 874 425 874 q 487 888 472 874 q 521 940 501 901 z "},"ṍ":{"ha":694,"x_min":54,"x_max":640,"o":"m 347 -11 q 195 31 261 -11 q 92 148 129 74 q 54 318 54 222 q 92 490 54 415 q 195 606 129 564 q 347 649 261 649 q 499 606 433 649 q 603 490 565 564 q 640 318 640 415 q 603 148 640 222 q 499 31 565 74 q 347 -11 433 -11 m 347 72 q 444 104 403 72 q 510 192 486 136 q 535 319 535 247 q 510 447 535 392 q 444 534 486 503 q 347 565 403 565 q 251 534 293 565 q 184 447 208 503 q 160 319 160 392 q 184 192 160 247 q 251 104 208 136 q 347 72 293 72 m 521 940 l 585 901 q 526 820 554 843 q 456 797 497 797 q 401 808 425 797 q 356 835 376 819 q 316 861 336 850 q 272 872 296 872 q 230 858 249 872 q 194 807 211 844 l 126 838 q 181 917 146 885 q 269 949 215 949 q 323 938 300 949 q 365 911 346 926 q 405 885 385 896 q 450 874 425 874 q 487 888 472 874 q 521 940 501 901 z "},"ṏ":{"ha":694,"x_min":54,"x_max":640,"o":"m 347 -11 q 195 31 261 -11 q 92 148 129 74 q 54 318 54 222 q 92 490 54 415 q 195 606 129 564 q 347 649 261 649 q 499 606 433 649 q 603 490 565 564 q 640 318 640 415 q 603 148 640 222 q 499 31 565 74 q 347 -11 433 -11 m 347 72 q 444 104 403 72 q 510 192 486 136 q 535 319 535 247 q 510 447 535 392 q 444 534 486 503 q 347 565 403 565 q 251 534 293 565 q 184 447 208 503 q 160 319 160 392 q 184 192 160 247 q 251 104 208 136 q 347 72 293 72 m 521 940 l 585 901 q 526 820 554 843 q 456 797 497 797 q 401 808 425 797 q 356 835 376 819 q 316 861 336 850 q 272 872 296 872 q 230 858 249 872 q 194 807 211 844 l 126 838 q 181 917 146 885 q 269 949 215 949 q 323 938 300 949 q 365 911 346 926 q 405 885 385 896 q 450 874 425 874 q 487 888 472 874 q 521 940 501 901 z "},"ȭ":{"ha":694,"x_min":54,"x_max":640,"o":"m 347 -11 q 195 31 261 -11 q 92 148 129 74 q 54 318 54 222 q 92 490 54 415 q 195 606 129 564 q 347 649 261 649 q 499 606 433 649 q 603 490 565 564 q 640 318 640 415 q 603 148 640 222 q 499 31 565 74 q 347 -11 433 -11 m 347 72 q 444 104 403 72 q 510 192 486 136 q 535 319 535 247 q 510 447 535 392 q 444 534 486 503 q 347 565 403 565 q 251 534 293 565 q 184 447 208 503 q 160 319 160 392 q 184 192 160 247 q 251 104 208 136 q 347 72 293 72 m 521 940 l 585 901 q 526 820 554 843 q 456 797 497 797 q 401 808 425 797 q 356 835 376 819 q 316 861 336 850 q 272 872 296 872 q 230 858 249 872 q 194 807 211 844 l 126 838 q 181 917 146 885 q 269 949 215 949 q 323 938 300 949 q 365 911 346 926 q 405 885 385 896 q 450 874 425 874 q 487 888 472 874 q 521 940 501 901 z "},"œ":{"ha":694,"x_min":8,"x_max":686,"o":"m 517 -17 q 428 -2 469 -17 q 351 40 386 13 q 287 -1 321 13 q 214 -15 253 -15 q 143 -1 179 -15 q 76 51 107 14 q 27 152 46 88 q 8 317 8 217 q 39 511 8 439 q 119 615 69 583 q 224 647 168 647 q 298 631 265 647 q 354 583 331 615 q 417 631 382 615 q 494 647 451 647 q 594 619 553 647 q 658 534 636 590 q 681 393 681 478 l 681 307 l 364 307 q 383 156 367 208 q 429 84 399 103 q 504 65 460 65 q 581 78 547 65 q 638 118 614 92 l 686 58 q 608 2 650 21 q 517 -17 565 -17 m 226 69 q 253 73 240 69 q 275 84 265 76 q 290 101 285 92 q 296 124 296 111 q 295 134 296 126 q 292 156 294 142 q 283 219 286 189 q 279 278 281 250 q 278 331 278 306 q 281 420 278 385 q 287 476 283 456 q 290 503 290 497 q 285 526 290 515 q 272 546 281 538 q 250 559 263 554 q 224 564 238 564 q 161 541 192 564 q 111 467 131 518 q 92 332 92 417 q 108 185 92 243 q 155 98 125 126 q 226 69 185 69 m 365 386 l 599 386 q 588 493 599 453 q 551 552 576 533 q 486 571 526 571 q 423 549 450 571 q 381 487 396 528 q 365 386 365 446 z "},"p":{"ha":694,"x_min":83,"x_max":643,"o":"m 83 -232 l 83 635 l 185 635 l 185 510 q 228 589 200 558 q 295 634 257 619 q 378 649 333 649 q 478 628 431 649 q 563 568 526 608 q 622 467 600 528 q 643 322 643 406 q 620 175 643 239 q 559 69 597 111 q 473 5 521 26 q 375 -17 425 -17 q 302 -5 338 -17 q 238 30 267 7 q 186 83 208 53 l 186 -232 l 83 -232 m 358 72 q 424 84 392 72 q 482 124 456 96 q 524 199 508 151 q 539 318 539 247 q 519 448 539 394 q 463 531 500 501 q 374 563 426 560 q 301 551 335 565 q 240 506 267 538 q 199 422 214 474 q 185 296 185 369 q 194 215 186 251 q 218 152 203 179 q 254 108 233 125 q 301 81 275 90 q 358 72 328 72 z "},"þ":{"ha":694,"x_min":83,"x_max":643,"o":"m 83 924 l 183 924 l 197 924 l 197 914 q 187 896 189 906 q 185 863 185 886 l 185 510 q 228 589 200 558 q 295 634 257 619 q 378 649 333 649 q 478 628 431 649 q 563 568 526 608 q 622 467 600 528 q 643 322 643 406 q 620 175 643 239 q 559 69 597 111 q 473 5 521 26 q 375 -17 425 -17 q 302 -5 338 -17 q 238 30 267 7 q 186 83 208 53 l 186 -232 l 83 -232 l 83 924 m 358 72 q 424 84 392 72 q 482 124 456 96 q 524 199 508 151 q 539 318 539 247 q 519 448 539 394 q 463 531 500 501 q 374 563 426 560 q 301 551 335 565 q 240 506 267 538 q 199 422 214 474 q 185 296 185 369 q 194 215 186 251 q 218 152 203 179 q 254 108 233 125 q 301 81 275 90 q 358 72 328 72 l 358 72 z "},"q":{"ha":694,"x_min":58,"x_max":614,"o":"m 514 -232 l 514 101 q 465 40 494 67 q 398 0 435 14 q 319 -14 361 -14 q 217 10 265 -14 q 134 78 169 35 q 78 183 99 122 q 58 319 58 244 q 81 460 58 399 q 141 564 103 521 q 230 629 179 607 q 338 651 281 651 q 399 644 371 651 q 449 622 426 636 q 490 588 472 608 q 519 542 507 567 l 519 635 l 614 635 l 614 -232 l 514 -232 m 338 74 q 405 88 374 74 q 460 134 436 103 q 498 215 485 165 q 511 335 511 265 q 499 445 511 400 q 465 517 488 490 q 414 557 443 544 q 349 569 385 569 q 275 555 310 569 q 215 510 240 540 q 174 434 189 481 q 160 324 160 388 q 172 219 160 265 q 208 141 185 174 q 265 91 232 108 q 338 74 297 74 z "},"r":{"ha":694,"x_min":165,"x_max":636,"o":"m 165 635 l 269 635 l 265 450 l 253 471 q 282 547 261 514 q 332 603 303 581 q 396 638 361 626 q 468 650 431 650 q 560 633 518 650 q 636 581 603 615 l 592 503 l 586 490 l 576 496 q 568 517 574 507 q 544 540 563 526 q 503 559 522 554 q 461 564 485 564 q 392 551 426 564 q 328 510 357 538 q 283 439 300 482 q 267 336 267 396 l 267 -1 l 165 -1 l 165 635 z "},"ŕ":{"ha":694,"x_min":165,"x_max":636,"o":"m 165 635 l 269 635 l 265 450 l 253 471 q 282 547 261 514 q 332 603 303 581 q 396 638 361 626 q 468 650 431 650 q 560 633 518 650 q 636 581 603 615 l 592 503 l 586 490 l 576 496 q 568 517 574 507 q 544 540 563 526 q 503 559 522 554 q 461 564 485 564 q 392 551 426 564 q 328 510 357 538 q 283 439 300 482 q 267 336 267 396 l 267 -1 l 165 -1 l 165 635 z "},"ř":{"ha":694,"x_min":165,"x_max":636,"o":"m 165 635 l 269 635 l 265 450 l 253 471 q 282 547 261 514 q 332 603 303 581 q 396 638 361 626 q 468 650 431 650 q 560 633 518 650 q 636 581 603 615 l 592 503 l 586 490 l 576 496 q 568 517 574 507 q 544 540 563 526 q 503 559 522 554 q 461 564 485 564 q 392 551 426 564 q 328 510 357 538 q 283 439 300 482 q 267 336 267 396 l 267 -1 l 165 -1 l 165 635 m 247 956 l 401 803 l 556 956 l 611 908 l 418 714 l 385 714 l 192 908 l 247 956 z "}}}
